<svg width="58" height="58" viewBox="0 0 58 58" fill="none" xmlns="http://www.w3.org/2000/svg">
<rect x="1" y="1" width="56" height="56" rx="28" fill="white"/>
<rect x="1" y="1" width="56" height="56" rx="28" stroke="#DAE0E5"/>
<path d="M31.4092 21.2345C31.7216 20.9222 32.2287 20.9221 32.541 21.2345C32.853 21.5468 32.853 22.053 32.541 22.3653L25.9063 28.9991L32.541 35.6339L32.5957 35.6944C32.8519 36.0085 32.8335 36.4718 32.541 36.7647C32.2286 37.0771 31.7216 37.0771 31.4092 36.7647L24.21 29.5655C24.06 29.4156 23.9757 29.2121 23.9756 29.0001C23.9756 28.788 24.06 28.5837 24.21 28.4337L31.4092 21.2345Z" fill="#434446"/>
</svg>
