<svg width="56" height="56" viewBox="0 0 56 56" fill="none" xmlns="http://www.w3.org/2000/svg">
<g clip-path="url(#clip0_328_928)">
<rect width="56" height="56" fill="#E0F4FE"/>
<path d="M30.0055 48.1302C29.1837 48.9363 28.1354 49.7372 26.8063 50.4164C25.7436 50.9601 24.5019 51.4263 23.0518 51.7552C24.832 56.5204 26.8526 59.6941 26.8526 59.6941C26.8526 59.6941 31.3352 53.4371 32.7593 43.8546C32.6264 44.2863 31.9486 46.2229 30.0049 48.1302H30.0055ZM25.7033 53.7653C25.3614 53.7653 25.084 53.4879 25.084 53.1461C25.084 52.8042 25.3614 52.5268 25.7033 52.5268C26.0451 52.5268 26.3225 52.8042 26.3225 53.1461C26.3225 53.4879 26.0451 53.7653 25.7033 53.7653Z" fill="#FFBF44"/>
<path d="M37.2722 19.4197C37.2006 18.9437 37.1205 18.5029 37.0398 18.1135C36.9297 17.5821 36.7845 17.054 36.6002 16.5416C36.3866 15.949 35.8722 15.5381 35.2829 15.4411C35.0732 15.4059 34.8538 15.4111 34.635 15.4626C34.5738 15.4769 34.5387 15.4893 34.5387 15.4893C34.4117 15.5271 34.2867 15.5629 34.1629 15.5974C28.6274 17.1406 26.3347 15.5244 26.2865 15.4899L26.8979 17.1882L27.2417 18.1421C24.4958 18.6982 23.8928 22.2907 23.8928 22.2907C23.6499 21.7977 23.3894 21.3003 23.1856 20.9187C23.0847 20.7285 22.9499 20.5618 22.7923 20.4244C22.4947 20.1659 22.1132 20.0129 21.7081 20.0103H21.6958C20.5628 20.0103 19.6088 20.8314 19.3203 21.9488C19.2617 22.1741 19.2305 22.4124 19.2305 22.6579C19.2305 22.8891 19.2578 23.1131 19.3099 23.3267C19.4532 23.9179 19.782 24.4291 20.2261 24.784C20.2554 24.8387 20.284 24.8934 20.312 24.9481C20.4436 24.9995 20.5758 25.0444 20.7047 25.0829C21.2276 25.2411 21.686 25.2997 21.729 25.3049C21.7309 25.3056 21.7322 25.3056 21.7322 25.3056L21.615 28.4976L21.4073 34.1607L26.754 38.0879L32.1443 34.1282V30.8059C32.4263 30.7981 32.7167 30.7792 33.0156 30.748C33.4408 30.703 33.8289 30.6112 34.1831 30.4777C37.913 29.0823 37.8355 23.147 37.2722 19.4197Z" fill="#F9BEA5"/>
<path d="M29.5574 19.945C29.7356 19.9319 29.8593 19.6364 29.8336 19.2849C29.808 18.9334 29.6426 18.6591 29.4644 18.6721C29.2861 18.6851 29.1624 18.9806 29.1881 19.3321C29.2138 19.6836 29.3791 19.958 29.5574 19.945Z" fill="#231F20"/>
<path d="M35.242 20.0857C35.4202 20.0727 35.5439 19.7772 35.5182 19.4257C35.4925 19.0742 35.3272 18.7998 35.1489 18.8128C34.9707 18.8259 34.847 19.1214 34.8727 19.4729C34.8984 19.8244 35.0637 20.0988 35.242 20.0857Z" fill="#231F20"/>
<path d="M25.7032 53.7652C26.0452 53.7652 26.3225 53.488 26.3225 53.146C26.3225 52.804 26.0452 52.5267 25.7032 52.5267C25.3612 52.5267 25.084 52.804 25.084 53.146C25.084 53.488 25.3612 53.7652 25.7032 53.7652Z" fill="#231F20"/>
<path d="M41.5105 40.0433C41.5105 40.0433 41.0808 42.269 39.7465 45.3333C39.0264 46.9899 38.0405 48.892 36.716 50.8201C36.3891 51.2967 36.0414 51.774 35.6722 52.25C34.0501 54.3383 32.0081 56.3933 29.4503 58.1358C29.4497 58.1358 29.449 58.1371 29.449 58.1371C28.637 58.6906 27.773 59.2129 26.8535 59.6941C26.8535 59.6941 31.3355 53.4371 32.7602 43.8552C32.9777 42.3862 33.1242 40.8403 33.1717 39.2261C33.1789 38.9975 33.1835 38.769 33.1861 38.5385C33.1926 38.0254 33.188 37.5057 33.173 36.9802L35.4606 37.3058L37.3301 37.5721L37.3926 37.5812L40.231 37.9902L39.3571 39.2984L38.9938 39.8427L38.1603 41.0904L41.5105 40.0433Z" fill="#135DD3"/>
<path d="M28.9657 40.5212L28.1752 41.3052C28.0899 41.3899 27.9863 41.4524 27.875 41.4901C28.1843 41.8932 30.0362 44.4653 30.0056 48.1294C31.9493 46.2221 32.6265 44.2862 32.76 43.8539C33.0778 41.7168 33.2438 39.4149 33.1735 36.9789L32.9137 36.9418L30.2485 41.8939L28.9657 40.5206V40.5212Z" fill="#E2D2F9"/>
<path d="M27.6249 41.5325C27.7109 41.5325 27.7949 41.5175 27.8749 41.4908C27.9869 41.453 28.0898 41.3905 28.1751 41.3059L28.9656 40.5219L26.7536 38.153L24.6133 40.4451L25.4813 41.3065C25.5666 41.3912 25.6701 41.4537 25.7815 41.4915C25.8616 41.5182 25.9455 41.5331 26.0315 41.5331H27.6242L27.6249 41.5325Z" fill="#CA6754"/>
<path d="M23.6525 48.1725C21.8937 46.4638 21.1566 44.7226 20.9209 44.0519C21.4158 46.8656 22.207 49.4904 23.0535 51.7545C24.5036 51.4256 25.7447 50.9594 26.8081 50.4157C25.5025 49.7483 24.4684 48.9636 23.6532 48.1718L23.6525 48.1725Z" fill="#FFBF44"/>
<path d="M30.0055 48.1301C29.1838 48.9363 28.1354 49.7372 26.8064 50.4163C25.5015 49.7489 24.4668 48.9642 23.6522 48.1731C23.6072 44.4862 25.4722 41.8959 25.7821 41.4908C25.8622 41.5175 25.9462 41.5325 26.0322 41.5325H27.6249C27.7109 41.5325 27.7949 41.5175 27.875 41.4908C28.1836 41.8939 30.0355 44.466 30.0055 48.1301Z" fill="#CA6754"/>
<path d="M40.1412 14.855C40.0761 15.3219 39.9224 15.7686 39.6958 16.1762C39.5265 16.4816 39.3162 16.7655 39.072 17.0195C39.0225 17.0709 38.9711 17.1256 38.9177 17.1823C38.3707 17.7683 37.6433 18.6298 37.2722 19.4197C37.2005 18.9437 37.1204 18.5028 37.0397 18.1134C36.9296 17.5821 36.7844 17.054 36.6002 16.5415C36.5774 16.4777 36.5507 16.4159 36.5207 16.3566C36.1763 15.667 35.4007 15.2835 34.635 15.4626C34.5738 15.4769 34.5386 15.4893 34.5386 15.4893C28.7309 17.2135 26.3359 15.5251 26.2864 15.4899L26.3502 15.667L27.2417 18.1421C24.6702 18.663 23.978 21.8465 23.8999 22.249C23.8953 22.2763 23.8927 22.2907 23.8927 22.2907C23.6498 21.7977 23.3894 21.3002 23.1856 20.9186C22.8938 20.3717 22.3286 20.0142 21.7081 20.0103H21.6957C20.3341 20.0103 19.2304 21.196 19.2304 22.6579C19.2304 22.8891 19.2577 23.1131 19.3098 23.3266C19.2141 23.1945 19.1171 23.0623 19.0201 22.9301C17.456 20.8027 15.8203 18.7399 15.845 15.9431C15.8561 14.7469 16.3015 13.8327 17.0145 13.1366C17.8831 12.2875 19.1496 11.7613 20.5112 11.4384C20.5112 11.4384 20.4969 11.2528 20.5229 10.9546C20.5229 10.9539 20.5236 10.9526 20.5236 10.9519C20.5496 10.6544 20.6154 10.2454 20.775 9.79874C20.7782 9.78832 20.7821 9.77725 20.786 9.76618C20.7945 9.74404 20.8023 9.7219 20.8108 9.69976C20.8251 9.66329 20.8394 9.62683 20.855 9.59037C20.8681 9.55911 20.8811 9.52786 20.8954 9.4966C21.2523 8.68656 21.936 7.80813 23.237 7.26051C23.3132 7.2286 23.3907 7.19735 23.4688 7.1687C27.9729 5.50172 30.6166 8.69763 30.6166 8.69763C30.6251 8.69697 30.6336 8.69567 30.6427 8.69502C30.6472 8.69437 30.6531 8.69371 30.6596 8.69306H30.6622C31.0242 8.66051 33.4857 8.49707 35.3447 9.80591C35.4196 9.85865 35.4932 9.91335 35.5655 9.97065C36.1138 10.4043 36.5963 10.9793 36.9381 11.7412C36.9381 11.7412 37.2943 11.7548 37.7703 11.8655C37.855 11.8844 37.9429 11.9072 38.034 11.9333L38.0373 11.9346C38.0991 11.9528 38.1629 11.9723 38.2268 11.9938C39.2204 12.3265 40.386 13.0936 40.1412 14.855Z" fill="#700517"/>
<path d="M26.853 59.6941C26.7371 59.6335 26.6225 59.5723 26.5085 59.5098C26.3659 59.433 26.2246 59.3548 26.0846 59.2747C25.8769 59.1575 25.6718 59.0377 25.4693 58.9153C25.3169 58.8235 25.1665 58.7304 25.0174 58.6366C24.6619 58.412 24.3161 58.1821 23.9788 57.9457C23.8993 57.8904 23.8205 57.8344 23.7417 57.7784C23.6857 57.7373 23.6298 57.6976 23.5744 57.6566C23.4722 57.5824 23.3712 57.5075 23.2703 57.432C23.1954 57.376 23.1212 57.3193 23.047 57.2627C22.9753 57.208 22.9037 57.1526 22.8327 57.0966C22.8269 57.092 22.821 57.0875 22.8151 57.0829C22.75 57.0321 22.6856 56.9807 22.6211 56.9286C22.61 56.9201 22.5983 56.911 22.5872 56.9019C22.5176 56.8459 22.4479 56.7899 22.3789 56.7332C22.3059 56.674 22.2337 56.6141 22.162 56.5535C22.1139 56.5138 22.0663 56.4734 22.0188 56.4324C21.9634 56.3868 21.9087 56.34 21.8547 56.2924C21.8521 56.2911 21.8501 56.2892 21.8482 56.2872C21.7863 56.2345 21.7258 56.1811 21.6652 56.1277C21.6437 56.1088 21.6222 56.0899 21.6007 56.071C21.5571 56.0326 21.5141 55.9948 21.4712 55.9557C21.421 55.9115 21.3715 55.8666 21.322 55.821C21.2615 55.7663 21.2009 55.7109 21.141 55.6556C21.0518 55.5729 20.9639 55.4902 20.8766 55.4075C20.8337 55.3671 20.7907 55.3261 20.7484 55.2851C20.5999 55.1418 20.4534 54.9979 20.3095 54.8534C20.2587 54.8026 20.2079 54.7511 20.1578 54.6997C20.0282 54.5675 19.9012 54.4346 19.7762 54.3018C19.7163 54.2393 19.6577 54.1761 19.5997 54.113C19.3458 53.8388 19.1003 53.5627 18.8632 53.2853C18.8203 53.2359 18.7779 53.1857 18.7363 53.1362C18.4035 52.7423 18.0864 52.3464 17.7849 51.9498C17.7413 51.8925 17.6983 51.8352 17.6553 51.7779C17.3988 51.436 17.1533 51.0942 16.9189 50.753C16.8746 50.6891 16.831 50.6247 16.788 50.5609C16.7522 50.5081 16.7164 50.4547 16.6812 50.402C16.6258 50.3199 16.5718 50.2379 16.5184 50.1565C16.4774 50.0933 16.4364 50.0308 16.396 49.9683C16.3537 49.9026 16.3113 49.8368 16.2703 49.7717C16.2286 49.7059 16.187 49.6408 16.1466 49.575C16.1049 49.5093 16.0645 49.4441 16.0248 49.379C15.9851 49.3139 15.9454 49.2488 15.9057 49.1837C15.8666 49.1192 15.8275 49.0541 15.7891 48.9896C15.7604 48.9421 15.7324 48.8945 15.7044 48.847C15.6673 48.7845 15.6309 48.722 15.5951 48.6595C15.1724 47.9321 14.7967 47.2211 14.4633 46.5387C14.434 46.4787 14.4047 46.4182 14.3761 46.3583C14.2315 46.0587 14.0954 45.7651 13.9671 45.4779C13.9476 45.4349 13.9287 45.392 13.9099 45.349C13.8285 45.1641 13.7497 44.9824 13.6741 44.8039C13.6513 44.7486 13.6279 44.6939 13.6057 44.6399C13.5263 44.4484 13.4501 44.2609 13.3778 44.0772C13.3564 44.0238 13.3355 43.9705 13.3153 43.9177C13.2743 43.8122 13.2339 43.708 13.1955 43.6051C13.176 43.5537 13.1571 43.5029 13.1382 43.4521C13.1317 43.4352 13.1258 43.4189 13.1193 43.402C13.0887 43.3186 13.0581 43.236 13.0288 43.1552C13.023 43.137 13.0158 43.1187 13.0093 43.1005C12.9943 43.0582 12.9793 43.0165 12.965 42.9748C12.9422 42.9117 12.9201 42.8491 12.8986 42.7873C12.8758 42.7209 12.853 42.6551 12.8309 42.5906C12.4721 41.5344 12.2637 40.7387 12.1647 40.3266C12.1608 40.3096 12.1569 40.2933 12.153 40.2777C12.1432 40.2347 12.1341 40.1963 12.127 40.1638C12.1237 40.1514 12.1211 40.1397 12.1192 40.1286C12.1133 40.1045 12.1094 40.0843 12.1055 40.068C12.1029 40.057 12.1009 40.0472 12.0996 40.0394C12.0957 40.0211 12.0938 40.012 12.0938 40.012L15.4433 41.0591L13.7334 38.4981L13.3759 37.9628L15.4472 37.6678L20.4299 36.9587C20.3153 39.3876 20.5211 41.7819 20.9203 44.0525C21.4151 46.8662 22.2063 49.4904 23.0528 51.7551C24.1767 54.7628 25.3957 57.1363 26.1426 58.4784C26.5789 59.2624 26.8537 59.6941 26.8537 59.6941H26.853Z" fill="#135DD3"/>
<path d="M60.2924 56.8114V64.3018H-3.32812L-3.32162 53.2932L5.28544 40.6587C5.35707 40.5539 5.43197 40.4523 5.51141 40.3546C6.23746 39.454 7.27476 38.8504 8.42667 38.6681L13.3755 37.9629L13.733 38.4981L15.4429 41.0592L12.0934 40.0121C12.0934 40.0121 12.0953 40.0212 12.0992 40.0394C12.1005 40.0473 12.1025 40.057 12.1051 40.0681C12.109 40.0844 12.1129 40.1046 12.1188 40.1287C12.1207 40.1397 12.1233 40.1514 12.1266 40.1638C12.1337 40.1964 12.1429 40.2348 12.1526 40.2778C12.1565 40.2934 12.1604 40.3097 12.1643 40.3266C12.2633 40.7388 12.4717 41.5345 12.8305 42.5907C12.8526 42.6552 12.8754 42.7209 12.8982 42.7873C12.9197 42.8492 12.9418 42.9117 12.9646 42.9749C12.9789 43.0166 12.9939 43.0582 13.0089 43.1006C13.0154 43.1188 13.0226 43.137 13.0284 43.1553C13.0577 43.236 13.0883 43.3187 13.1189 43.402C13.1254 43.419 13.1313 43.4352 13.1378 43.4522C13.1567 43.503 13.1756 43.5538 13.1951 43.6052C13.2335 43.7081 13.2739 43.8123 13.3149 43.9178C13.3351 43.9705 13.356 44.0239 13.3774 44.0773C13.4497 44.2609 13.5259 44.4485 13.6054 44.6399C13.6275 44.6946 13.6509 44.7493 13.6737 44.804C13.7493 44.9824 13.8281 45.1641 13.9095 45.349C13.9283 45.392 13.9472 45.435 13.9667 45.478C14.095 45.7651 14.2311 46.0588 14.3757 46.3583C14.4043 46.4182 14.433 46.4782 14.4629 46.5387C14.7963 47.2211 15.1721 47.9322 15.5947 48.6595C15.6305 48.722 15.6669 48.7846 15.704 48.8471C15.732 48.8946 15.76 48.9421 15.7887 48.9897C15.8265 49.0541 15.8655 49.1186 15.9053 49.1837C15.9443 49.2488 15.9841 49.3139 16.0244 49.3791C16.0642 49.4442 16.1045 49.5093 16.1462 49.5751C16.1866 49.6402 16.2276 49.706 16.2699 49.7717C16.3109 49.8368 16.3533 49.9026 16.3956 49.9684C16.436 50.0309 16.4763 50.094 16.518 50.1565C16.5714 50.2379 16.6254 50.32 16.6808 50.402C16.7153 50.4548 16.7511 50.5082 16.7876 50.5609C16.8306 50.6248 16.8742 50.6892 16.9185 50.753C17.1529 51.0942 17.3984 51.4361 17.6549 51.778C17.6973 51.8353 17.7409 51.8925 17.7845 51.9498C18.086 52.3464 18.4031 52.7423 18.7359 53.1363C18.7775 53.1858 18.8199 53.2359 18.8628 53.2854C19.0999 53.5628 19.3454 53.8389 19.5993 54.113C19.6573 54.1762 19.7159 54.2393 19.7758 54.3019C19.9008 54.4347 20.0278 54.5675 20.1574 54.6997C20.2075 54.7512 20.2576 54.802 20.3091 54.8534C20.453 54.998 20.5995 55.1419 20.748 55.2851C20.7903 55.3261 20.8333 55.3672 20.8762 55.4075C20.9635 55.4902 21.0514 55.5729 21.1406 55.6556C21.2005 55.711 21.2604 55.7663 21.3216 55.821C21.3711 55.8666 21.4206 55.9115 21.4707 55.9558C21.5137 55.9949 21.5567 56.0326 21.6003 56.0711C21.6218 56.0899 21.6433 56.1088 21.6648 56.1277C21.7254 56.1811 21.7859 56.2345 21.8478 56.2873C21.8497 56.2892 21.8517 56.2912 21.8543 56.2925C21.9083 56.34 21.963 56.3869 22.0184 56.4325C22.0659 56.4735 22.1134 56.5139 22.1616 56.5536C22.2333 56.6141 22.3055 56.6734 22.3785 56.7333C22.4475 56.7899 22.5165 56.846 22.5869 56.902C22.5979 56.9111 22.6096 56.9202 22.6207 56.9286C22.6852 56.9807 22.7496 57.0322 22.8148 57.083C22.8206 57.0875 22.8265 57.0921 22.8323 57.0966C22.9033 57.1526 22.9743 57.208 23.0466 57.2627C23.1202 57.3194 23.195 57.376 23.2699 57.432C23.3708 57.5076 23.4718 57.5824 23.574 57.6566C23.6294 57.6977 23.6854 57.7374 23.7414 57.7778C23.8195 57.8344 23.899 57.8904 23.9784 57.9458C24.3157 58.1821 24.6614 58.412 25.017 58.6367C25.1661 58.7304 25.3165 58.8235 25.4689 58.9154C25.6714 59.0378 25.8765 59.1576 26.0842 59.2748C26.2242 59.3549 26.3655 59.433 26.5081 59.5099C26.6221 59.5724 26.7367 59.6336 26.8526 59.6941C38.9382 53.3648 41.5096 40.0433 41.5096 40.0433L38.1594 41.0904L38.9929 39.8428L39.3562 39.2984L40.2301 37.9902L37.3917 37.5813L45.1399 38.6857C46.3497 38.8771 47.4365 39.5348 48.1678 40.5174L52.3417 46.1272L60.2918 56.8114H60.2924Z" fill="#2A6FF1"/>
<path d="M20.9202 44.0525C21.1559 44.7226 21.8937 46.4644 23.6518 48.1731C23.6069 44.4862 25.4718 41.8959 25.7824 41.4908C25.6704 41.4531 25.5675 41.3906 25.4822 41.3059L24.6142 40.4444L23.2598 41.8952L20.5933 36.9353L20.4312 36.9581C20.3159 39.3869 20.5223 41.7812 20.9215 44.0518L20.9202 44.0525Z" fill="#E2D2F9"/>
<path d="M25.7032 53.7652C26.0452 53.7652 26.3225 53.488 26.3225 53.146C26.3225 52.804 26.0452 52.5267 25.7032 52.5267C25.3612 52.5267 25.084 52.804 25.084 53.146C25.084 53.488 25.3612 53.7652 25.7032 53.7652Z" fill="#DD9828"/>
<path d="M21.7317 25.3055L21.6145 28.4975C21.3215 27.2805 20.893 26.068 20.3115 24.948C20.4431 24.9994 20.5752 25.0444 20.7042 25.0828C21.2271 25.241 21.6855 25.2996 21.7285 25.3048C21.7304 25.3055 21.7317 25.3055 21.7317 25.3055Z" fill="#700517"/>
<g style="mix-blend-mode:multiply">
<path d="M24.3975 26.9126C24.3975 26.9126 25.7336 34.5286 32.1437 34.1275V30.8053C32.1437 30.8053 27.4208 31.2363 24.3975 26.9126Z" fill="#DBAB9A"/>
</g>
<g style="mix-blend-mode:multiply">
<path d="M33.1729 36.9803L32.9138 36.9432L32.025 34.8197L26.716 38.2084L21.4071 34.8204L20.3984 37.2342L22.9113 43.0126C22.9927 43.1995 23.2434 43.2327 23.3703 43.0732L26.716 38.8797L30.063 43.0745C30.19 43.2334 30.44 43.2008 30.5214 43.0146L33.1729 36.9809V36.9803Z" fill="#B99FE2"/>
</g>
<g style="mix-blend-mode:screen">
<path d="M34.1826 30.4777C38.6893 25.8805 35.2824 15.441 35.2824 15.441C35.8717 15.5381 36.3861 15.949 36.5997 16.5415C36.784 17.054 36.9292 17.5821 37.0392 18.1134C37.12 18.5028 37.2001 18.9437 37.2717 19.4197C37.835 23.1469 37.9125 29.0823 34.1826 30.4777Z" fill="#F9BEA5"/>
</g>
<g style="mix-blend-mode:screen">
<path d="M35.5396 11.7568C33.4331 11.9665 31.5154 10.6387 29.476 10.0696C27.9347 9.63985 26.295 9.64637 24.7173 9.91334C24.505 9.94916 24.2321 10.0807 24.2895 10.2878C24.3181 10.3893 24.4197 10.4492 24.5134 10.4987C24.9849 10.7488 25.5364 11.1577 25.4107 11.676C25.3541 11.9092 25.1672 12.0856 24.9803 12.2367C23.2782 13.6132 20.5713 14 18.4342 13.8958C17.8722 13.8685 17.2523 13.6263 17.0146 13.1366C17.8833 12.2875 19.1498 11.7613 20.5114 11.4384C20.5114 11.4384 20.4971 11.2528 20.5231 10.9546C20.5231 10.9539 20.5238 10.9526 20.5238 10.9519C20.611 10.5612 20.6442 10.1803 20.7751 9.79874C20.7784 9.78832 20.7823 9.77725 20.7862 9.76618C20.7914 9.7512 20.7966 9.73688 20.8025 9.7219C20.8051 9.71474 20.8083 9.70692 20.8109 9.69976C20.8253 9.66329 20.8396 9.62683 20.8552 9.59037C20.8682 9.55911 20.8813 9.52786 20.8956 9.4966C21.356 8.46712 22.2031 7.70199 23.2372 7.26051C23.3133 7.2286 23.3908 7.19735 23.469 7.1687C27.9731 5.50172 30.6168 8.69763 30.6168 8.69763C30.6253 8.69697 30.6337 8.69567 30.6428 8.69502C30.6487 8.69437 30.6539 8.69371 30.6597 8.69306H30.6624C31.6111 8.69306 32.5175 8.65399 33.4571 8.85716C33.9234 8.95809 34.3994 9.09809 34.8103 9.34749C35.1613 9.56042 35.731 9.83194 35.7707 10.2852C35.4178 10.1367 35.0173 10.2012 34.6344 10.2057C34.2424 10.2103 33.8491 10.1484 33.4773 10.0234C33.1817 9.92376 32.8978 9.78507 32.5918 9.72516C32.3261 9.67372 31.5395 9.54413 31.8045 9.95566C31.9959 10.2526 32.7018 10.5157 33.0111 10.6824C33.4259 10.9057 33.8511 11.1095 34.2848 11.2932C34.5928 11.4227 35.2062 11.79 35.5396 11.7568Z" fill="#700517"/>
</g>
<g style="mix-blend-mode:multiply" opacity="0.7">
<path d="M38.9174 17.1823C38.3705 17.7683 37.6431 18.6298 37.272 19.4196C37.2003 18.9436 37.1202 18.5028 37.0395 18.1134C36.9294 17.5821 36.7842 17.054 36.5999 16.5415C36.5771 16.4777 36.5505 16.4158 36.5205 16.3566C36.7478 16.3781 36.9477 16.6268 37.1723 16.7525C37.5422 16.9589 38.3561 17.2584 38.9174 17.1823Z" fill="#700517"/>
</g>
<g style="mix-blend-mode:screen">
<path d="M38.0339 11.9332L37.7559 11.872C37.7604 11.8694 37.7656 11.8674 37.7702 11.8655C37.8548 11.8844 37.9427 11.9072 38.0339 11.9332Z" fill="#700517"/>
</g>
<g style="mix-blend-mode:screen">
<path d="M40.1414 14.855C40.0763 15.3219 39.9226 15.7686 39.696 16.1762C39.6927 16.171 39.6895 16.1658 39.6869 16.1599C39.6732 16.13 39.6686 16.0961 39.6647 16.0635C39.6263 15.7529 39.5872 15.4417 39.5488 15.1311C39.498 14.7228 39.4466 14.3093 39.2929 13.9277C39.0396 13.2961 38.5297 12.8032 37.9912 12.3864C37.8779 12.2992 37.7522 12.1422 37.8467 12.0342C37.9333 11.9339 38.0947 12.014 38.2269 11.9938C39.2206 12.3265 40.3862 13.0936 40.1414 14.855Z" fill="#700517"/>
</g>
<g style="mix-blend-mode:screen">
<path d="M27.2415 18.1421C24.6701 18.6631 23.9779 21.8466 23.8998 22.249C23.8431 22.0244 23.8392 21.7756 23.8607 21.5458C23.9688 20.3886 24.5151 19.2784 25.3662 18.4879C25.624 18.2483 25.9887 17.9865 26.0818 17.6264C26.2348 17.0319 26.087 16.3163 26.0277 15.7133C26.0232 15.6671 26.0199 15.6163 26.0479 15.5792C26.1085 15.4991 26.2361 15.5596 26.3097 15.628C26.3234 15.641 26.3371 15.654 26.3501 15.6671L27.2415 18.1421Z" fill="#700517"/>
</g>
<g style="mix-blend-mode:screen">
<path d="M22.7923 20.4244C22.7103 20.5742 22.5807 20.6849 22.4218 20.763C22.1887 20.8776 21.9289 20.9245 21.6632 20.9564C21.3005 21 20.9267 21.0156 20.5907 21.1342C20.3869 21.2058 20.1838 21.2852 20.0047 21.405C19.8074 21.5366 19.6439 21.7137 19.4551 21.8569C19.4121 21.8895 19.3672 21.9208 19.3203 21.9488C19.6088 20.8314 20.5627 20.0103 21.6958 20.0103H21.7081C22.1132 20.0129 22.4947 20.1659 22.7923 20.4244Z" fill="#F9BEA5"/>
</g>
<path d="M26.7539 38.0872L26.7897 38.1139L26.7539 38.1523L28.9659 40.5212L30.2487 41.8951L32.9139 36.9431V36.9424L32.1443 34.1281V34.1274L26.7539 38.0872Z" fill="#735FFF"/>
<path d="M24.6137 40.4444L26.7541 38.1523L26.7899 38.1139L26.7541 38.0872L21.408 34.16H21.4074L20.5928 36.9353L23.2593 41.8952L24.6137 40.4444Z" fill="#735FFF"/>
<g style="mix-blend-mode:screen">
<path d="M32.1443 34.1282L26.7539 38.0872L28.2516 39.8421L32.2654 34.61L32.1443 34.1282Z" fill="#735FFF"/>
</g>
<g style="mix-blend-mode:screen">
<path d="M21.4076 34.16L26.7536 38.0872L25.0437 39.9593L21.2441 34.5032L21.4076 34.16Z" fill="#735FFF"/>
</g>
<g style="mix-blend-mode:screen">
<path d="M52.3424 46.1271L52.334 46.1343L47.7745 41.6458C46.8232 40.7094 45.5918 40.1097 44.2687 39.9372L39.3146 39.3622L39.5367 39.0294L33.238 38.3262L33.1729 36.9802L37.3924 37.5812L45.1406 38.6856C46.3504 38.8771 47.4372 39.5347 48.1685 40.5173L52.3424 46.1271Z" fill="#2A6FF1"/>
</g>
<g style="mix-blend-mode:multiply">
<path d="M33.1719 39.2261C33.1243 40.8403 32.9778 42.3862 32.7603 43.8552C31.3356 53.4371 26.8536 59.6941 26.8536 59.6941C26.8536 59.6941 26.5789 59.2624 26.1426 58.4784C26.1999 58.4074 26.2598 58.3377 26.323 58.268C29.7201 54.5199 33.1191 39.4611 33.1719 39.2261Z" fill="#B99FE2"/>
</g>
<g style="mix-blend-mode:screen">
<path d="M26.8511 59.666C21.9589 56.0111 18.2498 51.1241 15.8425 47.3356C14.6704 45.4909 13.8376 43.4501 13.3883 41.3111C13.3713 41.2303 13.3629 41.1874 13.3629 41.1874L14.4152 41.638C16.6252 42.642 15.444 41.0897 15.444 41.0897L12.0938 40.0426C12.0938 40.0426 13.1141 45.3261 16.8883 50.8193C16.8049 50.6787 16.7242 50.5361 16.6441 50.3922C18.8886 53.7359 22.1633 57.2151 26.8524 59.6719H26.8556L26.8602 59.6732C26.8569 59.6706 26.8543 59.668 26.8511 59.6654V59.666Z" fill="#2A6FF1"/>
</g>
<g style="mix-blend-mode:screen">
<path d="M39.7464 45.3334C39.0262 46.9899 38.0403 48.892 36.7159 50.8201C36.389 51.2967 36.0413 51.774 35.672 52.25C34.05 54.3383 32.008 56.3934 29.4502 58.1359C29.5492 58.0271 36.0589 51.3573 39.7464 45.3334Z" fill="#2A6FF1"/>
</g>
<g style="mix-blend-mode:screen">
<path d="M21.4597 46.6142C21.4597 46.6142 22.721 48.9109 25.6884 49.8583C25.6884 49.8583 21.7404 46.8336 20.9199 44.0519L21.4597 46.6142Z" fill="#CA6754"/>
</g>
<g style="mix-blend-mode:screen">
<path d="M30.0051 48.1301L29.8332 48.2727C29.393 44.4302 27.1765 41.7311 27.03 41.5266C27.0247 41.5195 27.1934 41.5214 27.1934 41.5214L26.8594 41.5325C27.6935 41.3931 28.3759 41.0383 28.4176 41.0161L27.8745 41.4908C28.1832 41.8939 30.0351 44.466 30.0051 48.1301Z" fill="#CA6754"/>
</g>
<g style="mix-blend-mode:screen">
<path d="M15.4472 37.6678C15.2082 37.8521 14.9431 38.011 14.6143 38.1478C14.3219 38.2689 14.0289 38.3861 13.7333 38.4981C12.9903 38.782 12.2376 39.0372 11.4724 39.2586C9.52938 39.8199 7.52707 40.182 5.51172 40.3545C6.23777 39.454 7.27507 38.8504 8.42698 38.668L13.3758 37.9628L15.4472 37.6678Z" fill="#2A6FF1"/>
</g>
<g style="mix-blend-mode:multiply">
<path d="M34.1346 15.6143C34.0532 15.8409 33.7979 15.9457 33.5687 16.0206C31.9089 16.561 30.3018 16.772 28.6283 16.6756C28.1693 16.649 27.7057 16.5995 27.2349 16.5272C27.1919 16.52 27.1456 16.5142 27.1079 16.5356C27.0688 16.5571 27.0499 16.6014 27.0343 16.6431C26.9692 16.8196 26.9236 17.0019 26.8976 17.1881L26.2861 15.4899C26.3246 15.5172 27.7799 16.5435 31.1536 16.1892L34.0213 15.6357L34.1346 15.6143Z" fill="#DBAB9A"/>
</g>
<g style="mix-blend-mode:multiply">
<path d="M34.7136 15.5166L34.2012 15.6781C34.3542 15.5622 34.5157 15.4684 34.7136 15.5166Z" fill="#F9BEA5"/>
</g>
<path d="M21.6956 25.4031C21.1395 25.4031 20.6101 25.2156 20.1647 24.8601C20.1224 24.8262 20.1158 24.765 20.149 24.7227C20.1829 24.6803 20.2441 24.6738 20.2865 24.707C20.6967 25.0346 21.1837 25.2078 21.6949 25.2078C22.0426 25.2078 22.3773 25.1283 22.6899 24.9721C22.7381 24.948 22.7967 24.9675 22.8208 25.0157C22.8449 25.0639 22.8253 25.1225 22.7772 25.1466C22.4372 25.3165 22.0726 25.4025 21.6943 25.4025L21.6956 25.4031Z" fill="#231F20"/>
<path d="M20.226 24.8809C20.2046 24.8809 20.1831 24.8737 20.1648 24.8594C19.6979 24.4863 19.3606 23.9497 19.2148 23.3494C19.2018 23.2966 19.2343 23.2439 19.2864 23.2315C19.3398 23.2185 19.3919 23.2511 19.4043 23.3031C19.5397 23.8618 19.8529 24.3606 20.2866 24.707C20.3289 24.7409 20.3354 24.8021 20.3022 24.8444C20.2827 24.8685 20.2547 24.8809 20.226 24.8809Z" fill="#231F20"/>
<path d="M21.8808 23.294C21.8691 23.294 21.8574 23.292 21.8457 23.2875C21.7955 23.268 21.7701 23.212 21.7897 23.1612C21.8548 22.9906 21.8359 22.846 21.7304 22.7197C21.5572 22.512 21.315 22.6285 21.005 22.8688C20.9894 22.8812 20.9692 22.8974 20.9451 22.917C20.7087 23.111 20.4639 23.2933 20.2939 23.2067C20.2034 23.1605 20.1631 23.0544 20.1735 22.8916C20.195 22.5556 20.2998 22.2261 20.4756 21.9396C20.6247 21.6973 20.8038 21.5215 21.0083 21.418C21.438 21.1999 21.9603 21.2949 22.4141 21.4173C22.4662 21.431 22.4968 21.4851 22.4832 21.5372C22.4695 21.5893 22.4161 21.6205 22.3633 21.6062C21.9453 21.4935 21.4673 21.4043 21.0962 21.5925C20.9243 21.6798 20.7712 21.8308 20.6417 22.0425C20.4821 22.3023 20.3871 22.6005 20.3675 22.9046C20.361 23.0107 20.3825 23.0342 20.3832 23.0342C20.4105 23.0459 20.5043 23.027 20.8201 22.7672C20.8455 22.7464 20.8676 22.7281 20.8845 22.7151C21.0838 22.5615 21.5507 22.2007 21.8795 22.596C22.03 22.7763 22.0612 22.9964 21.9713 23.2321C21.9564 23.2712 21.9192 23.2947 21.8802 23.2947L21.8808 23.294Z" fill="#231F20"/>
<path d="M33.4182 23.0857C33.1369 23.0857 32.838 22.9079 32.5736 22.7354C32.5287 22.7061 32.5157 22.6455 32.545 22.5999C32.5749 22.555 32.6348 22.542 32.6804 22.5713C32.879 22.7008 33.2482 22.9424 33.5133 22.8793C33.6155 22.8552 33.6982 22.7868 33.7646 22.6715C33.9821 22.2958 33.9606 21.6759 33.7014 20.8789C33.4794 20.1952 33.1167 19.5746 32.8263 19.1103C32.7976 19.0648 32.8113 19.0042 32.8569 18.9755C32.9025 18.9469 32.963 18.9606 32.9917 19.0062C33.2886 19.4795 33.6585 20.1138 33.887 20.8177C34.1677 21.6811 34.1833 22.3375 33.9333 22.7686C33.8395 22.9307 33.7132 23.0316 33.5582 23.0681C33.5119 23.0792 33.4651 23.0844 33.4182 23.0844V23.0857Z" fill="#231F20"/>
<path d="M31.8453 30.908C29.1612 30.908 27.2826 29.8773 26.1658 28.9943C24.9104 28.0013 24.3367 27.003 24.3126 26.9613C24.2859 26.9145 24.3022 26.8552 24.3491 26.8285C24.396 26.8018 24.4559 26.8181 24.4819 26.865C24.4878 26.8747 25.0647 27.8769 26.2928 28.8465C27.4246 29.7399 29.3585 30.7876 32.1403 30.7088C32.1924 30.7062 32.2392 30.7498 32.2405 30.8039C32.2418 30.8579 32.1995 30.9028 32.1455 30.9041C32.0439 30.9067 31.9436 30.9087 31.844 30.9087L31.8453 30.908Z" fill="#231F20"/>
<path d="M32.1436 30.9036C32.0909 30.9036 32.0472 30.8619 32.0459 30.8085C32.0446 30.7544 32.0869 30.7095 32.141 30.7082C32.4275 30.7004 32.7186 30.6808 33.0051 30.6502C34.2364 30.52 35.2288 29.9769 35.9548 29.036C37.9715 26.4248 37.4799 21.4513 37.1751 19.434C37.1673 19.3806 37.2038 19.3311 37.2572 19.3226C37.3106 19.3141 37.3601 19.3513 37.3685 19.4047C37.6772 21.4467 38.1727 26.4854 36.1098 29.1558C35.3493 30.1404 34.312 30.7088 33.0259 30.8449C32.7342 30.8755 32.4386 30.8957 32.1468 30.9042C32.1462 30.9042 32.1449 30.9042 32.1442 30.9042L32.1436 30.9036Z" fill="#231F20"/>
<path d="M21.6153 28.5952C21.6153 28.5952 21.6127 28.5952 21.6114 28.5952C21.5574 28.5932 21.5157 28.5477 21.5176 28.4943L21.6348 25.3023C21.6368 25.2482 21.6843 25.2059 21.7358 25.2085C21.7898 25.2104 21.8315 25.256 21.8296 25.3094L21.7123 28.5014C21.7104 28.5542 21.6667 28.5958 21.6147 28.5958L21.6153 28.5952Z" fill="#231F20"/>
<path d="M21.4073 34.2577C21.4073 34.2577 21.4047 34.2577 21.4034 34.2577C21.3494 34.2558 21.3077 34.2102 21.3096 34.1568L21.5174 28.4943C21.5193 28.4402 21.5655 28.3979 21.6183 28.4005C21.6723 28.4025 21.714 28.448 21.712 28.5014L21.5043 34.1639C21.5024 34.2167 21.4587 34.2584 21.4066 34.2584L21.4073 34.2577Z" fill="#231F20"/>
<path d="M37.3922 37.6789C37.3876 37.6789 37.383 37.6789 37.3785 37.6783L33.1589 37.0772C33.1055 37.0694 33.0684 37.0199 33.0762 36.9666C33.084 36.9132 33.1329 36.876 33.1869 36.8839L37.4065 37.4849C37.4599 37.4927 37.497 37.5422 37.4892 37.5956C37.482 37.6444 37.4403 37.6796 37.3928 37.6796L37.3922 37.6789Z" fill="#231F20"/>
<path d="M33.1736 37.0779C33.1691 37.0779 33.1645 37.0779 33.16 37.0772L32.9001 37.0401C32.8467 37.0323 32.8096 36.9828 32.8174 36.9294C32.8253 36.876 32.8735 36.8396 32.9282 36.8467L33.188 36.8838C33.2413 36.8916 33.2785 36.9411 33.2707 36.9945C33.2635 37.0434 33.2218 37.0785 33.1743 37.0785L33.1736 37.0779Z" fill="#231F20"/>
<path d="M60.2924 64.3993H-3.32811C-3.35415 64.3993 -3.3789 64.3889 -3.39713 64.3706C-3.41537 64.3524 -3.42578 64.3277 -3.42578 64.3016L-3.41928 53.2931C-3.41928 53.2735 -3.41342 53.2546 -3.40235 53.2384L5.20472 40.6039C5.94444 39.5177 7.11328 38.7767 8.41169 38.5716L13.3625 37.867C13.4165 37.8592 13.4654 37.8963 13.4732 37.9497C13.481 38.0031 13.4439 38.0526 13.3905 38.0604L8.44166 38.765C7.19794 38.9623 6.07728 39.6727 5.36751 40.7146L-3.22263 53.3243L-3.22849 64.2046H60.1961V56.8445L48.0916 40.5765C47.3714 39.6082 46.3185 38.9714 45.1269 38.7826L37.3806 37.6782C37.3272 37.6704 37.2901 37.6209 37.2979 37.5675C37.3057 37.5141 37.3546 37.4776 37.4086 37.4848L45.1568 38.5892C46.4005 38.7865 47.4984 39.45 48.2492 40.4593L60.3732 56.7533C60.3856 56.7703 60.3927 56.7905 60.3927 56.812V64.3023C60.3927 64.3563 60.3491 64.4 60.295 64.4L60.2924 64.3993Z" fill="#231F20"/>
<path d="M13.3757 38.0604C13.3282 38.0604 13.2859 38.0253 13.2794 37.9764C13.2715 37.923 13.3087 37.8735 13.3621 37.8657L20.4161 36.8616C20.4702 36.8538 20.519 36.8909 20.5268 36.9443C20.5346 36.9977 20.4975 37.0472 20.4441 37.055L13.3901 38.0591C13.3855 38.0591 13.3809 38.0598 13.3764 38.0598L13.3757 38.0604Z" fill="#231F20"/>
<path d="M20.4294 37.0564C20.3819 37.0564 20.3396 37.0213 20.3331 36.9724C20.3253 36.919 20.3624 36.8695 20.4158 36.8617L20.5779 36.8389C20.6307 36.8311 20.6808 36.8682 20.6886 36.9216C20.6964 36.975 20.6593 37.0245 20.6059 37.0323L20.4438 37.0551C20.4392 37.0551 20.4347 37.0558 20.4301 37.0558L20.4294 37.0564Z" fill="#231F20"/>
<path d="M32.1436 30.9028C32.0895 30.9028 32.0459 30.8599 32.0459 30.8058V30.8039C32.0459 30.7498 32.0895 30.7062 32.1436 30.7062C32.1976 30.7062 32.2412 30.7498 32.2412 30.8039C32.2412 30.8579 32.1976 30.9022 32.1436 30.9022V30.9028Z" fill="#231F20"/>
<path d="M32.1436 34.2257C32.0895 34.2257 32.0459 34.1821 32.0459 34.128V30.8058C32.0459 30.7518 32.0895 30.7081 32.1436 30.7081C32.1976 30.7081 32.2412 30.7518 32.2412 30.8058V34.128C32.2412 34.1821 32.1976 34.2257 32.1436 34.2257Z" fill="#231F20"/>
<path d="M20.5927 37.0329C20.5836 37.0329 20.5745 37.0316 20.5654 37.029C20.514 37.014 20.484 36.9593 20.499 36.9078L21.3136 34.1326C21.322 34.1026 21.3449 34.0792 21.3742 34.0681C21.4035 34.0577 21.436 34.0616 21.4614 34.0786C21.4998 34.1039 21.5141 34.1521 21.4992 34.1938L20.6865 36.9625C20.6741 37.0049 20.6351 37.0329 20.5927 37.0329Z" fill="#231F20"/>
<path d="M23.2592 41.9928C23.2553 41.9928 23.2507 41.9928 23.2468 41.9921C23.2156 41.9882 23.1882 41.9694 23.1733 41.9414L20.5067 36.9814C20.4813 36.9339 20.4989 36.8747 20.5465 36.8493C20.594 36.8239 20.6533 36.8415 20.6786 36.889L23.2807 41.7291L24.5426 40.3779C24.5798 40.3382 24.6416 40.3362 24.6807 40.3734C24.7204 40.4105 24.7224 40.4717 24.6852 40.5114L23.3308 41.9622C23.3119 41.9824 23.2865 41.9934 23.2592 41.9934V41.9928Z" fill="#231F20"/>
<path d="M24.6132 40.542C24.5891 40.542 24.5657 40.5336 24.5468 40.516C24.5071 40.4789 24.5051 40.4177 24.5422 40.3779L26.6826 38.0858C26.7197 38.0461 26.7816 38.0442 26.8206 38.0813C26.8604 38.1184 26.8623 38.1796 26.8252 38.2193L24.6848 40.5114C24.6653 40.5322 24.6392 40.5427 24.6132 40.5427V40.542Z" fill="#231F20"/>
<path d="M26.7536 38.25C26.7295 38.25 26.7061 38.2415 26.6872 38.2239C26.6579 38.1966 26.6495 38.1556 26.6618 38.1197C26.6514 38.0904 26.6553 38.0566 26.6755 38.0292C26.7074 37.9856 26.7686 37.9765 26.8123 38.0084L26.8481 38.0351C26.8702 38.0514 26.8845 38.0768 26.8871 38.1048C26.8897 38.1328 26.8806 38.1601 26.8611 38.1803L26.8253 38.2187C26.8057 38.2396 26.7797 38.25 26.7536 38.25Z" fill="#231F20"/>
<path d="M26.7534 38.1848C26.7332 38.1848 26.7131 38.1789 26.6955 38.1659L21.3494 34.2387C21.3058 34.2068 21.2967 34.1456 21.3286 34.102C21.3605 34.0584 21.4217 34.0492 21.4653 34.0811L26.8114 38.0083C26.855 38.0402 26.8641 38.1014 26.8322 38.1451C26.8133 38.1711 26.7834 38.1848 26.7534 38.1848Z" fill="#231F20"/>
<path d="M26.754 38.1848C26.7241 38.1848 26.6941 38.1711 26.6753 38.1451C26.6434 38.1014 26.6525 38.0402 26.6961 38.0083L32.0864 34.0486L32.2024 34.2062L26.812 38.1659C26.7944 38.1789 26.7742 38.1848 26.754 38.1848Z" fill="#231F20"/>
<path d="M30.248 41.9928C30.2213 41.9928 30.1952 41.9818 30.1764 41.9616L28.8935 40.5876C28.8564 40.5479 28.859 40.4867 28.8981 40.4496C28.9372 40.4131 28.999 40.4151 29.0361 40.4541L30.2258 41.7285L32.8266 36.8962C32.852 36.8487 32.9112 36.8311 32.9588 36.8565C33.0063 36.8819 33.0239 36.9411 32.9985 36.9887L30.3333 41.9407C30.3183 41.9687 30.2909 41.987 30.2597 41.9915C30.2558 41.9915 30.2512 41.9922 30.2473 41.9922L30.248 41.9928Z" fill="#231F20"/>
<path d="M32.9138 37.0401C32.8949 37.0401 32.8767 37.0349 32.8598 37.0238C32.837 37.0089 32.8227 36.9861 32.8181 36.9613L32.0504 34.1535C32.0361 34.1014 32.0667 34.048 32.1188 34.0337C32.1702 34.0194 32.2242 34.05 32.2386 34.1021L33.0083 36.9164C33.0154 36.9437 33.0109 36.973 32.9952 36.9965C32.9763 37.0245 32.9451 37.0401 32.9138 37.0401Z" fill="#231F20"/>
<path d="M28.9652 40.6189C28.9392 40.6189 28.9131 40.6085 28.8936 40.5876L26.6816 38.2187C26.6445 38.179 26.6471 38.1178 26.6862 38.0807C26.7252 38.0442 26.7871 38.0461 26.8242 38.0852L29.0362 40.4542C29.0733 40.4939 29.0707 40.5551 29.0317 40.5922C29.0128 40.6098 28.9887 40.6182 28.9652 40.6182V40.6189Z" fill="#231F20"/>
<path d="M26.853 59.7918C26.8204 59.7918 26.7892 59.7755 26.7703 59.7468C26.7501 59.7149 24.7237 56.5099 22.9603 51.7896C22.9415 51.7388 22.9669 51.6828 23.0177 51.664C23.0685 51.6451 23.1244 51.6705 23.1433 51.7212C24.8989 56.4213 26.9148 59.6101 26.935 59.642C26.9637 59.6876 26.9507 59.7481 26.9051 59.7768C26.8888 59.7872 26.8706 59.7918 26.853 59.7918Z" fill="#231F20"/>
<path d="M26.8536 59.7918C26.8386 59.7918 26.8229 59.7885 26.808 59.7807C24.0412 58.3319 21.5407 56.3914 19.3762 54.0146C17.6455 52.1132 16.1243 49.9306 14.8552 47.5252C13.7261 45.3861 13.0098 43.4632 12.6074 42.2273C12.1711 40.8866 11.9992 40.0394 11.9979 40.0309C11.9914 39.9971 12.0025 39.9619 12.0285 39.9391C12.0546 39.9163 12.0904 39.9085 12.1229 39.9183L15.2088 40.8826L13.2944 38.0169C13.2644 37.9719 13.2762 37.9114 13.3211 37.8814C13.366 37.8515 13.4266 37.8632 13.4565 37.9081L15.524 41.0038C15.5468 41.0383 15.5455 41.0832 15.5207 41.1164C15.496 41.1496 15.453 41.1633 15.4133 41.1509L12.2239 40.1546C12.3893 40.8722 13.1492 43.8773 15.0291 47.4392C16.2904 49.8283 17.8024 51.9973 19.5221 53.8851C21.6703 56.2442 24.1519 58.1691 26.8972 59.6068C26.9447 59.6316 26.9636 59.6908 26.9382 59.739C26.9206 59.7722 26.8867 59.7911 26.8516 59.7911L26.8536 59.7918Z" fill="#231F20"/>
<path d="M20.9202 44.1502C20.874 44.1502 20.8323 44.117 20.8239 44.0694C20.3908 41.6061 20.2254 39.2124 20.3322 36.9542C20.3348 36.9001 20.3791 36.8585 20.4345 36.8611C20.4885 36.8637 20.5302 36.9093 20.5276 36.9633C20.4214 39.2072 20.5855 41.5865 21.0166 44.0356C21.0257 44.089 20.9906 44.1391 20.9372 44.1489C20.9313 44.1502 20.9261 44.1502 20.9202 44.1502Z" fill="#231F20"/>
<path d="M23.0526 51.8527C23.0129 51.8527 22.9758 51.8286 22.9608 51.7895C21.9834 49.1732 21.2645 46.5757 20.8237 44.0694C20.8146 44.016 20.8497 43.9658 20.9031 43.9561C20.9572 43.9463 21.0067 43.9821 21.0164 44.0355C21.4553 46.5301 22.171 49.1159 23.1438 51.7212C23.1627 51.772 23.1373 51.828 23.0865 51.8469C23.0754 51.8508 23.0637 51.8527 23.052 51.8527H23.0526Z" fill="#231F20"/>
<path d="M26.8535 59.7917C26.8183 59.7917 26.7845 59.7728 26.7669 59.7396C26.7422 59.6921 26.7604 59.6328 26.8079 59.6074C29.5532 58.1696 32.029 56.2461 34.1667 53.8908C35.878 52.0051 37.3776 49.84 38.6239 47.4554C39.7335 45.3326 40.4328 43.4254 40.8242 42.1992C41.1407 41.2082 41.3119 40.4899 41.3797 40.1858L38.189 41.1828C38.1499 41.1951 38.1062 41.1815 38.0815 41.1482C38.0567 41.115 38.0555 41.0701 38.0782 41.0356L40.0624 38.065L37.3776 37.6782C37.3242 37.6704 37.2871 37.6209 37.2949 37.5675C37.3027 37.5141 37.3522 37.477 37.4056 37.4848L40.2434 37.8937C40.2766 37.8983 40.3052 37.9198 40.3189 37.9504C40.3326 37.981 40.3293 38.0168 40.3111 38.0442L38.3947 40.9138L41.4806 39.9495C41.5131 39.939 41.549 39.9469 41.575 39.9697C41.6004 39.9924 41.6121 40.0269 41.6056 40.0608C41.5991 40.094 40.9356 43.4527 38.7997 47.5394C37.5456 49.9396 36.0362 52.1197 34.3139 54.0185C32.1598 56.3926 29.6646 58.3311 26.8978 59.78C26.8834 59.7878 26.8678 59.7911 26.8522 59.7911L26.8535 59.7917Z" fill="#231F20"/>
<path d="M26.8534 59.7917C26.8338 59.7917 26.8136 59.7859 26.7967 59.7735C26.7531 59.7422 26.7427 59.681 26.7739 59.6374C26.785 59.6218 27.9063 58.0453 29.1865 55.3215C30.3677 52.808 31.9298 48.7766 32.663 43.8408C32.6708 43.7874 32.721 43.7503 32.7737 43.7588C32.8271 43.7666 32.8636 43.8161 32.8558 43.8695C32.1187 48.8313 30.5481 52.8835 29.3603 55.41C28.073 58.1488 26.9432 59.7357 26.9322 59.752C26.9133 59.7787 26.8833 59.793 26.8527 59.793L26.8534 59.7917Z" fill="#231F20"/>
<path d="M32.7595 43.9521C32.755 43.9521 32.7498 43.9521 32.7452 43.9508C32.6918 43.943 32.6553 43.8935 32.6632 43.8401C33.0024 41.5584 33.1411 39.2514 33.0754 36.9827C33.0741 36.9287 33.1164 36.8837 33.1704 36.8824C33.1711 36.8824 33.1724 36.8824 33.173 36.8824C33.2258 36.8824 33.2687 36.9241 33.2707 36.9775C33.3365 39.2573 33.1971 41.576 32.8565 43.8694C32.8494 43.9176 32.8077 43.9528 32.7602 43.9528L32.7595 43.9521Z" fill="#231F20"/>
<path d="M25.7823 41.5884C25.7719 41.5884 25.7614 41.5865 25.751 41.5832C25.6234 41.5403 25.5068 41.468 25.4131 41.3755L24.5444 40.514C24.506 40.4763 24.506 40.4144 24.5444 40.376C24.5822 40.3376 24.644 40.3376 24.6825 40.376L25.5511 41.2375C25.6234 41.3097 25.7146 41.3651 25.8142 41.399C25.8656 41.4165 25.893 41.4719 25.8754 41.5227C25.8617 41.5637 25.824 41.5891 25.783 41.5891L25.7823 41.5884Z" fill="#231F20"/>
<path d="M27.8751 41.5884C27.834 41.5884 27.7963 41.563 27.7826 41.522C27.765 41.4712 27.793 41.4152 27.8438 41.3983C27.9434 41.3644 28.034 41.309 28.1069 41.2368L28.8974 40.4528C28.9358 40.415 28.9977 40.415 29.0354 40.4528C29.0732 40.4912 29.0732 40.5531 29.0354 40.5908L28.2449 41.3748C28.1512 41.4679 28.0346 41.5396 27.907 41.5825C27.8965 41.5858 27.8861 41.5877 27.8757 41.5877L27.8751 41.5884Z" fill="#231F20"/>
<path d="M27.6251 41.6301H26.0324C25.9379 41.6301 25.8435 41.6145 25.751 41.5833C25.7002 41.5663 25.6723 41.5103 25.6898 41.4595C25.7068 41.4087 25.7628 41.3807 25.8135 41.3983C25.8858 41.4224 25.9594 41.4348 26.0324 41.4348H27.6251C27.698 41.4348 27.7716 41.4224 27.8439 41.3983C27.8953 41.3807 27.9507 41.4087 27.9676 41.4595C27.9852 41.5103 27.9572 41.5663 27.9064 41.5833C27.8139 41.6145 27.7195 41.6301 27.6251 41.6301Z" fill="#231F20"/>
<path d="M30.0055 48.2277H30.0048C29.9508 48.2277 29.9078 48.1834 29.9078 48.1294C29.9377 44.5284 28.1549 42.0169 27.7974 41.55C27.7648 41.507 27.7726 41.4458 27.8156 41.4133C27.8586 41.3801 27.9198 41.3885 27.9524 41.4315C28.317 41.9075 30.1337 44.4666 30.1031 48.1313C30.1031 48.1847 30.0589 48.2283 30.0055 48.2283V48.2277Z" fill="#231F20"/>
<path d="M30.0059 48.143H29.9082V48.1287C29.9089 48.0753 29.9525 48.0323 30.0059 48.0323H30.0072C30.0612 48.033 30.1042 48.0773 30.1036 48.1313V48.1378L30.0059 48.1424V48.143Z" fill="#231F20"/>
<path d="M23.6522 48.27C23.5988 48.27 23.5552 48.2271 23.5545 48.1737C23.5096 44.4861 25.3381 41.9101 25.7053 41.4309C25.7379 41.3879 25.7991 41.3801 25.8421 41.4126C25.885 41.4452 25.8929 41.5071 25.8603 41.5494C25.5002 42.0195 23.7062 44.548 23.7499 48.171C23.7499 48.2251 23.7075 48.2694 23.6535 48.27H23.6522Z" fill="#231F20"/>
<path d="M30.0058 48.2277C29.9804 48.2277 29.955 48.2179 29.9361 48.1984C29.8984 48.16 29.899 48.0981 29.9374 48.0603C31.8811 46.1531 32.5519 44.1983 32.6665 43.8258C32.6821 43.7744 32.7374 43.7457 32.7889 43.7613C32.8403 43.777 32.8696 43.8317 32.8534 43.8838C32.7361 44.2641 32.0518 46.2599 30.0742 48.2003C30.0553 48.2192 30.0305 48.2283 30.0058 48.2283V48.2277Z" fill="#231F20"/>
<path d="M23.0525 51.8528C23.0076 51.8528 22.9679 51.8222 22.9575 51.7766C22.9457 51.7239 22.9783 51.6718 23.031 51.6601C24.3789 51.354 25.6344 50.9067 26.7622 50.3297C26.8104 50.305 26.869 50.3239 26.8938 50.372C26.9185 50.4202 26.8989 50.4788 26.8514 50.5036C25.7086 51.0877 24.4376 51.5415 23.074 51.8508C23.0669 51.8528 23.0597 51.8534 23.0525 51.8534V51.8528Z" fill="#231F20"/>
<path d="M26.806 50.5139C26.7708 50.5139 26.7363 50.4944 26.7188 50.4605C26.694 50.4123 26.7135 50.3537 26.7611 50.329C27.9566 49.7175 29.0245 48.9544 29.9362 48.0597C29.9746 48.0219 30.0364 48.0225 30.0742 48.061C30.112 48.0994 30.1113 48.1613 30.0729 48.199C29.1476 49.1074 28.0628 49.8823 26.8496 50.5028C26.8353 50.51 26.8204 50.5133 26.8054 50.5133L26.806 50.5139Z" fill="#231F20"/>
<path d="M26.8068 50.5139C26.7919 50.5139 26.7769 50.5107 26.7626 50.5035C25.5697 49.8934 24.5004 49.1328 23.5843 48.2427C23.5458 48.2049 23.5445 48.143 23.5823 48.1046C23.6201 48.0662 23.6819 48.0649 23.7203 48.1027C24.6229 48.9792 25.6764 49.7286 26.8511 50.3296C26.8993 50.3544 26.9182 50.413 26.8935 50.4612C26.8759 50.495 26.842 50.5146 26.8062 50.5146L26.8068 50.5139Z" fill="#231F20"/>
<path d="M23.6518 48.27C23.627 48.27 23.6029 48.2609 23.584 48.2427C21.8109 46.5197 21.066 44.7609 20.8277 44.085C20.8101 44.0342 20.8368 43.9782 20.8876 43.9606C20.9384 43.943 20.9944 43.9697 21.0119 44.0205C21.2451 44.684 21.9763 46.409 23.7195 48.1033C23.7579 48.1411 23.7592 48.2029 23.7214 48.2414C23.7025 48.2609 23.6765 48.2713 23.6511 48.2713L23.6518 48.27Z" fill="#231F20"/>
<path d="M25.7032 53.8629C25.308 53.8629 24.9863 53.5412 24.9863 53.146C24.9863 52.7507 25.308 52.4291 25.7032 52.4291C26.0985 52.4291 26.4202 52.7507 26.4202 53.146C26.4202 53.5412 26.0985 53.8629 25.7032 53.8629ZM25.7032 52.6244C25.4154 52.6244 25.1817 52.8582 25.1817 53.146C25.1817 53.4338 25.4154 53.6676 25.7032 53.6676C25.9911 53.6676 26.2248 53.4338 26.2248 53.146C26.2248 52.8582 25.9911 52.6244 25.7032 52.6244Z" fill="#231F20"/>
<path d="M19.3099 23.4243C19.2799 23.4243 19.25 23.4106 19.2304 23.3839C19.0553 23.1417 18.8775 22.9007 18.6997 22.6605C17.2366 20.6777 15.7233 18.6278 15.7474 15.9424C15.7675 13.6516 17.3362 12.111 20.4097 11.3621C20.4045 11.1349 20.4182 10.4772 20.7014 9.71208C21.0192 8.85385 21.7517 7.69934 23.4343 7.07683C25.7928 6.20427 27.6395 6.6731 28.7732 7.22008C29.8613 7.74492 30.504 8.42343 30.6564 8.59534C30.9019 8.5732 31.9613 8.50158 33.1959 8.78223C35.0101 9.19442 36.3248 10.1848 37.002 11.6473C37.3328 11.6695 38.8858 11.8271 39.7323 12.8377C40.1809 13.3729 40.3509 14.056 40.2376 14.8693C40.123 15.6924 39.744 16.4594 39.1417 17.0878C38.5452 17.7097 37.7521 18.6258 37.3594 19.4619C37.3367 19.5108 37.278 19.5316 37.2292 19.5088C37.1804 19.486 37.1596 19.4274 37.1823 19.3786C37.5861 18.5191 38.3935 17.5846 38.9997 16.9524C39.5734 16.354 39.9341 15.6246 40.0429 14.8426C40.1477 14.0866 39.9927 13.455 39.5819 12.964C38.7073 11.9195 36.9505 11.8407 36.9329 11.8394C36.8958 11.8381 36.8626 11.8153 36.8476 11.7821C36.1952 10.3294 34.9534 9.38456 33.1568 8.97497C31.8083 8.66763 30.6368 8.7946 30.6258 8.7959C30.5925 8.79981 30.5607 8.78679 30.5398 8.76139C30.5333 8.75358 29.873 7.96762 28.6801 7.39395C27.5822 6.86586 25.7922 6.41395 23.5014 7.26176C22.2088 7.73971 21.3291 8.58558 20.8863 9.77395C20.5549 10.6641 20.6063 11.4246 20.607 11.4325C20.6102 11.48 20.579 11.5236 20.5321 11.5347C17.5055 12.2529 15.9609 13.7369 15.9414 15.9457C15.918 18.5659 17.3453 20.4992 18.856 22.5465C19.0338 22.7874 19.2115 23.0284 19.3873 23.2712C19.4193 23.3149 19.4095 23.3761 19.3659 23.4073C19.3483 23.4197 19.3287 23.4262 19.3086 23.4262L19.3099 23.4243Z" fill="#231F20"/>
<path d="M21.6151 28.5951C21.5708 28.5951 21.5311 28.5652 21.52 28.5203C21.1957 27.175 20.7315 25.9332 20.1395 24.8295C20.1141 24.7819 20.1317 24.7227 20.1793 24.6973C20.2268 24.6719 20.286 24.6895 20.3114 24.737C20.9112 25.855 21.382 27.1124 21.7095 28.474C21.7219 28.5268 21.69 28.5795 21.6372 28.5919C21.6294 28.5938 21.6216 28.5945 21.6144 28.5945L21.6151 28.5951Z" fill="#231F20"/>
<path d="M19.3099 23.4243C19.2656 23.4243 19.2259 23.3943 19.2149 23.3494C19.1602 23.1241 19.1328 22.8916 19.1328 22.6578C19.1328 21.1439 20.2828 19.9125 21.6958 19.9125H21.7101C22.3587 19.9165 22.9577 20.2837 23.2723 20.8724C23.4865 21.2741 23.6825 21.6518 23.857 21.9982C24.0654 21.1491 24.8702 18.5998 27.1121 18.0698L26.194 15.5211C26.1797 15.4807 26.1927 15.4358 26.2272 15.4097C26.2617 15.3844 26.3086 15.3837 26.3438 15.4097C26.3496 15.4137 26.9474 15.8389 28.2458 16.0485C29.4466 16.2426 31.5088 16.2862 34.512 15.3948C34.512 15.3948 34.5497 15.3824 34.6136 15.3674C35.4907 15.1617 36.3847 15.652 36.6927 16.5076C36.8718 17.0058 37.0209 17.5391 37.1361 18.0925C37.2227 18.5086 37.3009 18.9501 37.3699 19.404C37.3777 19.4574 37.3413 19.5069 37.2879 19.5153C37.2338 19.5231 37.185 19.4867 37.1765 19.4333C37.1088 18.9827 37.0307 18.5451 36.9447 18.1323C36.8314 17.5872 36.6849 17.0631 36.5091 16.5734C36.2343 15.8109 35.4392 15.3739 34.6578 15.5569C34.6025 15.5699 34.5706 15.5804 34.5706 15.5804C32.8841 16.0811 30.4123 16.6007 28.1964 16.238C27.3225 16.0948 26.7612 15.8597 26.4701 15.7093L27.3342 18.1082C27.344 18.1349 27.3414 18.1642 27.3277 18.1889C27.314 18.2137 27.2899 18.2312 27.2619 18.2365C24.615 18.7724 23.9963 22.2704 23.9905 22.3056C23.9833 22.3472 23.9501 22.3798 23.9084 22.3863C23.8668 22.3922 23.8251 22.3707 23.8069 22.3329C23.6043 21.9227 23.3673 21.4617 23.101 20.9635C22.8204 20.438 22.287 20.1098 21.7095 20.1066H21.6971C20.3915 20.1066 19.3295 21.2507 19.3295 22.6565C19.3295 22.8747 19.3555 23.0922 19.4063 23.3019C19.4193 23.3546 19.3868 23.4073 19.3347 23.4197C19.3268 23.4217 19.319 23.4223 19.3119 23.4223L19.3099 23.4243Z" fill="#231F20"/>
<path d="M32.0401 25.3771C30.967 25.3771 30.1023 24.5684 29.7858 24.2278C29.7493 24.1881 29.7513 24.1262 29.791 24.0897C29.8307 24.0533 29.8926 24.0552 29.929 24.095C31.6019 25.8974 33.0071 25.0177 33.5339 24.556C33.5743 24.5202 33.6361 24.5247 33.6719 24.5651C33.7077 24.6055 33.7032 24.6673 33.6628 24.7032C33.0996 25.1974 32.5467 25.3771 32.0401 25.3771Z" fill="#231F20"/>
<path d="M29.8576 24.2591C29.8205 24.2591 29.7846 24.2376 29.7684 24.2011C29.7462 24.1517 29.7683 24.0944 29.8178 24.0722C29.963 24.0078 30.0861 23.9107 30.1838 23.7838C30.217 23.7408 30.2782 23.733 30.3205 23.7662C30.3635 23.7987 30.3713 23.8606 30.3381 23.9029C30.2203 24.0559 30.0718 24.1725 29.8973 24.2506C29.8843 24.2565 29.8706 24.2591 29.8576 24.2591Z" fill="#231F20"/>
<path d="M29.3728 24.36C29.3012 24.36 29.2563 24.3541 29.2517 24.3535C29.1983 24.3456 29.1612 24.2962 29.169 24.2428C29.1768 24.1894 29.2263 24.1522 29.2791 24.1601C29.2791 24.1601 29.5447 24.1946 29.8182 24.0728C29.867 24.0507 29.925 24.0728 29.9471 24.1223C29.9693 24.1718 29.9471 24.2291 29.8977 24.2512C29.6919 24.343 29.4939 24.3606 29.3728 24.3606V24.36Z" fill="#231F20"/>
</g>
<defs>
<clipPath id="clip0_328_928">
<rect width="56" height="56" fill="white"/>
</clipPath>
</defs>
</svg>
