<svg width="16" height="16" viewBox="0 0 16 16" fill="none" xmlns="http://www.w3.org/2000/svg">
<path d="M5.22793 14.4663C5.3334 14.2832 5.55829 14.2088 5.75735 14.2796C6.09324 14.3991 6.4416 14.492 6.7999 14.5567C7.00838 14.5943 7.16648 14.7716 7.16648 14.9834C7.16648 15.2337 6.94873 15.4293 6.70222 15.3863C6.26326 15.3097 5.83754 15.1948 5.42837 15.0454C5.19407 14.9598 5.10342 14.6824 5.22793 14.4663ZM10.7702 14.4659C10.8951 14.6822 10.8045 14.96 10.5699 15.0456C10.1612 15.1949 9.73609 15.3097 9.29772 15.3863C9.05122 15.4293 8.83347 15.2336 8.83347 14.9834C8.83347 14.7716 8.99156 14.5943 9.20002 14.5566C9.55775 14.4919 9.90551 14.3989 10.2409 14.2795C10.4399 14.2087 10.6646 14.283 10.7702 14.4659ZM2.36845 12.2136C2.55163 12.1078 2.78377 12.1558 2.92084 12.3169C3.15371 12.5906 3.4083 12.8451 3.68197 13.078C3.84302 13.215 3.89096 13.4471 3.78525 13.6303C3.65997 13.8473 3.37298 13.9077 3.18102 13.7466C2.84502 13.4646 2.53409 13.1537 2.2521 12.8177C2.09101 12.6258 2.15142 12.3388 2.36845 12.2136ZM13.6305 12.2136C13.8475 12.3388 13.9079 12.6258 13.7468 12.8177C13.4644 13.154 13.153 13.4651 12.8164 13.7472C12.6247 13.908 12.3381 13.8478 12.2129 13.6311C12.1071 13.4481 12.155 13.216 12.3161 13.079C12.5901 12.8459 12.845 12.591 13.0782 12.3169C13.2152 12.1558 13.4473 12.1078 13.6305 12.2136ZM14.9836 8.83328C15.2338 8.83328 15.4295 9.05103 15.3864 9.29751C15.3096 9.73636 15.1945 10.1619 15.0449 10.571C14.9592 10.8054 14.6815 10.8959 14.4655 10.7709C14.2829 10.6654 14.2088 10.4409 14.2795 10.2422C14.3991 9.90638 14.4921 9.55809 14.5568 9.19985C14.5945 8.99138 14.7718 8.83328 14.9836 8.83328ZM1.01633 8.83328C1.22818 8.83328 1.40543 8.99137 1.44302 9.19986C1.5076 9.55807 1.60021 9.90638 1.71955 10.2422C1.79017 10.4409 1.71608 10.6654 1.53351 10.7709C1.31745 10.8958 1.03981 10.8053 0.954198 10.5709C0.804827 10.1619 0.690042 9.73632 0.613443 9.29753C0.570412 9.05102 0.766099 8.83328 1.01633 8.83328ZM1.53287 5.22851C1.71578 5.33413 1.79005 5.55893 1.71934 5.75795C1.6001 6.09358 1.50757 6.44171 1.44303 6.79971C1.40544 7.0082 1.22819 7.16629 1.01634 7.16629C0.766107 7.16629 0.570418 6.94853 0.613359 6.70201C0.689766 6.26335 0.804148 5.83783 0.953256 5.42891C1.03881 5.19428 1.31659 5.10364 1.53287 5.22851ZM14.4661 5.22851C14.6824 5.10363 14.9602 5.19426 15.0458 5.42885C15.1952 5.83781 15.3099 6.26331 15.3865 6.70202C15.4295 6.94853 15.2338 7.16629 14.9836 7.16629C14.7718 7.16629 14.5945 7.00819 14.5568 6.79973C14.4921 6.44169 14.3992 6.09359 14.2797 5.75793C14.2089 5.55893 14.2832 5.33412 14.4661 5.22851ZM3.78523 2.36829C3.89095 2.55146 3.84299 2.78358 3.68191 2.92062C3.40787 3.15379 3.15292 3.40869 2.91976 3.68274C2.78278 3.84375 2.55071 3.89165 2.36768 3.78587C2.15103 3.66065 2.09078 3.3741 2.25157 3.18235C2.53373 2.84585 2.8448 2.53439 3.18109 2.252C3.37299 2.09085 3.65996 2.15125 3.78523 2.36829ZM12.2129 2.36745C12.3381 2.1508 12.6247 2.09055 12.8164 2.25137C13.1532 2.53393 13.4648 2.84555 13.7473 3.18237C13.9082 3.3741 13.8479 3.66066 13.6313 3.78588C13.4482 3.89166 13.2162 3.84377 13.0792 3.68276C12.8458 3.4083 12.5906 3.15301 12.3161 2.91957C12.1551 2.78259 12.1071 2.55049 12.2129 2.36745ZM7.16648 1.01559C7.16648 1.2272 7.00856 1.40424 6.80032 1.44184C6.44163 1.50659 6.09283 1.59958 5.75659 1.71924C5.55789 1.78996 5.33339 1.71587 5.22783 1.53327C5.10292 1.31723 5.1934 1.03961 5.42781 0.954016C5.83731 0.804498 6.26343 0.689706 6.70276 0.613119C6.94899 0.570195 7.16648 0.765652 7.16648 1.01559ZM8.83347 1.0156C8.83347 0.765658 9.05096 0.5702 9.29719 0.613114C9.73569 0.689535 10.161 0.803983 10.5698 0.953059C10.8045 1.03863 10.8951 1.31643 10.7702 1.53273C10.6646 1.71562 10.4399 1.7899 10.2409 1.71908C9.90541 1.59966 9.55746 1.50666 9.1996 1.44191C8.99138 1.40424 8.83347 1.2272 8.83347 1.0156Z" fill="#9273E0"/>
</svg>
