<svg width="56" height="56" viewBox="0 0 56 56" fill="none" xmlns="http://www.w3.org/2000/svg">
<g clip-path="url(#clip0_328_1476)">
<rect width="56" height="56" fill="#DEDAF9"/>
<path d="M23.6467 24.991C23.6467 25.3778 23.3329 25.6917 22.9461 25.6917C22.8947 25.6917 22.8439 25.6852 22.795 25.6747C22.5886 25.6292 22.4174 25.4931 22.3229 25.3094C22.2741 25.2137 22.2461 25.1056 22.2461 24.991C22.2461 24.6042 22.56 24.291 22.9461 24.291C23.3322 24.291 23.6467 24.6042 23.6467 24.991Z" fill="#FFAC00"/>
<path d="M32.8926 39.1272L32.8106 40.0388L32.5703 39.8252C32.7018 39.5941 32.8073 39.3584 32.8926 39.1272Z" fill="#DD920B"/>
<path d="M38.6945 14.0541C38.6945 13.6093 38.4568 13.2753 38.2641 13.0767C38.1319 12.9412 38.0206 12.8689 38.0206 12.8689C38.0206 12.8689 38.1475 12.266 38.1475 11.4045C38.1475 10.1835 37.8923 8.44429 36.6564 7.16997C36.5958 7.10745 36.5326 7.04624 36.4669 6.98569C34.9731 5.61304 33.3205 5.04978 32.0468 5.73155H32.0461C31.5233 6.01155 31.0642 6.50122 30.706 7.23117H30.7054C30.6989 7.22141 30.6227 7.11722 30.4925 6.98178C30.4866 6.97592 30.4801 6.96941 30.4736 6.9629C30.4671 6.95573 30.4606 6.94922 30.454 6.94271C29.9689 6.45694 28.858 5.6762 27.7888 7.28001H27.7882C27.7882 7.28001 27.7869 7.27806 27.7862 7.27676C27.7849 7.2761 27.7843 7.2748 27.7823 7.27285C27.781 7.27155 27.7797 7.26959 27.7778 7.26764C27.7758 7.26569 27.7739 7.26373 27.7713 7.26113C27.7693 7.25852 27.7667 7.25592 27.7641 7.25331C27.6033 7.08662 26.6584 6.19648 24.8228 6.1522C22.2982 6.09099 21.1913 7.41936 21.1913 8.84671C21.1913 9.65285 21.5442 10.4902 22.1934 11.1271C22.2149 11.1479 22.237 11.1694 22.2592 11.1896C22.2806 11.2104 22.3028 11.2306 22.3256 11.2508C22.2585 11.2358 20.1038 10.7468 19.1355 11.7887C18.8425 12.1038 18.5195 12.8084 18.5195 13.5208C18.5195 13.9714 18.6485 14.4252 18.9962 14.7853C19.2052 15.0015 19.4924 15.1838 19.8772 15.3121C19.4735 15.4475 19.1655 15.721 19.1655 16.2394C19.1655 16.3123 19.1713 16.3898 19.1844 16.4725C19.226 16.744 19.3283 16.9433 19.4702 17.0859C20.2191 17.838 22.0768 17.024 22.0768 17.024C22.1647 18.3693 22.2631 19.9562 22.2722 20.1118C22.433 20.0767 22.5997 20.0578 22.7697 20.0578C23.318 20.0578 23.8246 20.3189 24.2335 20.6555C24.4666 20.7122 24.6958 20.7845 24.9224 20.8835C25.026 20.9284 25.1308 20.9792 25.2083 21.0619C25.2434 21.099 25.3131 21.155 25.3131 21.0755V21.0664L25.2389 19.7172C25.2363 19.6703 25.235 19.6235 25.235 19.5766C25.235 19.0915 25.373 18.6142 25.6335 18.2026L25.8607 17.8445C25.9604 17.6875 26.0105 17.5085 26.0105 17.3294C26.0105 17.1653 25.9682 17.0006 25.8835 16.8528L25.5931 16.3435C25.5059 16.1912 25.4655 16.0271 25.4655 15.8669C25.4655 15.4534 25.7338 15.0608 26.1687 14.939C28.6731 14.2396 34.518 12.9523 37.0998 15.2958L38.0368 17.8178L38.0388 17.8223C38.0388 17.8223 38.3468 16.9771 38.3468 16.0512C38.3468 15.7549 38.3149 15.4495 38.2315 15.161C38.574 14.7423 38.6945 14.3705 38.6945 14.0541ZM38.6945 14.0541C38.6945 13.6093 38.4568 13.2753 38.2641 13.0767C38.1319 12.9412 38.0206 12.8689 38.0206 12.8689C38.0206 12.8689 38.1475 12.266 38.1475 11.4045C38.1475 10.1835 37.8923 8.44429 36.6564 7.16997C36.5958 7.10745 36.5326 7.04624 36.4669 6.98569C34.9731 5.61304 33.3205 5.04978 32.0468 5.73155H32.0461C31.5233 6.01155 31.0642 6.50122 30.706 7.23117H30.7054C30.6989 7.22141 30.6227 7.11722 30.4925 6.98178C30.4866 6.97592 30.4801 6.96941 30.4736 6.9629C30.4671 6.95573 30.4606 6.94922 30.454 6.94271C29.9689 6.45694 28.858 5.6762 27.7888 7.28001H27.7882C27.7882 7.28001 27.7869 7.27806 27.7862 7.27676C27.7849 7.2761 27.7843 7.2748 27.7823 7.27285C27.781 7.27155 27.7797 7.26959 27.7778 7.26764C27.7758 7.26569 27.7739 7.26373 27.7713 7.26113C27.7693 7.25852 27.7667 7.25592 27.7641 7.25331C27.6033 7.08662 26.6584 6.19648 24.8228 6.1522C22.2982 6.09099 21.1913 7.41936 21.1913 8.84671C21.1913 9.65285 21.5442 10.4902 22.1934 11.1271C22.2149 11.1479 22.237 11.1694 22.2592 11.1896C22.2806 11.2104 22.3028 11.2306 22.3256 11.2508C22.2585 11.2358 20.1038 10.7468 19.1355 11.7887C18.8425 12.1038 18.5195 12.8084 18.5195 13.5208C18.5195 13.9714 18.6485 14.4252 18.9962 14.7853C19.2052 15.0015 19.4924 15.1838 19.8772 15.3121C19.4735 15.4475 19.1655 15.721 19.1655 16.2394C19.1655 16.3123 19.1713 16.3898 19.1844 16.4725C19.226 16.744 19.3283 16.9433 19.4702 17.0859C20.2191 17.838 22.0768 17.024 22.0768 17.024C22.1647 18.3693 22.2631 19.9562 22.2722 20.1118C22.433 20.0767 22.5997 20.0578 22.7697 20.0578C23.318 20.0578 23.8246 20.3189 24.2335 20.6555C24.4666 20.7122 24.6958 20.7845 24.9224 20.8835C25.026 20.9284 25.1308 20.9792 25.2083 21.0619C25.2434 21.099 25.3131 21.155 25.3131 21.0755V21.0664L25.2389 19.7172C25.2363 19.6703 25.235 19.6235 25.235 19.5766C25.235 19.0915 25.373 18.6142 25.6335 18.2026L25.8607 17.8445C25.9604 17.6875 26.0105 17.5085 26.0105 17.3294C26.0105 17.1653 25.9682 17.0006 25.8835 16.8528L25.5931 16.3435C25.5059 16.1912 25.4655 16.0271 25.4655 15.8669C25.4655 15.4534 25.7338 15.0608 26.1687 14.939C28.6731 14.2396 34.518 12.9523 37.0998 15.2958L38.0368 17.8178L38.0388 17.8223C38.0388 17.8223 38.3468 16.9771 38.3468 16.0512C38.3468 15.7549 38.3149 15.4495 38.2315 15.161C38.574 14.7423 38.6945 14.3705 38.6945 14.0541Z" fill="#541B0A"/>
<path d="M26.4784 49.6146C26.3143 50.1381 26.1417 50.678 25.7823 51.0928C25.6762 51.2158 25.5557 51.3226 25.4274 51.4209L25.3949 49.1686L25.3682 47.2854C25.4046 47.2919 25.4411 47.2978 25.4776 47.3043C25.5785 47.3238 25.6807 47.344 25.781 47.3707C25.9777 47.4228 26.1665 47.4977 26.3195 47.6292C26.8541 48.0896 26.6894 48.9413 26.4784 49.6146Z" fill="#009F62"/>
<path d="M30.2293 51.0251L30.1492 56.6063C29.9187 56.3302 29.7038 56.0378 29.4381 55.7969C28.9895 55.3899 28.4047 55.1353 28.0231 54.6651C27.3492 53.8369 27.5497 52.5098 28.3084 51.7584C28.9354 51.1378 29.5586 51.0264 30.2293 51.0251Z" fill="#009F62"/>
<path d="M10.9481 64.3493H-2.25293L-2.24707 53.3407L4.57321 43.3298L6.13795 41.0325L6.71619 41.92L8.99461 45.4187C9.87302 46.7204 10.3679 48.2421 10.4246 49.8114L10.9481 64.3493Z" fill="#FF6060"/>
<path d="M25.4271 51.4211L25.3678 47.2855L25.3457 45.739C25.3333 45.4883 25.1477 45.2806 24.9003 45.2402L24.6516 45.1992L23.2301 44.9667L22.3992 44.8306C22.1276 44.7864 21.8646 44.7128 21.6152 44.6119C20.4763 44.1567 19.6155 43.1585 19.3537 41.9239L19.0646 39.8252L18.7312 37.4087L9.50095 38.7149C8.22402 38.9174 7.08774 39.6376 6.35974 40.7062L6.1377 41.0324L6.71593 41.9199L8.99435 45.4186C9.87277 46.7203 10.3676 48.2421 10.4243 49.8114L10.9478 64.3492H25.612L25.4271 51.4211ZM19.1232 47.281C19.0092 48.9369 17.5741 50.1865 15.9188 50.0725C14.2629 49.9585 13.0133 48.524 13.1273 46.8681C13.2412 45.2122 14.6757 43.9626 16.3316 44.0766C17.9876 44.1906 19.2371 45.6257 19.1232 47.281Z" fill="#735FFF"/>
<path d="M35.3593 36.5707L34.8208 42.5568C34.7635 43.1936 34.5525 43.807 34.2074 44.3449L34.0355 44.6119C33.7854 44.7128 33.523 44.7864 33.2515 44.8307L32.4199 44.9668L33.103 43.9054C33.4488 43.3682 33.6597 42.7548 33.717 42.1186L34.2679 35.9905L35.3593 36.5707Z" fill="white"/>
<path d="M32.8103 40.0388L32.7647 40.5408L32.3506 40.1716C32.4307 40.0577 32.5043 39.9418 32.57 39.8252L32.8103 40.0388Z" fill="#FFAC00"/>
<path d="M32.7648 40.5408L32.6281 42.062C32.5864 42.5262 32.4327 42.9742 32.1801 43.3656L32.1423 43.4235C31.7347 43.6397 31.2776 43.8253 30.7631 43.9699L30.1172 41.7598C31.1838 41.4219 31.8877 40.8293 32.3507 40.1716L32.7648 40.5408Z" fill="#DD920B"/>
<path d="M32.1419 43.4234L30.9991 45.1992L30.7504 45.2402C30.5029 45.2806 30.3174 45.4883 30.305 45.739L30.2295 51.0251C29.5588 51.0264 28.9356 51.1378 28.3085 51.7583C27.5499 52.5098 27.3494 53.8368 28.0233 54.6651C28.4049 55.1353 28.9896 55.3899 29.4383 55.7968C29.704 56.0378 29.9189 56.3301 30.1494 56.6062L30.0387 64.3492H25.6121L25.4271 51.421C25.5554 51.3227 25.6759 51.2159 25.782 51.0928C26.1415 50.678 26.314 50.1382 26.4781 49.6147C26.6891 48.9414 26.8538 48.0897 26.3192 47.6293C26.1662 47.4978 25.9774 47.4229 25.7807 47.3708C25.6804 47.3441 25.5782 47.3239 25.4773 47.3044C25.4408 47.2979 25.4043 47.292 25.3679 47.2855L25.3457 45.739C25.3334 45.4883 25.1478 45.2806 24.9003 45.2402L24.6516 45.1992L23.471 43.3655C23.458 43.346 23.4469 43.3251 23.4346 43.3049C23.8819 43.5543 24.3918 43.7679 24.9739 43.934C25.28 44.0219 25.6062 44.0961 25.9539 44.1553C26.0848 44.1781 26.2196 44.1983 26.357 44.2159C26.859 44.2817 27.4028 44.3168 27.9908 44.3168C28.8874 44.3168 29.676 44.2283 30.3701 44.0694C30.5049 44.0388 30.6351 44.0056 30.7628 43.9698C31.2772 43.8252 31.7343 43.6396 32.1419 43.4234Z" fill="#FFAC00"/>
<path d="M23.7111 40.4308L22.9388 41.1328L22.7246 38.7476C22.92 39.2984 23.2273 39.8962 23.7111 40.4308Z" fill="#DD920B"/>
<path d="M23.9963 40.7185L22.985 41.6379L22.9395 41.1326L23.7117 40.4307C23.8003 40.529 23.8947 40.6254 23.9963 40.7185Z" fill="#FFAC00"/>
<path d="M26.5775 41.9381L25.9537 44.1553C24.9463 43.9841 24.1174 43.6852 23.4343 43.3049C23.2038 42.9279 23.0619 42.5027 23.0228 42.0619L22.9844 41.6379L23.9956 40.7185C24.6006 41.2759 25.4327 41.7317 26.5775 41.9381Z" fill="#DD920B"/>
<g style="mix-blend-mode:multiply" opacity="0.6">
<path d="M25.8163 47.2034L25.7805 47.3708L25.3943 49.1686L25.3676 47.2855L25.3455 45.739C25.3331 45.4883 25.1475 45.2805 24.9001 45.2402L24.6513 45.1991L23.2299 44.9667L22.399 44.8306C22.1274 44.7863 21.8644 44.7127 21.615 44.6118C21.307 44.4887 21.0192 44.3259 20.758 44.1293L19.5137 40.7621L20.6259 40.2933L21.7276 39.829L22.7819 39.3843L23.5066 39.0789C23.5066 39.0789 23.9077 41.791 24.9737 43.9339C25.1006 44.1892 25.2374 44.436 25.3839 44.6697C25.8553 45.4231 26.0032 46.3348 25.8163 47.2034Z" fill="#AF750E"/>
</g>
<path d="M26.981 41.9988L26.3572 44.216C26.2198 44.1984 26.085 44.1782 25.9541 44.1554L26.5779 41.9382C26.7081 41.9617 26.8423 41.9819 26.981 41.9988Z" fill="#FFAC00"/>
<path d="M30.3705 44.0695C29.6764 44.2284 28.8878 44.3169 27.9912 44.3169C27.4032 44.3169 26.8595 44.2818 26.3574 44.216L26.9812 41.9988C27.2957 42.0372 27.6317 42.0574 27.9912 42.0574C28.6489 42.0574 29.2245 41.989 29.7278 41.8679L30.3705 44.0695Z" fill="#DD920B"/>
<path d="M21.6158 44.6118C21.3078 44.4887 21.02 44.3259 20.7588 44.1293C20.0549 43.5992 19.5451 42.8243 19.3543 41.9238L18.7318 37.4086L18.7305 37.3995L20.292 36.5706L20.6267 40.2933L20.8305 42.5567C20.8878 43.1935 21.0987 43.8069 21.4439 44.3448L21.6158 44.6118Z" fill="#735FFF"/>
<path d="M23.2307 44.9668L22.3998 44.8307C22.1283 44.7864 21.8652 44.7128 21.6158 44.6119L21.4439 44.3449C21.0988 43.807 20.8878 43.1936 20.8305 42.5568L20.6267 40.2934L20.292 36.5707L21.3833 35.9905L21.7285 39.8291L21.9342 42.1186C21.9915 42.7548 22.2019 43.3682 22.5483 43.9054L23.2307 44.9668Z" fill="white"/>
<path d="M24.6517 45.1992L23.2302 44.9667L22.5477 43.9053C22.2013 43.3681 21.991 42.7547 21.9337 42.1185L21.7279 39.829L21.3828 35.9904L22.4266 35.4363L22.4338 35.517L22.7249 38.7474L22.7822 39.3843L22.9391 41.1326L22.9847 41.638L23.0231 42.0619C23.0622 42.5027 23.2041 42.9279 23.4346 43.3049C23.447 43.3251 23.4581 43.346 23.4711 43.3655L24.6517 45.1992Z" fill="#735FFF"/>
<path d="M49.5948 41.0375L49.1442 41.7291L46.7414 45.4186C45.863 46.7202 45.3681 48.242 45.3114 49.8113L44.7879 64.3492H30.0391L30.1498 56.6062L30.2299 51.0251L30.3054 45.7389C30.3178 45.4882 30.5033 45.2805 30.7508 45.2401L30.9995 45.1991L32.4204 44.9667L33.2519 44.8306C33.5234 44.7863 33.7859 44.7127 34.0359 44.6118C35.1748 44.1566 36.0356 43.1584 36.2974 41.9238L36.7389 38.7161L36.9192 37.408L46.2152 38.7331C47.4251 38.9245 48.5119 39.5822 49.2432 40.5648L49.5948 41.0375Z" fill="#735FFF"/>
<path d="M61.3673 56.8589V64.3492H44.7881L45.3116 49.8114C45.3683 48.2421 45.8632 46.7203 46.7416 45.4186L49.1444 41.7291L49.595 41.0376L51.3453 43.3896L61.3673 56.8589Z" fill="#FF6060"/>
<path d="M34.2679 35.9904L33.717 42.1185C33.6597 42.7547 33.4487 43.3681 33.1029 43.9053L32.4199 44.9667L30.999 45.1992L32.1418 43.4234L32.1796 43.3655C32.4322 42.9741 32.5859 42.5261 32.6276 42.0619L32.7643 40.5407L32.8099 40.0387L32.892 39.1271L33.2182 35.4968L33.224 35.4363L34.2679 35.9904Z" fill="#735FFF"/>
<path d="M30.7629 43.9698C30.6353 44.0056 30.505 44.0388 30.3702 44.0694L29.7275 41.8679C29.8623 41.8359 29.9926 41.7995 30.1169 41.7598L30.7629 43.9698Z" fill="#FFAC00"/>
<path d="M36.9208 37.3995L36.9195 37.408L36.2976 41.9238C36.0359 43.1584 35.175 44.1566 34.0361 44.6118L34.208 44.3448C34.5532 43.8069 34.7641 43.1935 34.8214 42.5567L35.3599 36.5706L36.9208 37.3995Z" fill="#735FFF"/>
<path d="M16.3317 44.0765C14.6758 43.9626 13.2413 45.2122 13.1273 46.8681C13.0134 48.524 14.263 49.9585 15.9189 50.0725C17.5741 50.1864 19.0093 48.9368 19.1232 47.2809C19.2372 45.6257 17.9876 44.1905 16.3317 44.0765ZM14.0155 47.0543C13.9471 47.0491 13.8951 46.9899 13.9003 46.9215C13.9048 46.8525 13.9641 46.801 14.0331 46.8056C14.1015 46.8101 14.1536 46.8694 14.1484 46.9384C14.1438 47.0068 14.0845 47.0589 14.0155 47.0543ZM16.361 49.0026C16.3467 49.2051 16.1715 49.3581 15.969 49.3445C15.7665 49.3301 15.6135 49.155 15.6278 48.9525C15.6415 48.7499 15.8173 48.5969 16.0191 48.6112C16.2217 48.6249 16.3747 48.8007 16.361 49.0026ZM18.2175 47.3434C18.1491 47.3389 18.097 47.2796 18.1022 47.2106C18.1068 47.1422 18.166 47.0901 18.2351 47.0947C18.3034 47.0999 18.3555 47.1592 18.3503 47.2282C18.3458 47.2965 18.2865 47.3486 18.2175 47.3434Z" fill="#DAD7FF"/>
<path d="M14.1488 46.9385C14.1443 47.0069 14.085 47.059 14.016 47.0544C13.9476 47.0492 13.8955 46.99 13.9007 46.9216C13.9053 46.8526 13.9646 46.8011 14.0336 46.8057C14.102 46.8103 14.1541 46.8695 14.1488 46.9385Z" fill="white"/>
<path d="M16.5459 47.2322C16.5498 47.2413 16.5537 47.2498 16.5576 47.2589H16.557C16.5531 47.2504 16.5492 47.2413 16.5459 47.2322Z" fill="#FFAC00"/>
<path d="M17.8538 46.1296L16.8477 47.0061C16.7735 46.7515 16.642 46.5307 16.4336 46.353L17.3517 45.5533C17.4507 45.4674 17.6005 45.4778 17.6871 45.5768L17.8766 45.7943C17.9632 45.8932 17.9528 46.0436 17.8538 46.1296Z" fill="#FFAC00"/>
<path d="M16.0976 47.5263C15.9595 47.5726 15.8312 47.6442 15.7212 47.7399L14.7379 48.5969C14.6565 48.6678 14.5328 48.6594 14.4612 48.5773C14.3902 48.4959 14.3987 48.3722 14.4807 48.3012L15.4685 47.4404C15.5486 47.3707 15.6176 47.2893 15.6743 47.1995L15.7088 47.2392C15.8058 47.3512 15.925 47.4417 16.0585 47.5062L16.0806 47.5172C16.0865 47.5198 16.0917 47.5237 16.0976 47.5263Z" fill="#FFAC00"/>
<path d="M17.5682 48.7916C17.4862 48.8625 17.3624 48.8541 17.2915 48.7727L16.4306 47.7842C16.3375 47.6774 16.2242 47.5902 16.0979 47.5264C16.092 47.5238 16.0868 47.5198 16.081 47.5172L16.0588 47.5062C15.9253 47.4417 15.8062 47.3512 15.7091 47.2392L15.6746 47.1995L14.5436 45.9017C14.4576 45.8027 14.468 45.6523 14.567 45.5664L14.7845 45.3769C14.8835 45.2903 15.0339 45.3007 15.1198 45.3997L16.1591 46.5926L16.29 46.7424C16.3896 46.857 16.4651 46.9918 16.5101 47.137C16.5231 47.1786 16.5394 47.2197 16.557 47.2594C16.6012 47.3577 16.6592 47.4502 16.7308 47.5316L17.5871 48.5155C17.6581 48.5969 17.6496 48.7206 17.5682 48.7916Z" fill="#FFAC00"/>
<path d="M16.3611 49.0026C16.3468 49.2051 16.1716 49.3582 15.9691 49.3445C15.7666 49.3302 15.6136 49.155 15.6279 48.9525C15.6416 48.75 15.8174 48.597 16.0192 48.6113C16.2217 48.625 16.3748 48.8008 16.3611 49.0026Z" fill="#A39CFF"/>
<path d="M18.351 47.2282C18.3464 47.2966 18.2872 47.3487 18.2182 47.3435C18.1498 47.3389 18.0977 47.2797 18.1029 47.2107C18.1075 47.1423 18.1667 47.0902 18.2357 47.0948C18.3041 47.1 18.3562 47.1592 18.351 47.2282Z" fill="white"/>
<path d="M35.9645 30.1814C35.6285 30.3872 35.2547 30.5493 34.838 30.6587C34.6023 30.7212 34.3535 30.7668 34.0905 30.7948C33.7916 30.8261 33.5005 30.8456 33.2185 30.8534V35.4969L32.8923 39.1271C32.807 39.3583 32.7015 39.594 32.57 39.8252C32.5042 39.9417 32.4306 40.0576 32.3505 40.1716C31.8876 40.8292 31.1837 41.4218 30.1171 41.7598C29.9927 41.7995 29.8625 41.8359 29.7277 41.8679C29.2243 41.989 28.6487 42.0573 27.991 42.0573C27.6316 42.0573 27.2956 42.0372 26.9811 41.9987C26.8424 41.9818 26.7082 41.9616 26.578 41.9382C25.4332 41.7318 24.6011 41.2759 23.9961 40.7186C23.8945 40.6254 23.8001 40.5291 23.7116 40.4307C23.2278 39.8961 22.9204 39.2984 22.7251 38.7475L22.434 35.5171L22.7947 25.6747C22.8436 25.6852 22.8944 25.6917 22.9458 25.6917C23.3326 25.6917 23.6465 25.3778 23.6465 24.991C23.6465 24.6042 23.3326 24.291 22.9458 24.291C22.559 24.291 22.2458 24.6042 22.2458 24.991C22.2458 25.1056 22.2738 25.2137 22.3226 25.3094C21.1746 25.0835 20.3047 24.0039 20.3047 22.7054C20.3047 22.6091 20.3092 22.514 20.319 22.4209C20.3444 22.1689 20.4024 21.9273 20.4883 21.702C20.6452 21.2905 20.8959 20.9317 21.2111 20.6549C21.4826 20.4166 21.8017 20.2395 22.1514 20.1425C22.1638 20.1392 22.1755 20.1359 22.1879 20.1327C22.2159 20.1249 22.2439 20.1184 22.2725 20.1119C22.4333 20.0767 22.6 20.0578 22.77 20.0578C22.7837 20.0578 22.8012 20.0578 22.8195 20.0591C22.9471 20.063 23.0721 20.0799 23.1939 20.1093C23.3984 20.1581 23.5944 20.2395 23.778 20.3424C23.9401 20.4322 24.0932 20.539 24.2338 20.6556C24.4669 20.7122 24.6961 20.7845 24.9227 20.8835C25.0263 20.9284 25.1311 20.9792 25.2086 21.0619C25.2451 21.1003 25.3186 21.1589 25.3134 21.0665C25.3134 21.0658 25.2392 19.7173 25.2392 19.7173C25.2099 19.1839 25.3479 18.6539 25.6338 18.2026L25.8611 17.8445C25.8721 17.8276 25.8819 17.81 25.8917 17.7924C26.0525 17.5007 26.0512 17.1445 25.8838 16.8528L25.5934 16.3436C25.2822 15.7992 25.5654 15.1077 26.1691 14.939C27.2741 14.6304 29.0277 14.2078 30.8652 14.0326H30.8665C32.7373 13.8542 34.6941 13.9323 36.1397 14.6493H36.1403C36.2256 14.6922 36.3083 14.7365 36.3897 14.7834C36.6469 14.9306 36.8852 15.1005 37.1001 15.2959L38.0372 17.8178C38.0645 17.9318 38.0905 18.0464 38.114 18.161C38.786 21.3973 39.387 28.0827 35.9645 30.1814Z" fill="#C16D53"/>
<path d="M30.6258 20.3877C30.804 20.3747 30.9277 20.0792 30.902 19.7277C30.8763 19.3762 30.711 19.1018 30.5327 19.1148C30.3545 19.1279 30.2308 19.4234 30.2565 19.7749C30.2822 20.1264 30.4475 20.4008 30.6258 20.3877Z" fill="#231F20"/>
<path d="M36.3113 20.1402C36.4896 20.1271 36.6132 19.8316 36.5876 19.4801C36.5619 19.1286 36.3965 18.8543 36.2183 18.8673C36.04 18.8803 35.9163 19.1758 35.942 19.5273C35.9677 19.8788 36.133 20.1532 36.3113 20.1402Z" fill="#231F20"/>
<g style="mix-blend-mode:screen">
<path d="M35.9644 30.1814C35.6284 30.3871 35.2546 30.5493 34.8379 30.6587C36.8656 29.8955 37.6841 26.4365 37.6776 23.1911C37.6711 19.822 36.6709 16.2094 36.1396 14.6492C36.3968 14.7963 36.8851 15.1004 37.1 15.2958L38.037 17.8177C38.0644 17.9317 38.0904 18.0463 38.1139 18.1609C38.7859 21.3972 39.3869 28.0827 35.9644 30.1814Z" fill="#E5765C"/>
</g>
<path d="M33.2189 30.8535C33.2189 30.8535 28.4908 31.3549 25.4727 26.9602C25.4727 26.9602 26.4429 33.9836 33.2189 34.9213V30.8535Z" fill="#843928"/>
<path d="M38.1483 11.4045C38.1483 12.266 38.0213 12.869 38.0213 12.869C37.8377 7.11528 32.0469 5.73221 32.0469 5.73221H32.0475C33.3212 5.04979 34.9739 5.61304 36.4676 6.9857C36.5334 7.04625 36.5966 7.10746 36.6571 7.16997C37.893 8.4443 38.1483 10.1836 38.1483 11.4045Z" fill="#872F1B"/>
<path d="M30.1709 11.0124C30.1709 11.0124 33.0458 12.9822 34.9843 10.3625C34.9843 10.3625 34.7779 12.0282 33.6475 12.6612C32.7684 13.1541 31.0656 13.0186 30.1709 11.0124Z" fill="#872F1B"/>
<path d="M34.3135 11.5706C34.3135 11.5706 35.0643 12.4913 36.4649 11.8792C36.4649 11.8792 34.6156 13.3704 34.3135 11.5706Z" fill="#872F1B"/>
<path d="M39.1157 54.912V54.1716H39.5422L38.7296 52.1523H37.814V54.1716H38.3096V54.912H36.5684V54.1716H37.0737V49.4025H36.5684V48.6621H40.2045L40.6245 49.0906V51.733L40.2051 52.1523H39.4498L40.2624 54.1716H40.8569V54.912H39.1157ZM37.814 51.412H39.8945V49.4025H37.814V51.412Z" fill="#DAD7FF"/>
<g style="mix-blend-mode:soft-light">
<path d="M51.3465 43.4234L49.1436 41.7291L48.1916 40.9965C47.5352 40.4919 46.7603 40.165 45.9412 40.0465L36.7383 38.7161L36.9187 37.408L46.2147 38.7331C47.4245 38.9245 48.5113 39.5822 49.2426 40.5648L49.5942 41.0375L51.3445 43.3895L51.3465 43.4234Z" fill="white"/>
</g>
<g style="mix-blend-mode:soft-light">
<path d="M18.962 39.079L10.5561 39.9392C9.0031 40.0981 7.53799 40.7356 6.36329 41.7637L4.57324 43.3304L6.13799 41.0331L6.36003 40.7069C7.08803 39.6384 8.22431 38.9182 9.50124 38.7157L18.7315 37.4094L18.962 39.0797V39.079Z" fill="white"/>
</g>
<g style="mix-blend-mode:screen">
<path d="M23.8475 20.6445C23.6633 20.834 23.0095 20.8822 22.8545 20.8613C22.5042 20.8131 22.1428 20.7194 21.8036 20.8203C21.461 20.9219 21.2071 21.2032 20.9173 21.4128C20.8867 21.435 20.8548 21.4565 20.8177 21.4623C20.5878 21.4995 20.7298 21.2175 20.7793 21.1433C20.8997 20.9622 21.0475 20.7975 21.211 20.6542C21.2885 20.6139 21.3653 20.5709 21.4395 20.5195C21.6766 20.356 21.8797 20.2225 22.1513 20.1418C22.1636 20.1385 22.1754 20.1353 22.1877 20.132C22.2157 20.1242 22.2437 20.1177 22.2724 20.1112C22.4332 20.076 22.5999 20.0571 22.7699 20.0571C22.8506 20.0571 23.0154 20.0721 23.1938 20.1086C23.4119 20.1522 23.6496 20.2264 23.7779 20.3417C23.9192 20.4687 23.9218 20.5683 23.8475 20.6445Z" fill="#E5765C"/>
</g>
<path d="M38.0762 49.6738V51.15H39.6227V49.6738H38.0762ZM39.471 50.9983H38.2279V49.8256H39.471V50.9983Z" fill="white"/>
<path d="M40.5532 53.7483L40.0675 52.5755H40.3813L41.0481 51.9081V48.916L40.3813 48.2485H36.1553V49.8257H36.6508V53.7483H36.1553V55.3254H41.2806V53.7483H40.5532ZM41.1295 55.1737H38.8543V53.9H39.1578L38.5516 52.4238H38.0762V53.9H38.5815V55.1737H36.307V53.9H36.8025V49.6739H36.307V48.4003H40.3208L40.8964 48.9765V51.8475L40.3208 52.4238H39.8454L40.4419 53.9H41.1295V55.1737ZM38.2279 53.7483V52.5755H38.45L38.9253 53.7483H38.2279Z" fill="white"/>
<path d="M38.0762 49.6738V51.15H39.6227V49.6738H38.0762ZM39.471 50.9983H38.2279V49.8256H39.471V50.9983Z" fill="white"/>
<path d="M38.0762 49.6738V51.15H39.6227V49.6738H38.0762ZM39.471 50.9983H38.2279V49.8256H39.471V50.9983Z" fill="white"/>
<g style="mix-blend-mode:soft-light">
<path d="M22.434 35.5171L22.6821 38.1523L18.9522 39.1161L18.7314 37.4087L22.434 35.5171Z" fill="white"/>
</g>
<g style="mix-blend-mode:soft-light">
<path d="M33.2185 35.4968L33.0107 37.9953L36.7386 38.7162L36.919 37.408L33.2185 35.4968Z" fill="white"/>
</g>
<path d="M22.3236 25.4071C22.3171 25.4071 22.3113 25.4071 22.3048 25.4051C21.0897 25.1662 20.208 24.0305 20.208 22.7054C20.208 21.3803 21.0682 20.2772 22.2527 20.0168C22.3054 20.005 22.3575 20.0382 22.3692 20.091C22.3809 20.1437 22.3477 20.1958 22.295 20.2075C21.1991 20.4485 20.404 21.4995 20.404 22.7061C20.404 23.9127 21.2193 24.9929 22.3432 25.2143C22.3959 25.2248 22.4304 25.2762 22.42 25.3289C22.4109 25.3758 22.3699 25.4077 22.3243 25.4077L22.3236 25.4071Z" fill="#231F20"/>
<path d="M24.3501 20.8528C24.3266 20.8528 24.3039 20.8443 24.285 20.828C23.9431 20.5213 23.4033 20.156 22.7704 20.156C22.6102 20.156 22.45 20.1736 22.2937 20.2075C22.241 20.2192 22.1889 20.186 22.1772 20.1333C22.1654 20.0805 22.1986 20.0284 22.2514 20.0167C22.4207 19.9796 22.5952 19.9607 22.7697 19.9607C23.4639 19.9607 24.0473 20.3533 24.4146 20.6828C24.4549 20.7186 24.4582 20.7805 24.4217 20.8209C24.4022 20.8424 24.3755 20.8534 24.3488 20.8534L24.3501 20.8528Z" fill="#231F20"/>
<path d="M22.3276 24.0714C22.297 24.0714 22.2671 24.0571 22.2476 24.0304C22.2163 23.9861 22.2267 23.9255 22.271 23.8943C22.2769 23.8904 22.846 23.4814 22.8987 23.079C22.9137 22.9631 22.8831 22.8615 22.8056 22.7684C22.6324 22.5607 22.3902 22.6773 22.0802 22.9175C22.0646 22.9299 22.0444 22.9462 22.0203 22.9657C21.7839 23.1598 21.5391 23.3427 21.3691 23.2555C21.2786 23.2093 21.2383 23.1031 21.2487 22.9397C21.2702 22.6037 21.375 22.2742 21.5508 21.9877C21.6999 21.7454 21.879 21.5696 22.0835 21.4661C22.5139 21.248 23.0355 21.343 23.4893 21.4654C23.5414 21.4798 23.572 21.5332 23.5583 21.5853C23.5447 21.6373 23.4913 21.668 23.4385 21.6543C23.0205 21.5416 22.5425 21.4524 22.1714 21.6406C21.9995 21.7279 21.8464 21.8789 21.7169 22.0906C21.5573 22.3504 21.4623 22.6486 21.4434 22.9527C21.4369 23.0588 21.4583 23.0823 21.459 23.0823C21.4857 23.094 21.5801 23.0751 21.8966 22.8153C21.922 22.7945 21.9441 22.7762 21.961 22.7632C22.1603 22.6095 22.6265 22.2488 22.956 22.644C23.0693 22.7795 23.1149 22.9351 23.0928 23.1057C23.029 23.5934 22.4103 24.0362 22.3843 24.0551C22.3674 24.0675 22.3472 24.0734 22.3276 24.0734V24.0714Z" fill="#231F20"/>
<path d="M34.5437 23.1604C34.515 23.1604 34.4844 23.1572 34.4525 23.1507C34.1536 23.0882 33.8899 22.9371 33.6496 22.7834C33.604 22.7541 33.591 22.6942 33.6197 22.6486C33.6483 22.603 33.7095 22.59 33.7544 22.6187C33.9791 22.7626 34.2239 22.9032 34.4916 22.9592C34.627 22.9872 34.7338 22.9 34.8484 22.6669C35.1525 22.047 34.8868 21.2219 34.5873 20.4972C34.3919 20.0244 34.1608 19.5745 33.901 19.159C33.8723 19.1135 33.886 19.0529 33.9316 19.0243C33.9771 18.9956 34.0377 19.0093 34.0664 19.0549C34.332 19.4794 34.5684 19.9391 34.7677 20.4223C35.0841 21.1881 35.3615 22.0632 35.0236 22.7528C34.9663 22.8694 34.8237 23.1604 34.543 23.1604H34.5437Z" fill="#231F20"/>
<path d="M32.3585 25.9834C31.2854 25.9834 30.4206 25.1746 30.1042 24.8347C30.0677 24.795 30.0696 24.7331 30.1094 24.6967C30.1491 24.6602 30.2109 24.6622 30.2474 24.7019C31.9202 26.5043 33.3255 25.6246 33.8522 25.1629C33.8926 25.1271 33.9545 25.1317 33.9903 25.172C34.0261 25.2124 34.0215 25.2743 33.9812 25.3101C33.4179 25.8043 32.8651 25.984 32.3585 25.984V25.9834Z" fill="#231F20"/>
<path d="M30.1759 24.8658C30.1388 24.8658 30.103 24.8443 30.0867 24.8078C30.0646 24.7584 30.0867 24.7011 30.1362 24.6789C30.2814 24.6144 30.4045 24.5174 30.5022 24.3904C30.5347 24.3475 30.5966 24.3397 30.6389 24.3729C30.6819 24.4061 30.6897 24.4673 30.6565 24.5096C30.5386 24.6626 30.3908 24.7792 30.2156 24.8573C30.2026 24.8632 30.1889 24.8658 30.1759 24.8658Z" fill="#231F20"/>
<path d="M29.6902 24.9662C29.6186 24.9662 29.5736 24.9603 29.5691 24.9596C29.5157 24.9518 29.4786 24.9023 29.4864 24.849C29.4942 24.7956 29.5437 24.7584 29.5971 24.7663C29.5997 24.7663 29.8628 24.8008 30.1363 24.679C30.1857 24.6569 30.243 24.679 30.2652 24.7285C30.2873 24.778 30.2652 24.8353 30.2157 24.8574C30.0099 24.9492 29.812 24.9668 29.6909 24.9668L29.6902 24.9662Z" fill="#231F20"/>
<path d="M22.2725 20.2095C22.221 20.2095 22.1781 20.1697 22.1748 20.1177L22.1735 20.0942C22.1416 19.5824 22.0622 18.3016 21.9886 17.1659C21.5907 17.3209 20.3724 17.735 19.6366 17.3307C19.3331 17.164 19.1489 16.8801 19.0883 16.4874C18.9906 15.8564 19.253 15.4182 19.8463 15.2196C19.897 15.2027 19.953 15.23 19.97 15.2815C19.9869 15.3329 19.9596 15.3883 19.9081 15.4052C19.4028 15.5745 19.1977 15.919 19.281 16.4581C19.3325 16.7922 19.4797 17.022 19.7303 17.1594C20.5163 17.5911 22.0231 16.9413 22.0381 16.9348C22.0674 16.9217 22.1006 16.9244 22.1279 16.9406C22.1553 16.9569 22.1722 16.9862 22.1748 17.0175C22.2503 18.1857 22.3357 19.5492 22.3689 20.0818L22.3702 20.1059C22.3734 20.16 22.3324 20.2062 22.279 20.2095C22.277 20.2095 22.2751 20.2095 22.2731 20.2095H22.2725Z" fill="#231F20"/>
<path d="M19.8777 15.4097C19.8367 15.4097 19.799 15.3836 19.7853 15.3432C19.7683 15.2918 19.7957 15.2365 19.8471 15.2195C20.6311 14.9565 21.7336 15.1902 21.7804 15.2006C21.8332 15.2124 21.8664 15.2638 21.8553 15.3165C21.8443 15.3693 21.7922 15.4032 21.7394 15.3914C21.7283 15.3888 20.6422 15.159 19.9096 15.4051C19.8992 15.4084 19.8888 15.4103 19.8784 15.4103L19.8777 15.4097Z" fill="#231F20"/>
<path d="M25.2906 21.2136C25.2509 21.2136 25.1988 21.1941 25.1376 21.1283C25.0712 21.0573 24.9761 21.0124 24.8843 20.9727C24.6772 20.8828 24.4571 20.8099 24.2117 20.7506C24.1589 20.7382 24.127 20.6848 24.1394 20.6327C24.1518 20.5807 24.2045 20.5481 24.2572 20.5605C24.5144 20.6223 24.745 20.6992 24.9624 20.7936C25.0425 20.8281 25.1311 20.8698 25.2092 20.9303C25.1897 20.58 25.1428 19.7231 25.1428 19.7231C25.1122 19.1657 25.2535 18.622 25.5524 18.1512L25.7797 17.7924C25.9516 17.5215 25.9594 17.1803 25.7998 16.9016L25.5088 16.3924C25.3453 16.1065 25.3232 15.7679 25.4482 15.4632C25.5732 15.1591 25.8265 14.9338 26.143 14.8452C28.5816 14.1641 34.5371 12.8377 37.1659 15.2242C37.1776 15.2346 37.1861 15.2476 37.1919 15.2626L38.129 17.7839C38.1478 17.8347 38.1218 17.8907 38.0717 17.9096C38.0209 17.9285 37.9649 17.9024 37.946 17.8523L37.0168 15.3531C34.4512 13.0539 28.5972 14.3627 26.1951 15.0334C25.9366 15.1057 25.7302 15.2893 25.6286 15.5374C25.5264 15.7861 25.5446 16.0622 25.6781 16.2954L25.9691 16.8046C26.1645 17.1464 26.1547 17.5645 25.9438 17.8972L25.7165 18.256C25.4398 18.6929 25.3082 19.1963 25.3369 19.7127C25.3868 20.6134 25.4117 21.0649 25.4117 21.0671C25.417 21.1602 25.3616 21.1947 25.3375 21.2045C25.3245 21.2097 25.3089 21.2142 25.2913 21.2142L25.2906 21.2136Z" fill="#231F20"/>
<path d="M38.0387 17.9193C37.9983 17.9193 37.9619 17.8945 37.9475 17.8561C37.9371 17.8294 37.9397 17.8001 37.9515 17.776C38.0003 17.6347 38.4535 16.2751 38.1377 15.1876C38.1286 15.157 38.1357 15.1232 38.1559 15.0984C38.4997 14.6778 38.6436 14.2676 38.5831 13.8788C38.4932 13.2986 37.9723 12.9535 37.9671 12.9502C37.9332 12.9281 37.9163 12.8877 37.9248 12.848C37.9326 12.8116 38.6723 9.1429 36.401 7.05657C35.143 5.90076 33.8511 5.37657 32.7623 5.58104C31.9308 5.73732 31.2679 6.30643 30.7939 7.27276C30.7789 7.30336 30.7483 7.3242 30.7144 7.32681C30.6793 7.33006 30.6467 7.31443 30.6272 7.28643C30.6207 7.27732 29.9786 6.40085 29.1777 6.41583C28.7102 6.4243 28.2706 6.73295 27.8702 7.33267C27.8532 7.35806 27.8259 7.37369 27.7953 7.3763C27.7653 7.37825 27.7354 7.36588 27.7152 7.34309C27.7132 7.34048 27.4801 7.07806 27.0087 6.81369C26.5743 6.5695 25.8418 6.27388 24.8201 6.24913C23.1212 6.20746 21.8951 6.82541 21.4562 7.94216C21.0362 9.01071 21.4126 10.3111 22.3919 11.1771C22.4251 11.2071 22.4342 11.2553 22.4141 11.295C22.3932 11.3347 22.3483 11.3556 22.3047 11.3451C22.2832 11.3399 20.1395 10.8502 19.2071 11.8543C18.8515 12.2372 18.4687 13.1996 18.6764 14.011C18.8249 14.5899 19.239 14.9962 19.9077 15.2189C19.9592 15.2358 19.9865 15.2912 19.9696 15.3426C19.9527 15.3934 19.8973 15.4214 19.8459 15.4045C19.1205 15.1636 18.6503 14.6986 18.4869 14.0598C18.2518 13.141 18.692 12.1213 19.0638 11.7215C19.8543 10.8711 21.3618 10.9916 22.0253 11.0944C21.1638 10.1828 20.8604 8.92411 21.2745 7.87118C21.7453 6.67304 23.0411 6.01081 24.8253 6.05378C26.5496 6.09546 27.497 6.85992 27.7757 7.12625C28.1964 6.53434 28.6672 6.2296 29.1751 6.22113C29.1829 6.22113 29.1901 6.22113 29.1979 6.22113C29.905 6.22113 30.4696 6.79285 30.6884 7.05071C31.182 6.12085 31.8839 5.54783 32.7265 5.3896C33.8765 5.17341 35.2283 5.71453 36.5332 6.91332C38.7192 8.92085 38.2171 12.3193 38.1279 12.8252C38.2783 12.9385 38.6892 13.2928 38.7758 13.8476C38.8436 14.2812 38.697 14.7305 38.3389 15.1831C38.6606 16.3773 38.1527 17.7949 38.1305 17.8555C38.1169 17.8939 38.0804 17.9193 38.0394 17.9199L38.0387 17.9193Z" fill="#231F20"/>
<path d="M23.4347 43.4025C23.4022 43.4025 23.3696 43.3862 23.3514 43.3556C23.113 42.9662 22.9659 42.5221 22.9255 42.0702L22.8871 41.6463C22.8825 41.5922 22.9216 41.5454 22.9756 41.5402C23.0297 41.5356 23.0766 41.5747 23.0818 41.6287L23.1202 42.0526C23.158 42.4746 23.2954 42.8894 23.5181 43.2534C23.5461 43.2996 23.5317 43.3595 23.4855 43.3875C23.4699 43.3973 23.4523 43.4018 23.4347 43.4018V43.4025Z" fill="#231F20"/>
<path d="M24.6522 45.2966C24.647 45.2966 24.6418 45.2966 24.6366 45.2953L23.2158 45.0629C23.1624 45.0544 23.1266 45.0036 23.135 44.9509C23.1435 44.8975 23.1943 44.8617 23.247 44.8701L24.6679 45.1026C24.7213 45.1111 24.7571 45.1619 24.7486 45.2146C24.7408 45.2628 24.6991 45.2966 24.6522 45.2966Z" fill="#231F20"/>
<path d="M18.7313 37.5055C18.6831 37.5055 18.6414 37.4697 18.6349 37.4209L18.6336 37.4117C18.6284 37.3714 18.6486 37.3317 18.6844 37.3128L20.2459 36.4838C20.2934 36.4591 20.3527 36.4767 20.3781 36.5242C20.4035 36.5717 20.3853 36.631 20.3377 36.6564L18.8088 37.4677C18.7938 37.4873 18.771 37.501 18.745 37.5049C18.7404 37.5049 18.7365 37.5055 18.732 37.5055H18.7313Z" fill="#231F20"/>
<path d="M21.3832 36.088C21.3481 36.088 21.3142 36.0691 21.2966 36.0359C21.2712 35.9884 21.2895 35.9291 21.337 35.9038L22.3808 35.3496C22.4095 35.3346 22.4446 35.3346 22.4733 35.3496C22.5019 35.3652 22.5208 35.3939 22.5241 35.4264L22.5312 35.5072C22.5358 35.5612 22.4967 35.6081 22.4427 35.6133C22.4101 35.6159 22.3808 35.6029 22.3606 35.5808L21.4282 36.0757C21.4138 36.0835 21.3982 36.0867 21.3826 36.0867L21.3832 36.088Z" fill="#231F20"/>
<path d="M24.6516 45.2968C24.6197 45.2968 24.5878 45.2812 24.5695 45.2519L23.389 43.4182C23.3805 43.4045 23.372 43.3909 23.3636 43.3772L23.3512 43.3557C23.3232 43.3095 23.3375 43.2496 23.3838 43.2216C23.43 43.1936 23.4899 43.2079 23.5179 43.2541L23.5322 43.2782C23.5387 43.2899 23.5459 43.3017 23.5531 43.3127L24.7336 45.1471C24.7629 45.1926 24.7499 45.2525 24.7043 45.2819C24.688 45.2923 24.6698 45.2975 24.6516 45.2975V45.2968Z" fill="#231F20"/>
<path d="M22.9392 41.2303C22.8891 41.2303 22.8468 41.1919 22.8422 41.1411L22.6273 38.7559C22.6228 38.7019 22.6618 38.655 22.7159 38.6498C22.7693 38.6452 22.8168 38.6843 22.822 38.7383L23.0369 41.1235C23.0415 41.1776 23.0024 41.2245 22.9483 41.2297C22.9451 41.2297 22.9425 41.2297 22.9392 41.2297V41.2303Z" fill="#231F20"/>
<path d="M22.7254 38.845C22.6752 38.845 22.6329 38.8066 22.6283 38.7558L22.3373 35.5247C22.3327 35.4707 22.3718 35.4238 22.4258 35.4186C22.4792 35.414 22.5268 35.4531 22.532 35.5071L22.823 38.7382C22.8276 38.7922 22.7885 38.8391 22.7345 38.8443C22.7312 38.8443 22.7286 38.8443 22.7254 38.8443V38.845Z" fill="#231F20"/>
<path d="M21.6157 44.7093C21.6033 44.7093 21.5916 44.7074 21.5792 44.7022C20.3915 44.2275 19.5242 43.196 19.2585 41.9438C19.2585 41.9412 19.2578 41.9393 19.2572 41.9367L18.6347 37.4209C18.6275 37.3675 18.6646 37.318 18.718 37.3108C18.7708 37.3043 18.8209 37.3408 18.8281 37.3942L19.4499 41.9061C19.7026 43.0925 20.5257 44.0699 21.6515 44.5198C21.7017 44.54 21.7257 44.5967 21.7062 44.6468C21.6912 44.6852 21.6541 44.708 21.6157 44.708V44.7093Z" fill="#231F20"/>
<path d="M22.9848 41.7355C22.9346 41.7355 22.8923 41.6971 22.8877 41.6463L22.8422 41.141C22.8376 41.087 22.8767 41.0401 22.9307 41.0349C22.9848 41.0297 23.0316 41.0694 23.0369 41.1234L23.0824 41.6287C23.087 41.6828 23.0479 41.7297 22.9939 41.7349C22.9906 41.7349 22.988 41.7349 22.9848 41.7349V41.7355Z" fill="#231F20"/>
<path d="M23.2299 45.0642C23.198 45.0642 23.1661 45.0486 23.1478 45.0192L22.4654 43.9579C22.1118 43.4096 21.8943 42.7766 21.8364 42.1268L21.2855 35.9987C21.281 35.9446 21.3207 35.8978 21.3741 35.8925C21.4268 35.8873 21.475 35.9271 21.4802 35.9811L22.0311 42.1092C22.0864 42.7272 22.2935 43.3301 22.6302 43.8517L23.3132 44.9131C23.3425 44.9587 23.3295 45.0186 23.2839 45.0479C23.2677 45.0583 23.2494 45.0635 23.2312 45.0635L23.2299 45.0642Z" fill="#231F20"/>
<path d="M21.6155 44.7094C21.5836 44.7094 21.5517 44.6938 21.5335 44.6645L21.3616 44.3975C21.0087 43.8479 20.7912 43.2143 20.7332 42.5658L20.1947 36.5796C20.1901 36.5256 20.2292 36.4787 20.2833 36.4735C20.3373 36.4689 20.3842 36.508 20.3894 36.5621L20.9279 42.5489C20.9833 43.1662 21.1903 43.7691 21.5263 44.2927L21.6982 44.5596C21.7275 44.6052 21.7145 44.6651 21.6689 44.6944C21.6527 44.7049 21.6344 44.7101 21.6162 44.7101L21.6155 44.7094Z" fill="#231F20"/>
<path d="M23.2311 45.0644C23.2259 45.0644 23.2207 45.0644 23.2155 45.0631L22.3846 44.927C22.1065 44.8814 21.8356 44.8052 21.5797 44.7023C21.5296 44.6821 21.5055 44.6255 21.5257 44.5753C21.5459 44.5252 21.6025 44.5011 21.6527 44.5213C21.8956 44.619 22.1521 44.6913 22.4158 44.7342L23.2467 44.8703C23.3001 44.8788 23.3359 44.9296 23.3275 44.9823C23.3196 45.0305 23.278 45.0644 23.2311 45.0644Z" fill="#231F20"/>
<path d="M20.2914 36.6683C20.2563 36.6683 20.2224 36.6494 20.2048 36.6162C20.1794 36.5686 20.1977 36.5094 20.2452 36.484L21.3365 35.9038C21.3841 35.8784 21.4433 35.8966 21.4687 35.9442C21.4941 35.9917 21.4759 36.051 21.4284 36.0764L20.337 36.6565C20.3227 36.6644 20.3064 36.6683 20.2914 36.6683Z" fill="#231F20"/>
<path d="M30.9991 45.2968C30.9808 45.2968 30.9626 45.2916 30.9463 45.2811C30.9007 45.2518 30.8877 45.1913 30.917 45.1464L32.0598 43.3706C32.0891 43.3251 32.1497 43.312 32.1946 43.3413C32.2402 43.3706 32.2532 43.4312 32.2239 43.4761L31.0811 45.2518C31.0622 45.2811 31.031 45.2968 30.9991 45.2968Z" fill="#231F20"/>
<path d="M30.999 45.2966C30.9521 45.2966 30.9104 45.2628 30.9026 45.2146C30.8941 45.1612 30.93 45.1111 30.9834 45.1026L32.4048 44.8701C32.4582 44.8617 32.5084 44.8975 32.5168 44.9509C32.5253 45.0043 32.4895 45.0544 32.4361 45.0629L31.0146 45.2953C31.0094 45.296 31.0042 45.2966 30.999 45.2966Z" fill="#231F20"/>
<path d="M32.81 40.1364C32.81 40.1364 32.8041 40.1364 32.8008 40.1364C32.7468 40.1318 32.7077 40.0843 32.7123 40.0303L32.7943 39.118C32.7989 39.0639 32.8458 39.0249 32.9005 39.0294C32.9545 39.034 32.9936 39.0815 32.989 39.1356L32.907 40.0478C32.9024 40.0986 32.8601 40.137 32.81 40.137V40.1364Z" fill="#231F20"/>
<path d="M32.765 40.6384C32.765 40.6384 32.7592 40.6384 32.7559 40.6384C32.7019 40.6338 32.6628 40.5863 32.6674 40.5322L32.7123 40.0302C32.7168 39.9761 32.7637 39.9364 32.8184 39.9416C32.8725 39.9462 32.9115 39.9937 32.907 40.0478L32.8621 40.5498C32.8575 40.6006 32.8152 40.639 32.765 40.639V40.6384Z" fill="#231F20"/>
<path d="M36.9193 37.5056C36.9148 37.5056 36.9109 37.5056 36.9063 37.505C36.8803 37.5017 36.8575 37.4881 36.8425 37.4685L35.3136 36.6572C35.266 36.6318 35.2478 36.5725 35.2732 36.525C35.2986 36.4774 35.3578 36.4592 35.4054 36.4846L36.9669 37.3135C37.0033 37.3324 37.0235 37.3721 37.0177 37.4132L37.0163 37.4223C37.0098 37.4711 36.9675 37.5069 36.92 37.5069L36.9193 37.5056Z" fill="#231F20"/>
<path d="M32.892 39.2241C32.892 39.2241 32.8861 39.2241 32.8829 39.2241C32.8288 39.2195 32.7897 39.172 32.7943 39.1179L33.1212 35.4877C33.1257 35.4337 33.1733 35.3939 33.2273 35.3991C33.2814 35.4037 33.3204 35.4512 33.3159 35.5053L32.989 39.1355C32.9844 39.1863 32.9421 39.2247 32.892 39.2247V39.2241Z" fill="#231F20"/>
<path d="M34.036 44.7094C33.9976 44.7094 33.9605 44.6859 33.9455 44.6482C33.9253 44.598 33.9501 44.5414 34.0002 44.5212C35.1261 44.0706 35.9491 43.0938 36.2018 41.9074L36.8237 37.3955C36.8308 37.3421 36.881 37.305 36.9337 37.3122C36.9871 37.3193 37.0242 37.3688 37.0171 37.4222L36.3945 41.938C36.3945 41.938 36.3939 41.9426 36.3932 41.9452C36.1276 43.1974 35.2602 44.2282 34.0725 44.7035C34.0608 44.7081 34.0484 44.7107 34.036 44.7107V44.7094Z" fill="#231F20"/>
<path d="M34.2685 36.0879C34.2529 36.0879 34.2372 36.084 34.2229 36.0769L33.2781 35.5748C33.2592 35.5885 33.2351 35.5957 33.211 35.5937C33.1569 35.5892 33.1179 35.5416 33.1224 35.4876L33.1276 35.4277C33.1302 35.3951 33.1498 35.3658 33.1784 35.3508C33.2071 35.3352 33.2422 35.3352 33.2709 35.3508L34.3147 35.905C34.3622 35.9304 34.3805 35.9896 34.3551 36.0372C34.3375 36.0704 34.3036 36.0892 34.2685 36.0892V36.0879Z" fill="#231F20"/>
<path d="M32.1426 43.5211C32.1244 43.5211 32.1062 43.5159 32.0899 43.5055C32.0443 43.4762 32.0313 43.4156 32.0606 43.3707L32.0983 43.3127C32.3419 42.9364 32.491 42.5007 32.5314 42.0534L32.6681 40.5323C32.6727 40.4782 32.7202 40.4392 32.7742 40.4437C32.8283 40.4483 32.8674 40.4958 32.8628 40.5499L32.7261 42.071C32.6831 42.5496 32.5229 43.0158 32.2624 43.4189L32.2253 43.4768C32.2064 43.5061 32.1752 43.5218 32.1433 43.5218L32.1426 43.5211Z" fill="#231F20"/>
<path d="M34.0352 44.7093C34.017 44.7093 33.9987 44.7041 33.9824 44.6937C33.9369 44.6644 33.9238 44.6038 33.9531 44.5589L34.1251 44.2919C34.4611 43.7691 34.6681 43.1661 34.7235 42.5481L35.262 36.5613C35.2665 36.5073 35.3141 36.4682 35.3681 36.4728C35.4222 36.4773 35.4612 36.5249 35.4567 36.5789L34.9182 42.5657C34.8602 43.2143 34.6427 43.8478 34.2898 44.3974L34.1179 44.6644C34.099 44.6937 34.0678 44.7093 34.0358 44.7093H34.0352Z" fill="#231F20"/>
<path d="M32.42 45.0643C32.4017 45.0643 32.3835 45.059 32.3672 45.0486C32.3216 45.0193 32.3086 44.9588 32.3379 44.9138L33.0203 43.8524C33.3563 43.3309 33.5634 42.7279 33.6194 42.1099L34.1703 35.9818C34.1748 35.9278 34.2237 35.8881 34.2764 35.8933C34.3305 35.8978 34.3695 35.9454 34.365 35.9994L33.8141 42.1275C33.7555 42.7774 33.538 43.4103 33.1851 43.9586L32.5027 45.02C32.4838 45.0493 32.4525 45.0649 32.4206 45.0649L32.42 45.0643Z" fill="#231F20"/>
<path d="M35.3597 36.6683C35.344 36.6683 35.3284 36.6644 35.3141 36.6565L34.2227 36.0764C34.1752 36.051 34.157 35.9917 34.1824 35.9442C34.2078 35.8966 34.267 35.8784 34.3146 35.9038L35.4059 36.484C35.4534 36.5094 35.4717 36.5686 35.4463 36.6162C35.4287 36.6494 35.3948 36.6683 35.3597 36.6683Z" fill="#231F20"/>
<path d="M32.4199 45.0644C32.373 45.0644 32.3313 45.0305 32.3235 44.9823C32.315 44.9289 32.3509 44.8788 32.4042 44.8703L33.2351 44.7342C33.4989 44.6906 33.7554 44.619 33.9983 44.5213C34.0484 44.5011 34.1051 44.5252 34.1253 44.5753C34.1455 44.6255 34.1214 44.6821 34.0712 44.7023C33.8153 44.8059 33.5444 44.8814 33.2664 44.927L32.4355 45.0631C32.4303 45.0637 32.4251 45.0644 32.4199 45.0644Z" fill="#231F20"/>
<path d="M32.929 30.9549C30.3797 30.9549 28.5642 30.0328 27.4429 29.1967C26.0481 28.1575 25.4139 27.0544 25.3878 27.0075C25.3611 26.9606 25.3774 26.9014 25.4243 26.8747C25.4712 26.848 25.5304 26.8643 25.5571 26.9112C25.5637 26.9222 26.2018 28.0305 27.5666 29.045C28.824 29.9801 30.9742 31.0252 34.0802 30.697C35.3565 30.5616 36.3756 29.9833 37.1088 28.9779C37.993 27.7661 38.471 25.9552 38.5296 23.5948C38.5889 21.2154 38.1917 19.0152 38.0184 18.1791C37.997 18.0762 37.9722 17.9648 37.9423 17.8385C37.9299 17.7858 37.9624 17.7337 38.0145 17.7206C38.0679 17.7083 38.1194 17.7408 38.1324 17.7929C38.163 17.9212 38.1884 18.0339 38.2099 18.1387C38.3844 18.9813 38.7849 21.1998 38.725 23.5987C38.6657 25.9989 38.1747 27.8475 37.2664 29.0919C36.4986 30.1442 35.4333 30.7491 34.1004 30.8898C33.6941 30.9327 33.3034 30.9529 32.929 30.9529V30.9549Z" fill="#231F20"/>
<path d="M22.4337 35.614C22.4337 35.614 22.4311 35.614 22.4298 35.614C22.3757 35.612 22.334 35.5664 22.336 35.513L22.6967 25.6707C22.6987 25.6167 22.7443 25.5756 22.7977 25.5769C22.8517 25.5789 22.8934 25.6245 22.8914 25.6779L22.5307 35.5202C22.5287 35.5729 22.4851 35.6146 22.433 35.6146L22.4337 35.614Z" fill="#231F20"/>
<path d="M25.3683 47.3831C25.3149 47.3831 25.2712 47.3401 25.2706 47.2867L25.2484 45.7402C25.2387 45.5403 25.0856 45.369 24.8844 45.3358L24.6357 45.2954C24.5823 45.287 24.5465 45.2362 24.5549 45.1834C24.5634 45.1307 24.6142 45.0936 24.6669 45.1027L24.9157 45.1431C25.2068 45.1906 25.4288 45.4393 25.4431 45.7337L25.4653 47.2834C25.4659 47.3375 25.4229 47.3818 25.3689 47.3824H25.3676L25.3683 47.3831Z" fill="#231F20"/>
<path d="M6.1382 41.1293C6.11931 41.1293 6.10043 41.1241 6.0835 41.1124C6.03922 41.0817 6.0275 41.0212 6.05811 40.9769L6.28015 40.6513C7.01987 39.5652 8.18871 38.8242 9.48713 38.619L18.7193 37.3122C18.7721 37.305 18.8222 37.3421 18.83 37.3955C18.8378 37.4489 18.8001 37.4984 18.7467 37.5062L9.51643 38.8131C8.27271 39.0097 7.15206 39.7208 6.44229 40.7627L6.22025 41.0883C6.20136 41.1163 6.17076 41.1312 6.1395 41.1312L6.1382 41.1293Z" fill="#231F20"/>
<path d="M25.4274 51.5179C25.3741 51.5179 25.3304 51.4749 25.3298 51.4215L25.2705 47.286C25.2699 47.2319 25.3128 47.1877 25.3669 47.187H25.3682C25.4216 47.187 25.4652 47.23 25.4659 47.2834L25.5251 51.4189C25.5258 51.473 25.4828 51.5172 25.4287 51.5179H25.4274Z" fill="#231F20"/>
<path d="M25.6124 64.4468H10.9483C10.8942 64.4468 10.8506 64.4032 10.8506 64.3491C10.8506 64.2951 10.8942 64.2515 10.9483 64.2515H25.5128L25.3292 51.4222C25.3285 51.3682 25.3715 51.3239 25.4256 51.3233C25.4783 51.322 25.5239 51.3656 25.5245 51.4196L25.7095 64.3478C25.7095 64.3739 25.6997 64.3993 25.6815 64.4175C25.6632 64.4357 25.6378 64.4468 25.6118 64.4468H25.6124Z" fill="#231F20"/>
<path d="M10.9481 64.4469H-2.25291C-2.27896 64.4469 -2.3037 64.4365 -2.32193 64.4183C-2.34017 64.4 -2.35059 64.3753 -2.35059 64.3492L-2.34473 53.3407C-2.34473 53.3211 -2.33886 53.3023 -2.3278 53.286L6.05723 40.9771C6.08783 40.9328 6.14839 40.9211 6.19267 40.9517C6.23695 40.9823 6.24867 41.0428 6.21807 41.0871L-2.14938 53.3706L-2.15524 64.2509H10.9481C11.0022 64.2509 11.0458 64.2945 11.0458 64.3486C11.0458 64.4026 11.0022 64.4463 10.9481 64.4463V64.4469Z" fill="#231F20"/>
<path d="M33.2188 35.5943C33.2123 35.5943 33.2057 35.5937 33.1992 35.5924C33.1934 35.5911 33.1869 35.5891 33.181 35.5865C33.1751 35.5839 33.1693 35.5813 33.1641 35.5774C33.1589 35.5741 33.1537 35.5702 33.1491 35.5657C33.1309 35.5474 33.1211 35.5221 33.1211 35.496C33.1211 35.4901 33.1211 35.4836 33.1224 35.4771C33.1237 35.4713 33.1257 35.4647 33.1283 35.4589C33.1309 35.453 33.1335 35.4472 33.1374 35.442C33.1406 35.4367 33.1445 35.4315 33.1491 35.4276C33.1537 35.4231 33.1589 35.4185 33.1641 35.4153C33.1693 35.4114 33.1751 35.4087 33.181 35.4061C33.1869 35.4035 33.1934 35.4016 33.1992 35.4003C33.2311 35.3938 33.265 35.4048 33.2878 35.4276C33.3054 35.4452 33.3164 35.4706 33.3164 35.496C33.3164 35.5214 33.3054 35.5474 33.2878 35.5657C33.2832 35.5702 33.278 35.5741 33.2728 35.5774C33.2676 35.5813 33.2617 35.5839 33.2559 35.5865C33.25 35.5891 33.2435 35.5911 33.2377 35.5924C33.2311 35.5937 33.2246 35.5943 33.2188 35.5943Z" fill="#231F20"/>
<path d="M33.2188 35.5937C33.1647 35.5937 33.1211 35.55 33.1211 35.496V30.8682C33.1211 30.8141 33.1647 30.7705 33.2188 30.7705C33.2728 30.7705 33.3164 30.8141 33.3164 30.8682V35.496C33.3164 35.55 33.2728 35.5937 33.2188 35.5937Z" fill="#231F20"/>
<path d="M30.2295 51.1228H30.2282C30.1742 51.1221 30.1312 51.0779 30.1318 51.0238L30.2074 45.7377C30.2217 45.4395 30.4438 45.1914 30.7348 45.1438L30.9836 45.1034C31.0363 45.0943 31.0871 45.1308 31.0956 45.1842C31.104 45.2376 31.0682 45.2877 31.0148 45.2962L30.7661 45.3366C30.5655 45.3691 30.4118 45.541 30.4021 45.7442L30.3265 51.0271C30.3259 51.0805 30.2823 51.1234 30.2289 51.1234L30.2295 51.1228Z" fill="#231F20"/>
<path d="M30.1494 56.7037H30.1481C30.0941 56.7031 30.0511 56.6588 30.0518 56.6047L30.1319 51.0236C30.1325 50.9702 30.1761 50.9272 30.2295 50.9272H30.2308C30.2849 50.9279 30.3279 50.9722 30.3272 51.0262L30.2471 56.6073C30.2465 56.6607 30.2028 56.7037 30.1494 56.7037Z" fill="#231F20"/>
<path d="M61.367 64.4468H44.7871C44.7331 64.4468 44.6895 64.4032 44.6895 64.3491C44.6895 64.2951 44.7331 64.2514 44.7871 64.2514H61.2694V56.8914L49.5159 41.0954C49.4833 41.0518 49.4924 40.9913 49.5361 40.9587C49.579 40.9268 49.6402 40.9353 49.6728 40.9789L61.4452 56.8008C61.4575 56.8178 61.4647 56.838 61.4647 56.8594V64.3498C61.4647 64.4038 61.4211 64.4474 61.367 64.4474V64.4468Z" fill="#231F20"/>
<path d="M49.5946 41.1346C49.5646 41.1346 49.5353 41.1209 49.5164 41.0955L49.1648 40.6234C48.4446 39.6551 47.3917 39.0183 46.2 38.8294L36.906 37.505C36.8526 37.4972 36.8155 37.4477 36.8233 37.3943C36.8311 37.3409 36.88 37.3038 36.934 37.3116L46.23 38.6367C47.4737 38.834 48.5716 39.4975 49.3224 40.5068L49.674 40.9789C49.7066 41.0226 49.6974 41.0831 49.6538 41.1157C49.6362 41.1287 49.616 41.1352 49.5959 41.1352L49.5946 41.1346Z" fill="#231F20"/>
<path d="M10.9481 64.4467C10.896 64.4467 10.8523 64.4051 10.8504 64.3523L10.3269 49.8144C10.2709 48.2621 9.78248 46.7605 8.91383 45.4731L6.05588 41.0856C6.02658 41.0407 6.03895 40.9801 6.08453 40.9502C6.12946 40.9209 6.19002 40.9332 6.21997 40.9788L9.07662 45.3651C9.96481 46.6817 10.4649 48.2184 10.5222 49.8073L11.0457 64.3451C11.0477 64.3992 11.0054 64.4441 10.9513 64.4461C10.95 64.4461 10.9487 64.4461 10.9481 64.4461V64.4467Z" fill="#231F20"/>
<path d="M44.7882 64.4468C44.7882 64.4468 44.7856 64.4468 44.7849 64.4468C44.7309 64.4449 44.6885 64.3993 44.6905 64.3459L45.214 49.808C45.2713 48.2192 45.7714 46.6824 46.6603 45.3645L49.513 40.9848C49.5423 40.9398 49.6029 40.9268 49.6484 40.9561C49.6934 40.9854 49.7064 41.046 49.6771 41.0915L46.8237 45.4726C45.9544 46.7619 45.4654 48.2628 45.41 49.8152L44.8865 64.353C44.8845 64.4058 44.8416 64.4475 44.7888 64.4475L44.7882 64.4468Z" fill="#231F20"/>
<path d="M27.9905 42.1549C27.635 42.1549 27.2912 42.1347 26.9688 42.0957C26.9154 42.0891 26.877 42.0403 26.8835 41.9869C26.89 41.9335 26.9395 41.8957 26.9923 41.9016C27.3068 41.94 27.6428 41.9596 27.9905 41.9596C28.6124 41.9596 29.1893 41.8971 29.7044 41.7727C29.7565 41.7603 29.8099 41.7922 29.8222 41.845C29.8346 41.8971 29.8027 41.9504 29.75 41.9628C29.2199 42.0904 28.628 42.1549 27.9905 42.1549Z" fill="#231F20"/>
<path d="M26.5783 42.0358C26.5724 42.0358 26.5666 42.0358 26.5607 42.0345C25.5039 41.8437 24.619 41.4256 23.93 40.7907C23.8903 40.7543 23.8877 40.6924 23.9242 40.6527C23.9606 40.613 24.0225 40.6104 24.0622 40.6468C24.7231 41.2563 25.5755 41.6581 26.5952 41.8424C26.648 41.8521 26.6838 41.9029 26.674 41.9557C26.6656 42.0025 26.6245 42.0358 26.5783 42.0358Z" fill="#231F20"/>
<path d="M23.712 40.5284C23.6853 40.5284 23.6586 40.5173 23.6397 40.4965C23.2067 40.0179 22.8681 39.4403 22.6337 38.7807C22.6154 38.7299 22.6421 38.6739 22.6929 38.6556C22.7437 38.6374 22.7997 38.6641 22.8179 38.7149C23.0439 39.3504 23.3688 39.9059 23.7849 40.3649C23.8214 40.4047 23.8181 40.4665 23.7778 40.503C23.7589 40.5199 23.7354 40.5284 23.712 40.5284Z" fill="#231F20"/>
<path d="M32.5701 39.9227C32.5539 39.9227 32.5369 39.9188 32.522 39.9097C32.4751 39.883 32.4588 39.8231 32.4855 39.7769C32.606 39.5653 32.7121 39.3354 32.8007 39.0932C32.8195 39.0424 32.8755 39.0163 32.9257 39.0352C32.9765 39.0541 33.0025 39.1101 32.9836 39.1602C32.8912 39.4122 32.7805 39.6519 32.6548 39.8733C32.6366 39.9052 32.604 39.9227 32.5701 39.9227Z" fill="#231F20"/>
<path d="M30.1172 41.8573C30.0755 41.8573 30.0371 41.8306 30.0241 41.7889C30.0078 41.7375 30.0365 41.6828 30.0879 41.6665C31.0197 41.3715 31.7542 40.8493 32.2713 40.1154C32.3025 40.0712 32.3631 40.0607 32.4074 40.092C32.4516 40.1232 32.4621 40.1838 32.4308 40.2281C31.889 40.9978 31.1207 41.5447 30.1472 41.8534C30.1374 41.8566 30.1276 41.8579 30.1179 41.8579L30.1172 41.8573Z" fill="#231F20"/>
<path d="M30.7634 44.0674C30.7204 44.0674 30.6813 44.0394 30.6696 43.9964C30.6553 43.9443 30.6852 43.8902 30.7373 43.8759C31.225 43.7392 31.6821 43.5575 32.0976 43.3374C32.1451 43.312 32.2044 43.3302 32.2298 43.3778C32.2552 43.4253 32.2369 43.4846 32.1894 43.51C31.7622 43.7366 31.2915 43.9228 30.7907 44.0641C30.7816 44.0667 30.7731 44.068 30.764 44.068L30.7634 44.0674Z" fill="#231F20"/>
<path d="M25.9538 44.2529C25.9486 44.2529 25.9427 44.2529 25.9375 44.2516C24.9784 44.0889 24.1201 43.7991 23.3869 43.3902C23.34 43.3641 23.3231 43.3042 23.3491 43.2573C23.3752 43.2104 23.4344 43.1929 23.482 43.2195C24.1957 43.6174 25.0331 43.9 25.9701 44.0589C26.0235 44.068 26.0593 44.1182 26.0502 44.1715C26.0424 44.2191 26.0007 44.2529 25.9538 44.2529Z" fill="#231F20"/>
<path d="M27.9914 44.4145C27.4145 44.4145 26.8604 44.38 26.3446 44.313C26.2912 44.3058 26.2535 44.257 26.2606 44.2036C26.2678 44.1502 26.3173 44.1124 26.37 44.1196C26.8766 44.186 27.4223 44.2198 27.9908 44.2198C28.8451 44.2198 29.6382 44.1371 30.3486 43.975C30.402 43.9626 30.4535 43.9958 30.4658 44.0486C30.4782 44.1013 30.445 44.1534 30.3923 44.1658C29.6675 44.3318 28.8601 44.4158 27.9908 44.4158L27.9914 44.4145Z" fill="#231F20"/>
<path d="M23.996 40.8161C23.9725 40.8161 23.9484 40.8077 23.9302 40.7907C23.8312 40.7002 23.7336 40.6012 23.6391 40.4964C23.6033 40.456 23.6066 40.3948 23.6463 40.3584C23.6867 40.3225 23.7479 40.3252 23.7843 40.3655C23.8749 40.4658 23.968 40.5602 24.0624 40.6468C24.1021 40.6833 24.1047 40.7451 24.0683 40.7849C24.0487 40.8057 24.0227 40.8168 23.996 40.8168V40.8161Z" fill="#231F20"/>
<path d="M26.9809 42.0962C26.977 42.0962 26.9731 42.0962 26.9692 42.0956C26.8298 42.0786 26.6924 42.0578 26.5609 42.0344C26.5075 42.0246 26.4723 41.9738 26.4821 41.9211C26.4919 41.8677 26.5427 41.8332 26.5954 41.8423C26.7237 41.8651 26.8572 41.8853 26.9933 41.9022C27.0467 41.9087 27.0851 41.9575 27.0786 42.0109C27.0727 42.0604 27.0304 42.0969 26.9815 42.0969L26.9809 42.0962Z" fill="#231F20"/>
<path d="M26.3573 44.3134C26.3534 44.3134 26.3489 44.3134 26.345 44.3128C26.2063 44.2952 26.0689 44.2744 25.9373 44.2516C25.8839 44.2424 25.8488 44.1917 25.8579 44.1389C25.867 44.0855 25.9178 44.0497 25.9705 44.0595C26.0995 44.0816 26.2336 44.1018 26.369 44.1194C26.4224 44.1265 26.4602 44.1754 26.4537 44.2288C26.4472 44.2783 26.4055 44.3141 26.3567 44.3141L26.3573 44.3134Z" fill="#231F20"/>
<path d="M29.7276 41.9654C29.6833 41.9654 29.6436 41.9354 29.6325 41.8905C29.6201 41.8378 29.6527 41.7857 29.7048 41.7726C29.8331 41.742 29.962 41.7062 30.087 41.6665C30.1391 41.6502 30.1932 41.6782 30.2101 41.7297C30.2264 41.7811 30.1984 41.8358 30.1469 41.8527C30.0173 41.8944 29.8839 41.9315 29.7504 41.9628C29.7426 41.9647 29.7354 41.9654 29.7276 41.9654Z" fill="#231F20"/>
<path d="M30.3699 44.167C30.325 44.167 30.2853 44.1364 30.2748 44.0908C30.2631 44.038 30.2957 43.9859 30.3484 43.9742C30.4793 43.9443 30.6063 43.9124 30.7365 43.8759C30.7886 43.8616 30.8427 43.8915 30.857 43.9436C30.8713 43.9957 30.8414 44.0498 30.7893 44.0641C30.6558 44.1012 30.5262 44.1344 30.3921 44.165C30.3849 44.167 30.3777 44.1676 30.3706 44.1676L30.3699 44.167Z" fill="#231F20"/>
<path d="M32.3505 40.2691C32.331 40.2691 32.3115 40.2632 32.2945 40.2515C32.2503 40.2202 32.2398 40.1597 32.2704 40.1154C32.3492 40.0028 32.4215 39.8888 32.4847 39.7768C32.5114 39.7299 32.5706 39.7136 32.6175 39.7397C32.6644 39.7664 32.6813 39.8256 32.6546 39.8725C32.5882 39.9897 32.5127 40.1095 32.43 40.2274C32.4111 40.2548 32.3805 40.2691 32.3499 40.2691H32.3505Z" fill="#231F20"/>
<path d="M30.1498 56.7037C30.1218 56.7037 30.0938 56.692 30.0749 56.6686C30.0202 56.6034 29.9668 56.537 29.9134 56.4706C29.7454 56.2629 29.5715 56.048 29.3736 55.8683C29.1945 55.7061 28.9881 55.5648 28.7875 55.4281C28.4899 55.2249 28.1826 55.0152 27.9482 54.7268C27.2775 53.9018 27.411 52.5102 28.2412 51.6885C28.9151 51.021 29.5956 50.9279 30.2305 50.9272C30.2845 50.9272 30.3282 50.9709 30.3282 51.0249C30.3282 51.079 30.2845 51.1226 30.2305 51.1226C29.5455 51.1232 28.9679 51.2437 28.3786 51.8272C27.6174 52.5812 27.4897 53.8523 28.0999 54.6031C28.3167 54.8694 28.5987 55.0621 28.8976 55.2666C29.1033 55.4072 29.3156 55.5525 29.5044 55.7237C29.7135 55.9132 29.8919 56.1339 30.0651 56.3475C30.1178 56.4133 30.1712 56.4784 30.2253 56.5429C30.2598 56.5846 30.2539 56.6458 30.2129 56.6803C30.1947 56.6952 30.1725 56.7031 30.1504 56.7031L30.1498 56.7037Z" fill="#231F20"/>
<path d="M25.4269 51.518C25.3976 51.518 25.3683 51.5049 25.3495 51.4796C25.3169 51.4366 25.3247 51.3754 25.3677 51.3428C25.5038 51.2386 25.6151 51.1364 25.7082 51.0283C26.0599 50.622 26.2324 50.0711 26.3848 49.5847C26.5723 48.9856 26.7631 48.1391 26.2559 47.7028C26.0462 47.5224 25.7597 47.4567 25.4595 47.4C25.44 47.3961 25.4204 47.3929 25.4015 47.3896L25.3508 47.3805C25.2974 47.3707 25.2628 47.3199 25.272 47.2665C25.2817 47.2131 25.3332 47.1786 25.3859 47.1877L25.4341 47.1962C25.4543 47.1995 25.4751 47.2034 25.4953 47.2073C25.8098 47.2665 26.1374 47.3421 26.3829 47.5543C26.9774 48.0662 26.7749 48.9915 26.571 49.6426C26.4128 50.1473 26.2337 50.7183 25.8561 51.1553C25.7538 51.2731 25.6334 51.3851 25.4862 51.4971C25.4686 51.5108 25.4478 51.5173 25.4269 51.5173V51.518Z" fill="#231F20"/>
<path d="M22.9461 25.7885C22.8895 25.7885 22.8315 25.782 22.7736 25.7697C22.7208 25.7579 22.6876 25.7058 22.6993 25.6531C22.711 25.6004 22.7625 25.5672 22.8159 25.5789C22.8595 25.5886 22.9031 25.5932 22.9461 25.5932C23.2782 25.5932 23.5484 25.323 23.5484 24.9909C23.5484 24.6588 23.2782 24.3885 22.9461 24.3885C22.614 24.3885 22.3438 24.6588 22.3438 24.9909C22.3438 25.0866 22.3659 25.1784 22.4102 25.265C22.4349 25.3132 22.4161 25.3718 22.3679 25.3965C22.3197 25.4213 22.2611 25.4024 22.2363 25.3542C22.1777 25.2403 22.1484 25.1185 22.1484 24.9915C22.1484 24.5513 22.5066 24.1938 22.9461 24.1938C23.3856 24.1938 23.7438 24.552 23.7438 24.9915C23.7438 25.4311 23.3856 25.7892 22.9461 25.7892V25.7885Z" fill="#231F20"/>
<path d="M22.7952 25.7723C22.788 25.7723 22.7815 25.7716 22.7743 25.7697C22.5412 25.7182 22.3452 25.5665 22.2365 25.3536C22.2117 25.3054 22.2306 25.2468 22.2788 25.2221C22.327 25.1973 22.3856 25.2162 22.4103 25.2644C22.493 25.4252 22.6408 25.5398 22.8166 25.5789C22.8694 25.5906 22.9026 25.6427 22.8909 25.6955C22.8811 25.741 22.8407 25.7723 22.7958 25.7723H22.7952Z" fill="#231F20"/>
<path d="M16.1275 50.1771C16.0559 50.1771 15.9842 50.1745 15.9119 50.17C15.085 50.1133 14.3303 49.7376 13.7859 49.1125C13.2415 48.4874 12.9733 47.6877 13.0299 46.8614C13.0866 46.0344 13.4623 45.2797 14.0874 44.7354C14.7125 44.191 15.5115 43.9227 16.3385 43.9794C18.0452 44.0972 19.3384 45.5812 19.2205 47.2879C19.1079 48.9223 17.7417 50.1778 16.1275 50.1778V50.1771ZM15.9256 49.9746C17.5236 50.0847 18.9158 48.8735 19.0258 47.2736C19.1359 45.6743 17.9247 44.2835 16.3248 44.1734C15.5499 44.12 14.8011 44.3714 14.215 44.8819C13.6296 45.3917 13.2773 46.0995 13.2239 46.8744C13.1706 47.6493 13.4219 48.3982 13.9324 48.9842C14.4423 49.5696 15.1501 49.9219 15.925 49.9753L15.9256 49.9746Z" fill="#231F20"/>
</g>
<defs>
<clipPath id="clip0_328_1476">
<rect width="56" height="56" fill="white"/>
</clipPath>
</defs>
</svg>
