<svg width="20" height="20" viewBox="0 0 20 20" fill="none" xmlns="http://www.w3.org/2000/svg">
<path d="M18.1716 8.368H17.5003V8.33341H10.0003V11.6667H14.7099C14.0228 13.6072 12.1766 15.0001 10.0003 15.0001C7.23908 15.0001 5.00033 12.7613 5.00033 10.0001C5.00033 7.23883 7.23908 5.00008 10.0003 5.00008C11.2749 5.00008 12.4345 5.48091 13.3174 6.26633L15.6745 3.90925C14.1862 2.52216 12.1953 1.66675 10.0003 1.66675C5.39824 1.66675 1.66699 5.398 1.66699 10.0001C1.66699 14.6022 5.39824 18.3334 10.0003 18.3334C14.6024 18.3334 18.3337 14.6022 18.3337 10.0001C18.3337 9.44133 18.2762 8.89591 18.1716 8.368Z" fill="white"/>
<path d="M2.62775 6.12133L5.36566 8.12925C6.1065 6.29508 7.90066 5.00008 10.0002 5.00008C11.2748 5.00008 12.4344 5.48091 13.3173 6.26633L15.6744 3.90925C14.1861 2.52216 12.1952 1.66675 10.0002 1.66675C6.79941 1.66675 4.02358 3.47383 2.62775 6.12133Z" fill="white"/>
<path d="M9.9998 18.3334C12.1523 18.3334 14.1081 17.5096 15.5869 16.17L13.0077 13.9875C12.1429 14.6452 11.0862 15.0009 9.9998 15C7.8323 15 5.99189 13.618 5.29855 11.6892L2.58105 13.783C3.96022 16.4817 6.76105 18.3334 9.9998 18.3334Z" fill="white"/>
<path d="M18.1712 8.36784H17.5V8.33325H10V11.6666H14.7096C14.3809 12.5901 13.7889 13.3971 13.0067 13.9878L13.0079 13.987L15.5871 16.1695C15.4046 16.3353 18.3333 14.1666 18.3333 9.99992C18.3333 9.44117 18.2758 8.89575 18.1712 8.36784Z" fill="white"/>
</svg>
