<svg width="56" height="56" viewBox="0 0 56 56" fill="none" xmlns="http://www.w3.org/2000/svg">
<g clip-path="url(#clip0_346_1199)">
<rect width="56" height="56" fill="#F3F4F5"/>
<path d="M28.2335 37.3885C28.5097 37.3885 28.7336 37.1646 28.7336 36.8884C28.7336 36.6122 28.5097 36.3883 28.2335 36.3883C27.9573 36.3883 27.7334 36.6122 27.7334 36.8884C27.7334 37.1646 27.9573 37.3885 28.2335 37.3885Z" fill="#231F20"/>
<path d="M28.2335 40.7178C28.5097 40.7178 28.7336 40.4939 28.7336 40.2177C28.7336 39.9415 28.5097 39.7177 28.2335 39.7177C27.9573 39.7177 27.7334 39.9415 27.7334 40.2177C27.7334 40.4939 27.9573 40.7178 28.2335 40.7178Z" fill="#231F20"/>
<path d="M28.2335 44.0472C28.5097 44.0472 28.7336 43.8233 28.7336 43.5471C28.7336 43.2709 28.5097 43.0471 28.2335 43.0471C27.9573 43.0471 27.7334 43.2709 27.7334 43.5471C27.7334 43.8233 27.9573 44.0472 28.2335 44.0472Z" fill="#231F20"/>
<path d="M33.9252 15.2398H17.9346C17.9971 14.8517 18.0681 14.4656 18.1475 14.082C18.4874 12.445 18.9048 10.7898 20.0541 9.57599C20.1739 9.44967 20.3009 9.3292 20.435 9.21394C23.0664 6.95571 28.3538 6.84046 31.1082 8.53348C32.0967 9.14101 32.7583 10.0898 33.1913 11.187C33.2245 11.2703 33.2558 11.3543 33.2864 11.4396C33.6803 12.5427 33.8587 13.7779 33.9141 14.9591C33.9174 15.0223 33.92 15.0848 33.9219 15.1473C33.9232 15.1779 33.9245 15.2092 33.9252 15.2398Z" fill="#C47451"/>
<path d="M27.3164 16.1938L27.3092 17.7084C27.3073 18.1134 26.9784 18.4403 26.574 18.4403H24.6062C23.9264 18.4403 23.3456 17.9493 23.2329 17.2793L22.9907 15.8434C22.2698 15.2548 21.5041 15.6312 21.2632 15.7777L21.0099 17.2793C20.8972 17.9493 20.3164 18.4403 19.6365 18.4403L18.8005 18.439L17.6329 18.4377C17.6206 18.9234 17.6245 19.4092 17.6466 19.893C17.659 20.1711 17.6779 20.4465 17.7059 20.7187C17.8459 22.1005 18.2222 23.3872 19.2706 24.3359C19.4152 24.4668 19.5721 24.5905 19.7427 24.7077C20.877 25.4852 22.3148 25.7581 23.6796 25.594C25.4475 25.3817 27.6882 24.5 28.366 22.71C28.6727 21.8999 28.6565 20.9733 28.3218 20.175C29.2197 19.908 29.9451 19.4177 30.4172 18.5933C30.7604 17.9949 30.9427 17.3125 31.0215 16.63C31.026 16.5916 31.0632 16.085 31.0684 15.8246L27.3164 16.1938ZM22.1845 20.6894L25.8011 19.6847C25.9287 21.1589 23.7193 22.0354 22.1845 20.6894Z" fill="#C47451"/>
<path d="M16.8721 15.2398C16.7835 15.2398 16.7119 15.3114 16.7119 15.4V15.9509C16.7119 16.0394 16.7835 16.111 16.8721 16.111H17.1742L17.1957 15.2391H16.8721V15.2398Z" fill="#80A5F5"/>
<path d="M27.0732 34.8665L27.0739 34.8672L30.4098 36.9405L35.6666 33.0081L35.6582 32.9944L33.6025 29.7757L33.5979 29.7692L27.0732 34.8665Z" fill="#009F62"/>
<path d="M26.7494 57.7907C32.5513 57.6305 38.1213 55.8326 43.679 54.3382C46.5096 53.577 49.365 52.8705 52.2757 52.4928C54.2265 52.2402 56.5134 52.6569 58.5105 52.36V51.5858L58.5086 49.2624L58.4936 49.2403L58.4565 49.1862C54.1614 50.6552 49.3194 49.4102 44.8491 50.4124C43.1483 50.7933 41.4963 51.3676 39.8124 51.8169C33.0781 53.6154 25.9661 53.3947 19.0416 52.6016C15.0174 52.1412 11.0193 51.4907 7.00681 50.945C4.94523 50.6644 2.87909 50.4072 0.806441 50.2209C-0.294675 50.1213 -1.5677 49.6778 -2.76128 49.6297L-4.32407 51.7303L-5.10547 52.7806V53.7353C-0.120817 54.2562 4.81305 55.0037 9.74495 55.8997C15.1867 56.8888 21.2002 57.9444 26.7494 57.7907Z" fill="#CEDFF1"/>
<path d="M52.2757 52.4928C49.365 52.8705 46.5096 53.577 43.679 54.3382C38.1213 55.8326 32.5513 57.6305 26.7494 57.7907C21.2002 57.9444 15.1867 56.8888 9.74495 55.8997C4.81305 55.0037 -0.120817 54.2562 -5.10547 53.7352V60.2709H58.5144L58.5105 52.36C56.5134 52.6569 54.2265 52.2402 52.2757 52.4928Z" fill="#FBEFE3"/>
<path d="M41.8732 48.3912C45.6154 47.6345 49.1597 46.2938 52.9455 45.8647C53.9763 45.7481 55.052 45.7572 56.1264 45.7657L54.4132 43.2509C54.2615 43.2555 54.1176 43.2568 53.9848 43.2522C50.9295 43.1513 47.845 43.2073 44.849 43.8786C43.1481 44.2596 41.4961 44.8332 39.8122 45.2832C33.0779 47.081 25.9659 46.861 19.0414 46.0678C13.2168 45.4011 7.43446 44.339 1.6046 43.7621L-0.712891 46.8766C13.4193 48.5195 27.7696 51.2426 41.8732 48.3912Z" fill="#CEDFF1"/>
<path d="M54.4131 43.2509C54.2614 43.2554 54.1175 43.2567 53.9847 43.2522C50.9294 43.1512 47.8449 43.2072 44.8489 43.8786C43.148 44.2595 41.496 44.8332 39.8121 45.2831C33.0778 47.081 25.9658 46.8609 19.0413 46.0678C13.2167 45.401 7.43435 44.339 1.60449 43.762L5.03612 39.1505L7.01826 36.4866C7.74952 35.504 8.83631 34.8463 10.0462 34.6549L15.473 33.8181L17.1985 33.5525C17.1998 33.7192 17.2754 33.8872 17.3906 34.0115C17.5469 34.1802 17.765 34.2791 17.9851 34.3462C18.9534 34.6392 19.9816 34.3768 20.8965 33.9028L24.2584 36.622L26.895 34.9791L27.0734 34.8671L30.4093 36.9411L35.6662 33.0081L35.6577 32.9951L36.0419 33.0517L46.7594 34.6366C47.7654 34.7962 48.6849 35.2774 49.3855 35.9969C49.5743 36.1903 49.7463 36.4013 49.9006 36.6279L54.4125 43.2509H54.4131Z" fill="#FBEFE3"/>
<path d="M7.00638 50.945C11.0188 51.4907 15.017 52.1412 19.0412 52.6016C25.9656 53.3947 33.0776 53.6154 39.812 51.8169C41.4959 51.3676 43.1479 50.7933 44.8487 50.4124C49.3189 49.4102 54.161 50.6553 58.456 49.1862L56.1262 45.7657C55.0518 45.7572 53.9761 45.7481 52.9453 45.8647C49.1594 46.2938 45.6151 47.6345 41.8729 48.3912C27.7694 51.2426 13.419 48.5195 -0.713155 46.8766L-2.76172 49.6297C-1.56814 49.6779 -0.295112 50.1213 0.806005 50.2209C2.87866 50.4072 4.94479 50.6644 7.00638 50.945Z" fill="#FBEFE3"/>
<path d="M35.8903 17.4551C35.889 17.4466 35.887 17.4388 35.885 17.4303C35.8733 17.3795 35.8603 17.3288 35.846 17.2793C35.6734 16.6795 35.3075 16.1716 34.8263 15.8376C34.8087 15.8252 34.7917 15.8141 34.7742 15.8037C34.7312 15.7744 34.6869 15.7477 34.6426 15.7223C34.5423 15.6663 34.4382 15.6168 34.3307 15.5752C34.3183 15.57 34.3066 15.5654 34.2943 15.5608C34.2676 15.5498 34.2409 15.54 34.2135 15.5309C34.1803 15.5198 34.1464 15.5101 34.1126 15.5003C34.0696 15.4886 34.0266 15.4775 33.983 15.4684C33.8241 15.4332 33.6594 15.415 33.4907 15.415C33.3865 15.415 33.2843 15.4221 33.184 15.4352C33.1508 15.4397 33.1183 15.4449 33.0857 15.4508C33.0303 15.4606 32.9756 15.4729 32.9216 15.4866C32.8591 15.5022 32.7979 15.5205 32.738 15.5413C32.6169 15.5823 32.5003 15.6338 32.3883 15.6943L31.7007 15.7621C31.7013 15.9971 31.7046 16.6607 31.7228 17.3665C31.7463 18.2697 31.7944 19.2425 31.8941 19.475C31.9507 19.6085 32.2457 20.6132 32.3134 21.9396C32.4788 25.1583 31.308 30.2706 22.167 29.4273L22.1299 30.3683V30.382L22.2184 30.4627L26.759 34.5826L26.7623 34.5859L27.0729 34.8672L27.1543 34.8034L33.5975 29.7692L33.6021 29.7757L33.5917 29.1167L33.4549 20.7089C33.4666 20.7089 33.4783 20.7102 33.4907 20.7102C34.8165 20.7102 35.8974 19.587 35.9534 18.1779C35.9554 18.1394 35.956 18.101 35.956 18.0626C35.956 17.8536 35.9332 17.6498 35.8903 17.4551Z" fill="#C47451"/>
<path d="M22.1669 29.4273C22.0751 29.4189 21.9826 29.4104 21.8889 29.4006C20.957 29.3043 20.2134 29.0243 19.6235 28.6173C17.0501 26.8448 17.3867 22.6591 17.7058 20.7187C17.8132 21.7788 18.06 22.7829 18.6422 23.6216C18.9235 24.0266 19.2829 24.3925 19.7426 24.7077C20.7773 25.4168 22.064 25.7059 23.3181 25.6271C23.4386 25.6193 23.5597 25.6083 23.6795 25.5939C24.4792 25.4982 25.3758 25.2651 26.1807 24.8731C27.0845 24.4323 27.873 23.7909 28.2781 22.9176C28.31 22.8499 28.3393 22.7803 28.366 22.7099C28.3842 22.6617 28.4011 22.6129 28.4174 22.5641C28.6141 21.9604 28.6375 21.3021 28.4884 20.6855C28.4467 20.5109 28.3907 20.3404 28.3217 20.175C28.562 20.1033 28.7899 20.0161 29.0041 19.9099C29.2952 19.7667 29.5608 19.5896 29.7966 19.374C30.0349 19.1552 30.2433 18.8967 30.4171 18.5933C30.7603 17.9949 30.9426 17.3124 31.0214 16.63C31.026 16.5916 31.0631 16.085 31.0683 15.8245L31.7006 15.762C31.7019 16.2973 31.7162 19.0602 31.894 19.475C32.0893 19.9321 35.0755 30.6183 22.1669 29.4273Z" fill="#541B0A"/>
<path d="M27.0729 34.8671L26.8945 34.9791L24.258 36.622L20.896 33.9028L19.9408 33.1299L19.9277 33.1201L20.5372 32.3563L21.4599 31.2004L21.7764 30.8039L21.8194 30.7505L22.1202 30.3735L22.1293 30.3819L22.436 30.66L27.0729 34.8671Z" fill="#009F62"/>
<path d="M25.8011 19.6846L22.1846 20.6894C23.7194 22.0353 25.9288 21.1582 25.8011 19.6846Z" fill="white"/>
<g style="mix-blend-mode:screen">
<path d="M19.3839 24.3359H19.2706C18.2222 23.3871 17.8459 22.1004 17.7059 20.7187C17.6779 20.4465 17.659 20.1711 17.6466 19.893C17.6245 19.4092 17.6206 18.9234 17.6329 18.4377L18.8005 18.439C18.6924 20.5168 18.8135 22.6103 19.3839 24.3359Z" fill="#C47451"/>
</g>
<g style="mix-blend-mode:screen">
<path d="M19.1281 15.2398H17.9346C17.9971 14.8517 18.0681 14.4656 18.1475 14.082C18.4874 12.445 18.9048 10.7897 20.0541 9.57598C20.1739 9.44965 20.3009 9.32918 20.435 9.21393C20.2201 9.95104 19.5514 12.363 19.1281 15.2398Z" fill="#C47451"/>
</g>
<g style="mix-blend-mode:screen">
<path d="M31.5628 9.10128C31.454 9.59942 29.9433 9.8449 28.2444 8.93262C26.6374 8.06983 24.6083 8.19747 24.7171 7.69933C24.8258 7.20119 27.5164 7.30863 28.7797 7.63682C30.545 8.09524 31.6715 8.60314 31.5628 9.10128Z" fill="#C47451"/>
</g>
<g style="mix-blend-mode:multiply" opacity="0.6">
<path d="M32.7039 15.5296H23.2373L23.3389 16.1332L23.5492 17.3808C23.6807 18.1596 24.1353 18.4598 24.9251 18.4598L26.8291 18.4136C27.2341 18.4136 27.6209 18.0255 27.6711 17.6133L27.7915 16.6685L32.0554 15.9398C32.2702 15.7113 32.7046 15.5289 32.7046 15.5289L32.7039 15.5296Z" fill="#C47451"/>
</g>
<path d="M27.3164 16.1938L31.0678 15.8245L31.7007 15.762L32.3883 15.6943C32.7198 15.5159 33.0942 15.415 33.4907 15.415C33.7056 15.415 33.914 15.4449 34.1126 15.5003V15.3635C34.1126 15.2951 34.0572 15.2398 33.9889 15.2398H27.3216L27.3171 16.1938H27.3164Z" fill="#80A5F5"/>
<path d="M22.8896 15.2398L22.9912 15.8434L23.2335 17.2786C23.3468 17.9493 23.927 18.4396 24.6068 18.4396H26.5746C26.9796 18.4396 27.3078 18.1127 27.3097 17.7077L27.3169 16.1931L27.3215 15.2391H22.8896V15.2398Z" fill="#CEDFF1"/>
<g style="mix-blend-mode:multiply" opacity="0.6">
<path d="M23.0747 16.5167L22.865 15.2971L21.2149 15.5446L21.1472 15.9463L19.5389 16.1762L18.9404 18.4201C19.2237 18.4103 19.5069 18.4012 19.7902 18.3914C20.0858 18.3817 20.4296 18.4129 20.6953 18.2593C20.946 18.1147 21.1961 17.8321 21.2872 17.569C21.4585 17.0748 21.5067 16.7772 21.6349 16.27C22.0341 16.0955 22.4971 16.0447 23.0753 16.5161L23.0747 16.5167Z" fill="#C47451"/>
</g>
<path d="M21.3539 15.2398L21.2686 15.9326C21.5095 15.7861 22.2753 15.4097 22.9961 15.9984L22.8893 15.2391H21.3539V15.2398Z" fill="#80A5F5"/>
<path d="M21.0103 17.2786L21.2636 15.777L21.3541 15.2391H17.1951L17.1736 16.111L17.1281 17.9844C17.1222 18.2325 17.3214 18.437 17.5695 18.4376H17.6334L19.637 18.4402C20.3168 18.4402 20.8976 17.9493 21.0103 17.2792V17.2786Z" fill="#CEDFF1"/>
<g style="mix-blend-mode:screen">
<path d="M35.8909 17.4551C35.8734 17.459 35.8558 17.4603 35.8382 17.4603C35.7614 17.459 35.6819 17.4277 35.6194 17.3808C35.5204 17.3073 35.4508 17.2018 35.3726 17.106C35.1948 16.8892 34.9591 16.7186 34.6987 16.6138C34.5886 16.5695 34.4779 16.5591 34.3692 16.5141C34.2214 16.4529 34.082 16.3872 33.9192 16.3748C33.8053 16.3657 33.6907 16.3819 33.5767 16.3689C33.2765 16.3338 33.0187 16.0694 32.9913 15.7679C32.9868 15.7145 32.9887 15.6592 33.0082 15.609C33.0388 15.5302 33.1085 15.4736 33.1847 15.4352C33.285 15.4221 33.3872 15.415 33.4914 15.415C33.6601 15.415 33.8248 15.4332 33.9837 15.4684C34.0273 15.4775 34.0703 15.4886 34.1133 15.5003C34.1471 15.5101 34.181 15.5198 34.2142 15.5309C34.2415 15.54 34.2682 15.5498 34.2949 15.5608C34.3073 15.5654 34.319 15.57 34.3314 15.5752C34.3529 15.5921 34.3757 15.6077 34.3998 15.6214C34.5235 15.6917 34.6518 15.7308 34.7748 15.8037C34.7924 15.8141 34.8094 15.8252 34.8269 15.8376C35.3081 16.1716 35.6741 16.6795 35.8467 17.2793C35.861 17.3288 35.874 17.3795 35.8857 17.4303C35.8877 17.4388 35.8896 17.4466 35.8909 17.4551Z" fill="#C47451"/>
</g>
<g style="mix-blend-mode:screen">
<path d="M19.6235 28.6173C17.0501 26.8448 17.3867 22.6592 17.7058 20.7187C17.8132 21.7788 18.06 22.7829 18.6422 23.6216C18.6324 23.9087 18.5354 27.4022 19.6235 28.6173Z" fill="#662212"/>
</g>
<g style="mix-blend-mode:screen">
<path d="M29.4423 20.0975C29.1096 20.8424 29.4515 21.7696 29.301 22.5562C29.1747 23.2178 28.7547 23.8039 28.211 24.2017C27.6673 24.5996 27.0076 24.8197 26.3402 24.9102C26.2946 24.9161 26.2451 24.9206 26.2067 24.8965C26.1963 24.89 26.1878 24.8822 26.1807 24.8731C27.0845 24.4323 27.873 23.7909 28.2781 22.9176C28.31 22.8499 28.3393 22.7803 28.366 22.7099C28.3842 22.6617 28.4011 22.6129 28.4174 22.5641C28.6108 21.9722 28.6577 21.2865 28.4897 20.6894C28.4897 20.6881 28.4897 20.6868 28.4884 20.6855C28.4467 20.5109 28.3907 20.3404 28.3217 20.175C28.562 20.1033 28.7899 20.0161 29.0041 19.9099C29.2952 19.7667 29.5609 19.5896 29.7966 19.374C29.7536 19.6299 29.5524 19.852 29.4423 20.0975Z" fill="#541B0A"/>
</g>
<path d="M28.2335 37.3885C28.5097 37.3885 28.7336 37.1646 28.7336 36.8884C28.7336 36.6122 28.5097 36.3883 28.2335 36.3883C27.9573 36.3883 27.7334 36.6122 27.7334 36.8884C27.7334 37.1646 27.9573 37.3885 28.2335 37.3885Z" fill="#C6A587"/>
<path d="M28.2335 40.7178C28.5097 40.7178 28.7336 40.4939 28.7336 40.2177C28.7336 39.9415 28.5097 39.7177 28.2335 39.7177C27.9573 39.7177 27.7334 39.9415 27.7334 40.2177C27.7334 40.4939 27.9573 40.7178 28.2335 40.7178Z" fill="#C6A587"/>
<path d="M28.2335 44.0472C28.5097 44.0472 28.7336 43.8233 28.7336 43.5471C28.7336 43.2709 28.5097 43.0471 28.2335 43.0471C27.9573 43.0471 27.7334 43.2709 27.7334 43.5471C27.7334 43.8233 27.9573 44.0472 28.2335 44.0472Z" fill="#C6A587"/>
<g style="mix-blend-mode:multiply" opacity="0.7">
<path d="M33.914 14.9592C33.9108 14.9715 33.9088 14.9839 33.9075 14.9969C33.9004 15.0588 33.8939 15.0998 33.8808 15.1298C33.8555 15.1884 33.8066 15.2027 33.6783 15.2398C33.2876 15.2398 32.9041 15.2632 32.5147 15.2789C32.488 15.2802 32.4581 15.2802 32.4366 15.2639C32.4177 15.2496 32.4092 15.2248 32.4021 15.202C32.2933 14.8419 32.305 14.4467 32.434 14.0938C32.4828 13.9596 32.5479 13.8326 32.6124 13.7057C32.6918 13.55 32.7713 13.3944 32.8507 13.2394C32.9126 13.1177 32.9751 12.9952 33.0135 12.8637C33.076 12.6508 33.0604 12.4391 33.0578 12.221C33.0558 12.0309 33.0721 11.8388 33.0721 11.646C33.0721 11.493 33.0799 11.3283 33.1737 11.2072C33.1789 11.2006 33.1847 11.1935 33.1906 11.1876C33.2238 11.271 33.2551 11.355 33.2857 11.4403C33.6796 12.5433 33.8581 13.7786 33.9134 14.9598L33.914 14.9592Z" fill="#C47451"/>
</g>
<g style="mix-blend-mode:screen" opacity="0.6">
<path d="M27.0742 34.8672L27.2272 34.9479L34.3835 30.9875L33.6125 29.7692L27.0742 34.8672Z" fill="#009F62"/>
</g>
<g style="mix-blend-mode:screen" opacity="0.8">
<path d="M49.3866 35.9963C49.7467 36.3453 50.0631 36.7405 50.3301 37.1618C50.4128 37.2921 50.4903 37.4633 50.405 37.5916C50.3054 37.7414 50.0788 37.7042 49.9082 37.6456C48.135 37.0388 46.4791 36.0816 44.65 35.672C42.5031 35.1908 40.211 35.4864 38.1247 34.7877C37.2697 34.5012 36.4076 33.9803 36.1074 33.1305C38.1742 33.0862 40.4083 33.697 42.4543 33.9998C43.8895 34.2121 45.3246 34.4243 46.7598 34.6366C47.7704 34.7864 48.6651 35.2969 49.3866 35.9963Z" fill="#FBEFE3"/>
</g>
<g style="mix-blend-mode:multiply">
<path d="M20.8962 33.9028C19.9813 34.3768 18.9531 34.6392 17.9848 34.3462C17.7648 34.2791 17.5466 34.1802 17.3903 34.0115C17.2751 33.8872 17.1995 33.7192 17.1982 33.5525L19.9409 33.1299L20.8962 33.9028Z" fill="#D8B99C"/>
</g>
<g style="mix-blend-mode:multiply">
<path d="M22.6183 31.7006C22.5871 31.8966 22.5506 32.1492 22.4992 32.3791C22.4699 32.508 22.4367 32.6291 22.3963 32.7294C22.2719 33.04 21.8936 33.2874 21.6292 33.4658C21.3961 33.6228 21.1506 33.7712 20.896 33.9028L19.9408 33.1298L19.9277 33.1201C19.9557 33.1409 20.2162 32.786 20.5372 32.3563C20.8387 31.9532 21.1936 31.4844 21.4599 31.2004C21.611 31.039 21.7341 30.9367 21.8031 30.9393C21.807 30.8898 21.7972 30.8436 21.7764 30.8039L21.8194 30.7505L22.1202 30.3735L22.1293 30.3819L22.436 30.66C22.6196 30.9673 22.675 31.3457 22.6183 31.7006Z" fill="#009F62"/>
</g>
<g style="mix-blend-mode:screen" opacity="0.8">
<path d="M15.4568 33.85C15.5754 33.8839 15.6607 33.9725 15.6737 34.1613C15.6841 34.3195 15.6118 34.4719 15.5239 34.6047C15.1651 35.1471 14.553 35.4714 13.9325 35.6648C13.3119 35.8582 12.6614 35.9429 12.0389 36.1311C11.0927 36.4176 10.2332 36.9359 9.42512 37.5063C9.22391 37.6483 9.02465 37.7941 8.82149 37.9335C8.04009 38.47 7.14865 39.004 6.23181 39.2618C6.01302 39.3237 4.85266 39.6096 5.13201 39.0379C5.39117 38.5078 5.84763 38.0592 6.19731 37.589C6.4708 37.2211 6.74494 36.8532 7.01842 36.4853C7.74968 35.5027 8.83647 34.845 10.0463 34.6536C10.2358 34.6236 10.426 34.595 10.6161 34.5657C11.5466 34.4224 12.4771 34.2785 13.4076 34.1352C13.853 34.0669 14.2984 33.9979 14.7438 33.9295C14.9372 33.8995 15.2485 33.7895 15.4575 33.8494L15.4568 33.85Z" fill="#FBEFE3"/>
</g>
<g style="mix-blend-mode:multiply" opacity="0.7">
<path d="M33.6001 28.8394L26.998 34.3821L22.992 30.5174C32.3251 31.0227 32.6878 24.8568 32.3134 21.9396C32.4788 25.1583 31.308 30.2706 22.167 29.4274L22.1299 30.3683V30.382L26.7596 34.582V34.5833L26.7636 34.5859L26.7675 34.5878L27.0755 34.8672V34.7591L27.1556 34.8034L33.5988 29.7692L33.6034 29.7757L33.6014 28.8394H33.6001Z" fill="#C47451"/>
</g>
<path d="M33.4909 20.8079C33.4831 20.8079 33.4746 20.8079 33.4668 20.8079H33.4538C33.3998 20.8066 33.3568 20.7623 33.3574 20.7083C33.3581 20.6542 33.4011 20.61 33.4564 20.6119H33.4746C33.4798 20.6126 33.4851 20.6132 33.4909 20.6132C34.7965 20.6132 35.8585 19.4691 35.8585 18.0632C35.8585 16.9016 35.1299 15.8864 34.0867 15.5947C34.0346 15.5804 34.0047 15.5263 34.019 15.4742C34.0333 15.4221 34.0874 15.3915 34.1395 15.4065C35.2666 15.721 36.0539 16.8137 36.0539 18.0626C36.0539 19.5765 34.9039 20.8079 33.4909 20.8079Z" fill="#231F20"/>
<path d="M31.9113 16.1273C31.8846 16.1273 31.8579 16.1162 31.8384 16.0948C31.8025 16.0544 31.8058 15.9925 31.8455 15.9567C31.9966 15.8213 32.1633 15.7041 32.3417 15.6077C32.3892 15.5823 32.4485 15.5999 32.4739 15.6474C32.4993 15.6949 32.4817 15.7542 32.4342 15.7796C32.2694 15.8682 32.1151 15.9769 31.9758 16.1019C31.9569 16.1189 31.9341 16.1267 31.9106 16.1267L31.9113 16.1273Z" fill="#231F20"/>
<path d="M32.3896 15.792C32.3551 15.792 32.3212 15.7731 32.3036 15.7405C32.2782 15.693 32.2958 15.6338 32.3433 15.6084C32.7021 15.4156 33.0889 15.3173 33.492 15.3173C33.7114 15.3173 33.9296 15.3473 34.1405 15.4059C34.1926 15.4202 34.2226 15.4742 34.2083 15.5263C34.1939 15.5784 34.1399 15.6084 34.0878 15.594C33.8944 15.54 33.6938 15.5126 33.492 15.5126C33.1215 15.5126 32.7666 15.6025 32.4364 15.7803C32.4215 15.7881 32.4058 15.792 32.3902 15.792H32.3896Z" fill="#231F20"/>
<path d="M33.4549 20.8066H33.4536C33.0876 20.8007 32.736 20.7154 32.4084 20.5513C32.3602 20.5272 32.3407 20.4686 32.3648 20.4204C32.3889 20.3723 32.4475 20.3527 32.4957 20.3768C32.7965 20.5272 33.1202 20.606 33.4562 20.6112C33.5102 20.6119 33.5532 20.6562 33.5525 20.7102C33.5519 20.7636 33.5083 20.8066 33.4549 20.8066Z" fill="#231F20"/>
<path d="M33.934 19.4287C33.9145 19.4287 33.895 19.4229 33.8774 19.4105C33.8514 19.3916 33.2327 18.9488 33.1689 18.4611C33.1468 18.2905 33.193 18.1355 33.3057 17.9994C33.6352 17.6042 34.1014 17.9649 34.3007 18.1186C34.3176 18.1316 34.3397 18.1498 34.3651 18.1707C34.6809 18.4305 34.7753 18.4494 34.8033 18.437C34.8033 18.437 34.8248 18.4136 34.8183 18.3081C34.7988 18.004 34.7044 17.7057 34.5442 17.4459C34.4146 17.235 34.2616 17.0832 34.0897 16.996C33.7185 16.8078 33.2412 16.897 32.8225 17.0097C32.7704 17.024 32.717 16.9927 32.7027 16.9406C32.6884 16.8885 32.7196 16.8352 32.7717 16.8208C33.2256 16.6991 33.7478 16.6033 34.1776 16.8215C34.382 16.925 34.5618 17.1008 34.7102 17.3431C34.8867 17.6296 34.9909 17.9591 35.0124 18.2951C35.0228 18.4578 34.9824 18.564 34.8919 18.6109C34.722 18.6981 34.4771 18.5158 34.2407 18.3211C34.2173 18.3016 34.1965 18.2846 34.1808 18.2729C33.8709 18.0333 33.6287 17.9161 33.4554 18.1238C33.3773 18.2176 33.3473 18.3192 33.3623 18.4351C33.4144 18.8381 33.9842 19.2464 33.99 19.2503C34.0343 19.2816 34.0441 19.3428 34.0135 19.3864C33.9946 19.4131 33.964 19.4274 33.9334 19.4274L33.934 19.4287Z" fill="#231F20"/>
<path d="M22.2126 19.0817C21.9313 19.0817 21.7887 18.7906 21.7314 18.674C21.4163 18.032 21.6494 17.233 21.8512 16.688C21.8701 16.6372 21.9261 16.6118 21.9769 16.6307C22.0277 16.6496 22.0531 16.7056 22.0342 16.7564C21.8441 17.2675 21.6247 18.0138 21.9066 18.5887C22.0212 18.8219 22.1273 18.9098 22.2634 18.8811C22.5317 18.8251 22.7766 18.6845 23.0006 18.5406C23.0461 18.5112 23.1067 18.5249 23.1353 18.5705C23.164 18.6161 23.151 18.676 23.1054 18.7053C22.8651 18.859 22.602 19.01 22.3025 19.0725C22.2706 19.0791 22.24 19.0823 22.2113 19.0823L22.2126 19.0817Z" fill="#231F20"/>
<path d="M33.6023 29.8734C33.5489 29.8734 33.5052 29.8304 33.5046 29.777L33.3574 20.7102C33.3568 20.6562 33.3998 20.6119 33.4538 20.6112C33.5059 20.6093 33.5521 20.6536 33.5528 20.7076L33.6999 29.7744C33.7006 29.8284 33.6576 29.8727 33.6036 29.8734H33.6016H33.6023Z" fill="#231F20"/>
<path d="M-0.713157 46.9742C-0.733343 46.9742 -0.754181 46.9677 -0.771111 46.9547C-0.814739 46.9228 -0.823208 46.8616 -0.791301 46.818L1.52619 43.7035C1.55809 43.6605 1.61996 43.6514 1.66294 43.6833C1.70656 43.7152 1.71502 43.7764 1.68312 43.82L-0.634369 46.9345C-0.653252 46.9605 -0.683203 46.9736 -0.712505 46.9736L-0.713157 46.9742Z" fill="#231F20"/>
<path d="M1.60423 43.8597C1.58404 43.8597 1.5632 43.8532 1.54627 43.8402C1.50264 43.8083 1.49417 43.7471 1.52608 43.7034L6.93985 36.428C7.69129 35.4187 8.78851 34.7545 10.0309 34.5579L19.926 33.0328C19.9787 33.025 20.0289 33.0608 20.0373 33.1142C20.0458 33.1676 20.0087 33.2171 19.9559 33.2256L10.0609 34.7506C8.8699 34.9388 7.81697 35.5763 7.09613 36.5439L1.68236 43.8193C1.66348 43.8454 1.63353 43.8584 1.60423 43.8584V43.8597Z" fill="#231F20"/>
<path d="M58.5135 60.3686H-5.10643C-5.16047 60.3686 -5.2041 60.325 -5.2041 60.2709V53.7352C-5.2041 53.6812 -5.16047 53.6376 -5.10643 53.6376C-5.05238 53.6376 -5.00875 53.6812 -5.00875 53.7352V60.1733H58.4158L58.4113 51.5857C58.4113 51.5317 58.4549 51.4881 58.5089 51.4881C58.563 51.4881 58.6066 51.5317 58.6066 51.5857L58.6112 60.2709C58.6112 60.297 58.6007 60.3217 58.5825 60.34C58.5643 60.3582 58.5395 60.3686 58.5135 60.3686Z" fill="#231F20"/>
<path d="M54.4129 43.3485C54.3817 43.3485 54.351 43.3335 54.3322 43.3055L49.8203 36.6826C49.1112 35.6407 47.9905 34.9303 46.7442 34.733L35.6438 33.0914C35.5904 33.0836 35.5533 33.0341 35.5618 32.9807C35.5696 32.9273 35.619 32.8902 35.6724 32.8987L46.7741 34.5402C48.0738 34.746 49.2427 35.487 49.9818 36.5732L54.4937 43.1962C54.5243 43.2404 54.5125 43.3017 54.4683 43.3316C54.4513 43.3433 54.4324 43.3485 54.4136 43.3485H54.4129Z" fill="#231F20"/>
<path d="M56.1265 45.8633C56.0952 45.8633 56.0646 45.8484 56.0457 45.8204L54.3325 43.3056C54.3019 43.2613 54.3136 43.2001 54.3579 43.1701C54.4029 43.1395 54.4634 43.1512 54.4934 43.1955L56.2066 45.7103C56.2372 45.7546 56.2255 45.8158 56.1812 45.8458C56.1642 45.8575 56.1454 45.8627 56.1265 45.8627V45.8633Z" fill="#231F20"/>
<path d="M22.13 30.4796C22.13 30.4796 22.1274 30.4796 22.1261 30.4796C22.072 30.4777 22.0303 30.4321 22.0323 30.378L22.0701 29.4234C22.072 29.3707 22.1156 29.3297 22.1677 29.3297C22.169 29.3297 22.1703 29.3297 22.1716 29.3297C22.2257 29.3316 22.2674 29.3772 22.2654 29.4312L22.2276 30.3858C22.2257 30.4386 22.1821 30.4796 22.13 30.4796Z" fill="#231F20"/>
<path d="M17.9345 15.3375C17.9293 15.3375 17.9241 15.3375 17.9189 15.3362C17.8655 15.3277 17.8297 15.2776 17.8382 15.2242C17.9007 14.8341 17.9729 14.4434 18.0517 14.0618C18.3897 12.4326 18.8175 10.739 19.9831 9.50827C21.1409 8.28603 23.1204 7.48576 25.4131 7.3132C27.5867 7.14976 29.7349 7.57431 31.159 8.44947C32.3916 9.20743 33.8887 11.0001 34.0222 15.2359C34.0241 15.2899 33.9818 15.3349 33.9277 15.3368C33.8737 15.3388 33.8288 15.2965 33.8268 15.2424C33.7545 12.9523 33.2154 9.9439 31.0561 8.61618C29.6659 7.76185 27.5607 7.34771 25.4268 7.5079C23.1816 7.67655 21.2489 8.45469 20.1237 9.64241C18.994 10.836 18.5746 12.4997 18.2419 14.1009C18.1637 14.4792 18.0921 14.8673 18.0296 15.2541C18.0218 15.3023 17.9801 15.3362 17.9332 15.3362L17.9345 15.3375Z" fill="#231F20"/>
<path d="M17.7052 20.8163C17.6557 20.8163 17.6134 20.7786 17.6082 20.7284C17.5822 20.4693 17.5626 20.1971 17.5489 19.8976C17.5275 19.4261 17.5229 18.9338 17.5346 18.435C17.5359 18.3817 17.5796 18.34 17.6323 18.34H17.6349C17.6889 18.3413 17.7313 18.3862 17.73 18.4402C17.7176 18.9345 17.7228 19.4222 17.7436 19.8891C17.7573 20.1854 17.7762 20.4536 17.8022 20.7096C17.8075 20.763 17.7684 20.8111 17.715 20.8163C17.7117 20.8163 17.7085 20.8163 17.7052 20.8163Z" fill="#231F20"/>
<path d="M22.9263 25.7365C21.7366 25.7365 20.5873 25.4045 19.688 24.7885C18.0998 23.6997 17.7424 22.0471 17.6089 20.7291C17.6037 20.6757 17.6427 20.6275 17.6961 20.6223C17.7502 20.6178 17.7977 20.6562 17.8029 20.7096C17.9957 22.6051 18.611 23.8137 19.7987 24.6276C20.8517 25.3491 22.2621 25.6662 23.6686 25.4976C25.3785 25.2925 27.6114 24.4297 28.2756 22.6761C28.5738 21.8882 28.5582 20.9909 28.2326 20.2134C28.2222 20.188 28.2228 20.1587 28.2345 20.1339C28.2463 20.1092 28.2684 20.0903 28.2951 20.0825C29.2341 19.8031 29.9009 19.3005 30.3332 18.5464C30.6406 18.0105 30.8398 17.3626 30.9258 16.6203C30.9297 16.5851 30.9668 16.0811 30.972 15.8239C30.9733 15.7699 31.0176 15.7269 31.0717 15.7282C31.1257 15.7295 31.1687 15.7738 31.1674 15.8278C31.1628 16.087 31.1257 16.5949 31.1205 16.6431C31.0313 17.4114 30.8242 18.0847 30.5038 18.6434C30.061 19.4157 29.3897 19.9379 28.454 20.2381C28.7594 21.0371 28.7626 21.9448 28.4598 22.7458C27.765 24.5814 25.458 25.4806 23.694 25.6923C23.4387 25.7229 23.1828 25.7379 22.9289 25.7379L22.9263 25.7365Z" fill="#231F20"/>
<path d="M22.1672 29.525C22.1672 29.525 22.1614 29.525 22.1581 29.525C22.0657 29.5165 21.9732 29.5074 21.8794 29.4977C20.4697 29.3518 19.3725 28.7768 18.6178 27.7897C17.9503 26.9158 16.9312 24.8334 17.6091 20.703C17.6176 20.6496 17.6684 20.6138 17.7211 20.6223C17.7745 20.6308 17.8103 20.6816 17.8018 20.7343C17.1357 24.7923 18.1242 26.822 18.7727 27.6705C19.4929 28.6134 20.5452 29.163 21.899 29.303C21.9921 29.3127 22.0839 29.3212 22.1757 29.3303C22.2291 29.3355 22.2688 29.3831 22.2636 29.4364C22.2591 29.4872 22.2161 29.525 22.1666 29.525H22.1672Z" fill="#231F20"/>
<path d="M24.0831 29.6175C23.4736 29.6175 22.8322 29.5862 22.1583 29.5243C22.1042 29.5191 22.0651 29.4716 22.0697 29.4182C22.0749 29.3642 22.1224 29.3257 22.1758 29.3296C26.482 29.7269 29.4552 28.8426 31.0128 26.7016C32.0885 25.2234 32.2656 23.4086 32.2252 22.146C32.179 20.7141 31.8502 19.6182 31.8046 19.5127C31.6242 19.0921 31.6053 16.535 31.6034 15.7614C31.6034 15.7073 31.647 15.6637 31.701 15.6637C31.7551 15.6637 31.7987 15.7073 31.7987 15.7614C31.802 17.2643 31.8521 19.1285 31.9837 19.4365C32.0331 19.5518 32.3717 20.6575 32.4199 22.1408C32.4616 23.4334 32.2786 25.2944 31.1703 26.8175C29.8159 28.6791 27.4359 29.6181 24.0831 29.6181V29.6175Z" fill="#231F20"/>
<path d="M22.89 15.3375H21.3545C21.3005 15.3375 21.2568 15.2938 21.2568 15.2398C21.2568 15.1857 21.3005 15.1421 21.3545 15.1421H22.89C22.944 15.1421 22.9876 15.1857 22.9876 15.2398C22.9876 15.2938 22.944 15.3375 22.89 15.3375Z" fill="#231F20"/>
<path d="M27.3215 15.3375H22.8897C22.8356 15.3375 22.792 15.2938 22.792 15.2398C22.792 15.1857 22.8356 15.1421 22.8897 15.1421H27.3215C27.3755 15.1421 27.4192 15.1857 27.4192 15.2398C27.4192 15.2938 27.3755 15.3375 27.3215 15.3375Z" fill="#231F20"/>
<path d="M17.9338 15.3375H17.1953C17.1413 15.3375 17.0977 15.2938 17.0977 15.2398C17.0977 15.1857 17.1413 15.1421 17.1953 15.1421H17.9338C17.9878 15.1421 18.0314 15.1857 18.0314 15.2398C18.0314 15.2938 17.9878 15.3375 17.9338 15.3375Z" fill="#231F20"/>
<path d="M21.3545 15.3375H17.9346C17.8805 15.3375 17.8369 15.2938 17.8369 15.2398C17.8369 15.1857 17.8805 15.1421 17.9346 15.1421H21.3545C21.4085 15.1421 21.4522 15.1857 21.4522 15.2398C21.4522 15.2938 21.4085 15.3375 21.3545 15.3375Z" fill="#231F20"/>
<path d="M33.9248 15.3375H27.3213C27.2673 15.3375 27.2236 15.2938 27.2236 15.2398C27.2236 15.1857 27.2673 15.1421 27.3213 15.1421H33.9248C33.9788 15.1421 34.0224 15.1857 34.0224 15.2398C34.0224 15.2938 33.9788 15.3375 33.9248 15.3375Z" fill="#231F20"/>
<path d="M34.113 15.5979C34.059 15.5979 34.0153 15.5543 34.0153 15.5003V15.3863C34.0153 15.359 33.9932 15.3368 33.9658 15.3368H33.9248C33.8708 15.3368 33.8271 15.2932 33.8271 15.2392C33.8271 15.1851 33.8708 15.1415 33.9248 15.1415H33.9658C34.1006 15.1415 34.2107 15.2509 34.2107 15.3857V15.499C34.2107 15.553 34.1671 15.5966 34.1137 15.5966L34.113 15.5979Z" fill="#231F20"/>
<path d="M17.183 16.2087H17.1738C17.1198 16.2087 17.0762 16.1651 17.0762 16.111C17.0762 16.057 17.1198 16.0134 17.1738 16.0134H17.183C17.237 16.0134 17.2806 16.057 17.2806 16.111C17.2806 16.1651 17.237 16.2087 17.183 16.2087Z" fill="#231F20"/>
<path d="M17.1743 16.2087H16.8721C16.7302 16.2087 16.6143 16.0928 16.6143 15.9509V15.4C16.6143 15.258 16.7302 15.1421 16.8721 15.1421H17.1957C17.2498 15.1421 17.2934 15.1857 17.2934 15.2398C17.2934 15.2938 17.2498 15.3375 17.1957 15.3375H16.8721C16.8376 15.3375 16.8096 15.3655 16.8096 15.4V15.9509C16.8096 15.9854 16.8376 16.0134 16.8721 16.0134H17.1743C17.2283 16.0134 17.2719 16.057 17.2719 16.111C17.2719 16.1651 17.2283 16.2087 17.1743 16.2087Z" fill="#231F20"/>
<path d="M31.701 15.8597C31.6515 15.8597 31.6085 15.8219 31.604 15.7718C31.5988 15.7184 31.6378 15.6702 31.6919 15.665L32.3795 15.5973C32.4342 15.5921 32.4811 15.6311 32.4863 15.6852C32.4915 15.7386 32.4525 15.7868 32.3984 15.792L31.7108 15.8597C31.7108 15.8597 31.7043 15.8597 31.701 15.8597Z" fill="#231F20"/>
<path d="M31.0692 15.9216C31.0197 15.9216 30.9774 15.8838 30.9721 15.8337C30.9669 15.7796 31.006 15.7321 31.0601 15.7269L31.693 15.6644C31.747 15.6592 31.7946 15.6982 31.7998 15.7523C31.805 15.8063 31.7659 15.8539 31.7119 15.8591L31.0789 15.9216C31.0757 15.9216 31.0724 15.9216 31.0692 15.9216Z" fill="#231F20"/>
<path d="M27.3172 16.2914C27.2677 16.2914 27.2248 16.2537 27.2202 16.2035C27.215 16.1501 27.2541 16.1019 27.3081 16.0967L31.0594 15.7275C31.1135 15.7223 31.161 15.7614 31.1662 15.8154C31.1714 15.8695 31.1324 15.917 31.0783 15.9222L27.327 16.2914C27.327 16.2914 27.3205 16.2914 27.3172 16.2914Z" fill="#231F20"/>
<path d="M21.2638 15.8754C21.2586 15.8754 21.2527 15.8754 21.2475 15.874C21.1941 15.8649 21.1583 15.8148 21.1674 15.7614L21.2579 15.2235C21.2671 15.1701 21.3179 15.1343 21.3706 15.1434C21.424 15.1526 21.4598 15.2027 21.4507 15.2561L21.3602 15.794C21.3524 15.8415 21.3107 15.8754 21.2638 15.8754Z" fill="#231F20"/>
<path d="M19.6371 18.5379L17.6328 18.5353C17.5788 18.5353 17.5352 18.4917 17.5352 18.4376C17.5352 18.3836 17.5788 18.34 17.6328 18.34L19.6365 18.3426C20.2707 18.3426 20.8079 17.8887 20.9134 17.263L21.1667 15.7614C21.1758 15.708 21.2259 15.6728 21.2793 15.6813C21.3327 15.6904 21.3686 15.7405 21.3594 15.7939L21.1061 17.2955C20.985 18.0157 20.3664 18.5386 19.6365 18.5386L19.6371 18.5379Z" fill="#231F20"/>
<path d="M17.1739 16.2087H17.1713C17.1172 16.2074 17.0749 16.1625 17.0762 16.1084L17.0977 15.2372C17.099 15.1831 17.1459 15.1421 17.198 15.1421C17.252 15.1434 17.2943 15.1884 17.293 15.2424L17.2715 16.1137C17.2702 16.167 17.2266 16.2087 17.1739 16.2087Z" fill="#231F20"/>
<path d="M17.6334 18.5353H17.5696C17.4231 18.5353 17.2857 18.4774 17.1835 18.3726C17.0813 18.2677 17.0266 18.129 17.0305 17.9825L17.0767 16.1091C17.078 16.0551 17.1255 16.0134 17.177 16.014C17.231 16.0153 17.2734 16.0603 17.272 16.1143L17.2258 17.9877C17.2232 18.0808 17.2584 18.1694 17.3235 18.2365C17.3886 18.3035 17.4759 18.3406 17.5696 18.3406H17.6334C17.6875 18.3406 17.7311 18.3843 17.7311 18.4383C17.7311 18.4924 17.6875 18.536 17.6334 18.536V18.5353Z" fill="#231F20"/>
<path d="M22.9914 15.9411C22.9445 15.9411 22.9035 15.9073 22.895 15.8597L22.7934 15.2561C22.7843 15.2027 22.8201 15.1526 22.8735 15.1434C22.9262 15.1343 22.977 15.1701 22.9862 15.2235L23.0877 15.8272C23.0969 15.8806 23.061 15.9307 23.0076 15.9398C23.0024 15.9405 22.9966 15.9411 22.9914 15.9411Z" fill="#231F20"/>
<path d="M26.5747 18.5379H24.6069C23.8763 18.5379 23.2583 18.0151 23.1372 17.2949L22.895 15.8597C22.8859 15.8063 22.9217 15.7562 22.9751 15.7471C23.0278 15.7379 23.0786 15.7737 23.0877 15.8271L23.33 17.2623C23.4354 17.8881 23.9726 18.3419 24.6069 18.3419H26.5747C26.9244 18.3419 27.2109 18.0574 27.2122 17.707L27.2193 16.1924C27.2193 16.1384 27.263 16.0954 27.317 16.0954C27.3711 16.0954 27.4147 16.1397 27.414 16.1937L27.4069 17.7083C27.4043 18.1655 27.0312 18.5373 26.574 18.5373L26.5747 18.5379Z" fill="#231F20"/>
<path d="M27.3168 16.2914C27.2627 16.2914 27.2191 16.2471 27.2197 16.1931L27.2243 15.2391C27.2243 15.1851 27.2679 15.1421 27.322 15.1421C27.376 15.1421 27.4196 15.1864 27.419 15.2404L27.4144 16.1944C27.4144 16.2484 27.3708 16.2914 27.3168 16.2914Z" fill="#231F20"/>
<path d="M22.9907 16.1488C22.9692 16.1488 22.9471 16.1416 22.9289 16.1267C22.2699 15.5888 21.5796 15.9072 21.3133 16.0687C21.2671 16.0967 21.2072 16.0817 21.1792 16.0362C21.1512 15.9899 21.1662 15.93 21.2117 15.902C21.4475 15.7594 22.2757 15.342 23.0519 15.9756C23.0936 16.0095 23.1001 16.0713 23.0656 16.113C23.0461 16.1364 23.0181 16.1488 22.9901 16.1488H22.9907Z" fill="#231F20"/>
<path d="M23.9001 21.4493C23.3186 21.4493 22.6805 21.2533 22.1211 20.763C22.0944 20.7395 22.0821 20.7031 22.0905 20.6679C22.0983 20.6327 22.125 20.6054 22.1596 20.5956L25.7761 19.5909C25.8041 19.5831 25.8341 19.5883 25.8582 19.6046C25.8822 19.6208 25.8972 19.6475 25.8998 19.6762C25.9552 20.3104 25.6062 20.8828 24.9667 21.2064C24.6672 21.3581 24.2973 21.4493 23.9008 21.4493H23.9001ZM22.3927 20.733C23.2372 21.3796 24.2348 21.3575 24.8782 21.0319C25.403 20.7662 25.7064 20.3163 25.7097 19.8116L22.3933 20.733H22.3927Z" fill="#231F20"/>
<path d="M27.0732 34.9648C27.0556 34.9648 27.0381 34.9603 27.0218 34.9499C26.9964 34.9342 26.9795 34.9076 26.9762 34.8776C26.9729 34.8476 26.9827 34.8183 27.0042 34.7975C27.0426 34.7591 27.1045 34.7591 27.1422 34.7975C27.1559 34.8112 27.165 34.8281 27.1689 34.8457C27.1742 34.8698 27.1702 34.8958 27.1566 34.9186C27.1377 34.9486 27.1064 34.9648 27.0739 34.9648H27.0732Z" fill="#231F20"/>
<path d="M27.073 34.9642C27.0437 34.9642 27.0151 34.9511 26.9962 34.9264C26.963 34.8841 26.9708 34.8222 27.0131 34.789L33.5378 29.6917C33.5593 29.6748 33.5873 29.6676 33.6146 29.6722C33.642 29.6767 33.6654 29.6923 33.6804 29.7158L33.6843 29.7223C33.7136 29.7679 33.6999 29.8284 33.655 29.8571C33.6465 29.8629 33.6368 29.8669 33.6276 29.8695L27.1336 34.9433C27.116 34.957 27.0945 34.9642 27.0737 34.9642H27.073Z" fill="#231F20"/>
<path d="M30.41 37.0381C30.3924 37.0381 30.3741 37.0329 30.3585 37.0232L27.0226 34.9499C26.977 34.9212 26.9627 34.8613 26.9914 34.8151C27.02 34.7695 27.0799 34.7552 27.1261 34.7838L30.4054 36.8219L35.5678 32.9605C35.575 32.941 35.588 32.9241 35.6069 32.9117C35.6525 32.8831 35.713 32.8961 35.7417 32.9417L35.7501 32.9554C35.7775 32.9983 35.7671 33.0556 35.7261 33.0862L30.4686 37.0186C30.451 37.0316 30.4308 37.0381 30.41 37.0381Z" fill="#231F20"/>
<path d="M35.6578 33.0921C35.6259 33.0921 35.594 33.0765 35.5757 33.0472L33.5194 29.8285C33.4901 29.7829 33.5037 29.7223 33.5493 29.6937C33.5949 29.6644 33.6548 29.678 33.6841 29.7236L35.7405 32.9423C35.7698 32.9879 35.7561 33.0485 35.7105 33.0771C35.6942 33.0875 35.676 33.0927 35.6578 33.0927V33.0921Z" fill="#231F20"/>
<path d="M19.9411 33.2275C19.9196 33.2275 19.8981 33.2203 19.8798 33.206L19.8675 33.1956C19.8258 33.1618 19.8186 33.1005 19.8525 33.0589L22.0443 30.3129C22.0612 30.2914 22.086 30.2784 22.1133 30.2764C22.1407 30.2745 22.1667 30.2836 22.1869 30.3018L22.196 30.3103C22.2358 30.3468 22.2384 30.4086 22.2019 30.4484C22.1921 30.4594 22.1798 30.4672 22.1667 30.4731L20.0387 33.1396C20.0368 33.1585 20.0303 33.1767 20.0172 33.1924C19.9977 33.2164 19.9697 33.2288 19.9411 33.2288V33.2275Z" fill="#231F20"/>
<path d="M26.9999 34.931C26.9661 34.8906 26.9693 34.8307 27.0077 34.7955C27.0462 34.7597 27.1061 34.761 27.1432 34.7981L27.0748 34.8678L27.0006 34.9316L26.9999 34.931Z" fill="#231F20"/>
<path d="M24.2582 36.7197C24.2361 36.7197 24.2146 36.7126 24.197 36.6982L19.8798 33.206C19.8381 33.1722 19.8316 33.111 19.8654 33.0686C19.8993 33.027 19.9605 33.0198 20.0028 33.0543L24.266 36.5029L26.8433 34.8964C26.8889 34.8678 26.9495 34.8815 26.9781 34.9277C27.0068 34.9733 26.9924 35.0338 26.9468 35.0625L24.3103 36.706C24.2947 36.7158 24.2764 36.721 24.2588 36.721L24.2582 36.7197Z" fill="#231F20"/>
<path d="M27.0736 34.9641C27.0501 34.9641 27.0267 34.9557 27.0078 34.9388L22.0642 30.4542C22.0244 30.4177 22.0212 30.3559 22.0577 30.3162C22.0941 30.2764 22.156 30.2732 22.1957 30.3096L27.1393 34.7942C27.1791 34.8307 27.1823 34.8925 27.1458 34.9322C27.1263 34.9537 27.1003 34.9641 27.0736 34.9641Z" fill="#231F20"/>
<path d="M26.8944 35.0761C26.8618 35.0761 26.8299 35.0599 26.8117 35.0299C26.783 34.9843 26.7973 34.9238 26.8429 34.8951L27.022 34.7838C27.0676 34.7551 27.1281 34.7694 27.1568 34.815C27.1854 34.8606 27.1711 34.9212 27.1255 34.9498L26.9465 35.0612C26.9302 35.0709 26.9126 35.0761 26.895 35.0761H26.8944Z" fill="#231F20"/>
<path d="M29.6809 45.1249H27.3054C27.0254 45.1249 26.7969 44.897 26.7969 44.6164V34.9785C26.7969 34.9245 26.8405 34.8808 26.8945 34.8808C26.9486 34.8808 26.9922 34.9245 26.9922 34.9785V44.6164C26.9922 44.7889 27.1329 44.9296 27.3054 44.9296H29.6809C29.7349 44.9296 29.7786 44.9732 29.7786 45.0273C29.7786 45.0813 29.7349 45.1249 29.6809 45.1249Z" fill="#231F20"/>
<path d="M56.1265 45.8633C56.0952 45.8633 56.0646 45.8484 56.0457 45.8204L54.3325 43.3056C54.3019 43.2613 54.3136 43.2001 54.3579 43.1701C54.4029 43.1395 54.4634 43.1512 54.4934 43.1955L56.2066 45.7103C56.2372 45.7546 56.2255 45.8158 56.1812 45.8458C56.1642 45.8575 56.1454 45.8627 56.1265 45.8627V45.8633Z" fill="#231F20"/>
<path d="M-0.713157 46.9742C-0.733343 46.9742 -0.754181 46.9677 -0.771111 46.9547C-0.814739 46.9228 -0.823208 46.8616 -0.791301 46.818L1.52619 43.7035C1.55809 43.6605 1.61996 43.6514 1.66294 43.6833C1.70656 43.7152 1.71502 43.7764 1.68312 43.82L-0.634369 46.9345C-0.653252 46.9605 -0.683203 46.9736 -0.712505 46.9736L-0.713157 46.9742Z" fill="#231F20"/>
<path d="M28.4943 49.7267C20.974 49.7267 13.4362 48.761 6.0546 47.8149C3.83022 47.5297 1.53032 47.2354 -0.724006 46.9729C-0.777402 46.9664 -0.815817 46.9182 -0.809956 46.8648C-0.803445 46.8114 -0.755264 46.7724 -0.701869 46.7789C1.55376 47.0413 3.85432 47.3356 6.07869 47.6208C17.8472 49.1289 30.0161 50.6878 41.8536 48.2948C43.3285 47.9966 44.7962 47.6013 46.2151 47.2184C48.3886 46.633 50.6358 46.0274 52.9338 45.767C53.9659 45.6504 55.0572 45.6589 56.1121 45.6673H56.1264C56.1805 45.6673 56.2241 45.7123 56.2234 45.7657C56.2234 45.8191 56.1792 45.8627 56.1258 45.8627H56.1108C55.0618 45.8542 53.9763 45.8458 52.9559 45.961C50.6723 46.2195 48.4323 46.8238 46.2659 47.4073C44.8437 47.7908 43.3727 48.1867 41.892 48.4862C37.4576 49.3829 32.9789 49.726 28.4937 49.726L28.4943 49.7267Z" fill="#231F20"/>
<path d="M28.2862 46.7613C24.9424 46.7613 21.7843 46.48 19.0305 46.1648C16.4122 45.8653 13.7594 45.4792 11.1944 45.106C8.05257 44.6489 4.80392 44.1768 1.59564 43.859C1.54224 43.8538 1.50253 43.8057 1.50839 43.7523C1.5136 43.6982 1.56309 43.6591 1.61518 43.6644C4.82802 43.9821 8.07927 44.4549 11.2231 44.9126C13.7867 45.2857 16.4382 45.6712 19.0533 45.9708C24.8545 46.6349 32.4536 47.1468 39.7876 45.1887C40.4453 45.0129 41.1089 44.815 41.7515 44.6235C42.7537 44.3246 43.7897 44.016 44.8283 43.7829C48.0196 43.0679 51.2501 43.0633 53.9889 43.1539C54.1074 43.1578 54.2454 43.1578 54.4115 43.1525C54.4622 43.1499 54.5104 43.1936 54.5117 43.2469C54.513 43.3003 54.4707 43.3459 54.4173 43.3472C54.248 43.3524 54.1054 43.3524 53.9823 43.3485C51.2559 43.2587 48.0418 43.2619 44.8713 43.9724C43.8392 44.2035 42.8064 44.5115 41.8075 44.8091C41.1642 45.0012 40.4987 45.1991 39.8384 45.3756C35.9588 46.4116 32.0075 46.7593 28.2868 46.7593L28.2862 46.7613Z" fill="#231F20"/>
<path d="M28.2865 53.2951C24.9422 53.2951 21.784 53.0138 19.0296 52.6986C16.4334 52.4017 13.8053 52.0194 11.2638 51.6496C9.86448 51.4458 8.4176 51.2354 6.99286 51.042C4.49891 50.7028 2.58774 50.4794 0.797043 50.3186C0.297602 50.2737 -0.22333 50.161 -0.775516 50.0425C-1.41691 49.9044 -2.0798 49.7619 -2.71468 49.7299L-4.24686 51.7889C-4.27877 51.8326 -4.33998 51.841 -4.38361 51.8091C-4.42659 51.7772 -4.4357 51.716 -4.40379 51.6724L-2.841 49.5717C-2.82212 49.5457 -2.79151 49.532 -2.75896 49.5327C-2.09151 49.5594 -1.40194 49.7078 -0.735144 49.8517C-0.18947 49.9689 0.326253 50.0803 0.813323 50.1246C2.60728 50.2854 4.52105 50.5094 7.01826 50.8493C8.44365 51.0433 9.89118 51.2537 11.2912 51.4575C13.8314 51.8267 16.4575 52.2089 19.0511 52.5058C24.8529 53.1707 32.4533 53.6819 39.7854 51.7238C40.4457 51.5474 41.1118 51.3488 41.7571 51.1567C42.7567 50.8584 43.7901 50.5504 44.8261 50.3186C46.8616 49.8621 48.9994 49.8693 51.0662 49.8765C53.536 49.8849 56.0892 49.8934 58.4236 49.0951C58.4647 49.0807 58.5109 49.0964 58.5356 49.1322L58.5728 49.1862C58.6034 49.2305 58.5916 49.2917 58.5474 49.3217C58.505 49.3503 58.4484 49.3419 58.4165 49.3028C56.071 50.0881 53.5269 50.079 51.0655 50.0705C49.0098 50.0633 46.8831 50.0562 44.869 50.5081C43.8396 50.7386 42.8094 51.046 41.8131 51.3429C41.1672 51.5356 40.4991 51.7349 39.8362 51.9113C35.9579 52.9473 32.0073 53.2951 28.2859 53.2951H28.2865Z" fill="#231F20"/>
<path d="M25.6498 57.9033C20.221 57.9033 14.4354 56.8517 9.72688 55.9961C4.38865 55.0265 -0.466421 54.3187 -5.11637 53.8329C-5.16977 53.8271 -5.20884 53.7795 -5.20364 53.7255C-5.19778 53.6721 -5.15024 53.6337 -5.09619 53.6382C-0.44168 54.1246 4.41795 54.8331 9.76139 55.804C14.7806 56.7163 21.0265 57.8512 26.7457 57.6936C31.6665 57.5575 36.4884 56.222 41.152 54.9301C41.9718 54.7029 42.8196 54.4684 43.6525 54.2444C46.3795 53.5112 49.3104 52.7793 52.2621 52.3965C53.2128 52.2734 54.2593 52.3085 55.2705 52.3424C56.3234 52.3776 57.4115 52.414 58.4117 52.276V51.5864C58.4117 51.5324 58.4553 51.4887 58.5087 51.4887C58.5621 51.4887 58.6064 51.5324 58.6064 51.5864V52.3606C58.6064 52.4088 58.5713 52.4505 58.5237 52.457C57.4825 52.612 56.3547 52.5742 55.264 52.5378C54.2599 52.5039 53.2219 52.4694 52.2875 52.5905C49.3475 52.9721 46.4245 53.7014 43.7039 54.4333C42.8717 54.6573 42.0239 54.8917 41.2047 55.119C36.53 56.4135 31.6965 57.7529 26.7515 57.889C26.3869 57.8994 26.0183 57.904 25.6498 57.904V57.9033Z" fill="#231F20"/>
<path d="M28.2335 37.4861C27.904 37.4861 27.6357 37.2178 27.6357 36.8884C27.6357 36.5589 27.904 36.2906 28.2335 36.2906C28.563 36.2906 28.8313 36.5589 28.8313 36.8884C28.8313 37.2178 28.563 37.4861 28.2335 37.4861ZM28.2335 36.4859C28.0115 36.4859 27.8311 36.6663 27.8311 36.8884C27.8311 37.1104 28.0115 37.2908 28.2335 37.2908C28.4556 37.2908 28.6359 37.1104 28.6359 36.8884C28.6359 36.6663 28.4556 36.4859 28.2335 36.4859Z" fill="#231F20"/>
<path d="M28.2335 40.8155C27.904 40.8155 27.6357 40.5472 27.6357 40.2178C27.6357 39.8883 27.904 39.62 28.2335 39.62C28.563 39.62 28.8313 39.8883 28.8313 40.2178C28.8313 40.5472 28.563 40.8155 28.2335 40.8155ZM28.2335 39.8153C28.0115 39.8153 27.8311 39.9957 27.8311 40.2178C27.8311 40.4398 28.0115 40.6202 28.2335 40.6202C28.4556 40.6202 28.6359 40.4398 28.6359 40.2178C28.6359 39.9957 28.4556 39.8153 28.2335 39.8153Z" fill="#231F20"/>
<path d="M28.2335 44.1449C27.904 44.1449 27.6357 43.8766 27.6357 43.5471C27.6357 43.2177 27.904 42.9494 28.2335 42.9494C28.563 42.9494 28.8313 43.2177 28.8313 43.5471C28.8313 43.8766 28.563 44.1449 28.2335 44.1449ZM28.2335 43.1448C28.0115 43.1448 27.8311 43.3251 27.8311 43.5471C27.8311 43.7692 28.0115 43.9496 28.2335 43.9496C28.4556 43.9496 28.6359 43.7692 28.6359 43.5471C28.6359 43.3251 28.4556 43.1448 28.2335 43.1448Z" fill="#231F20"/>
</g>
<defs>
<clipPath id="clip0_346_1199">
<rect width="56" height="56" fill="white"/>
</clipPath>
</defs>
</svg>
