<svg width="104" height="72" viewBox="0 0 104 72" fill="none" xmlns="http://www.w3.org/2000/svg">
<g filter="url(#filter0_ii_262_1922)">
<g clip-path="url(#clip0_262_1922)">
<rect y="16" width="40" height="40" rx="20" fill="url(#paint0_radial_262_1922)"/>
<g filter="url(#filter1_d_262_1922)">
<path d="M10.809 27.7183C11.9066 28.8163 12.5232 30.3053 12.5232 31.8578C12.5232 33.4103 11.9066 34.8993 10.809 35.9973L6.66718 40.1345L10.809 44.2764L19.0927 35.9973L10.809 27.7183Z" fill="url(#paint1_radial_262_1922)" shape-rendering="crispEdges"/>
<path d="M25.0501 40.1438L29.1919 44.281C28.0943 43.183 27.4777 41.694 27.4777 40.1415C27.4777 38.589 28.0943 37.1 29.1919 36.002L33.3338 31.8601L29.1919 27.7183L20.9129 36.002L25.0501 40.1438Z" fill="url(#paint2_radial_262_1922)" shape-rendering="crispEdges"/>
<path d="M11.7194 45.191C12.8174 44.0934 14.3063 43.4768 15.8589 43.4768C17.4114 43.4768 18.9004 44.0934 19.9984 45.191L24.1357 49.3329L28.2775 45.191L19.9984 36.9119L11.7194 45.191Z" fill="url(#paint3_radial_262_1922)" shape-rendering="crispEdges"/>
<path d="M28.2821 26.8081C27.1841 27.9057 25.6951 28.5223 24.1426 28.5223C22.59 28.5223 21.1011 27.9057 20.0031 26.8081L15.8612 22.6663L11.7194 26.8081L20.0031 35.0918L28.2821 26.8081Z" fill="url(#paint4_radial_262_1922)" shape-rendering="crispEdges"/>
<path d="M27.8244 45.1907L24.1359 48.8792L20.2248 44.9651L20.0031 44.7532C18.8704 43.7279 17.3936 43.1565 15.8586 43.1565C15.1781 43.1565 14.5096 43.2702 13.8771 43.4846L19.9982 37.3645L27.8244 45.1907ZM18.6389 35.9973L10.8088 43.8235L7.11932 40.134L11.0353 36.2239C12.1929 35.0659 12.843 33.4951 12.843 31.8577C12.8429 31.1764 12.7287 30.5074 12.5139 29.8743L18.6389 35.9973ZM32.881 31.8596L28.966 35.7756C27.8084 36.9337 27.1574 38.5045 27.1574 40.1419C27.1574 40.823 27.2717 41.4921 27.4865 42.1253L25.2766 39.9172L21.3644 36.0012L29.1916 28.1702L32.881 31.8596ZM19.7766 27.0344C20.9346 28.192 22.5054 28.842 24.1428 28.842C24.8237 28.842 25.4923 28.7276 26.1252 28.5129L20.0021 34.6379L12.1711 26.8079L15.8605 23.1184L19.7766 27.0344Z" stroke="url(#paint5_linear_262_1922)" stroke-width="0.64" shape-rendering="crispEdges"/>
</g>
</g>
</g>
<path d="M52.8594 48V44.7188L63.7812 31.0781C64.1562 30.6094 64.5365 30.1458 64.9219 29.6875C65.3177 29.2292 65.7188 28.7656 66.125 28.2969H53.2656V24.7188H71.0938V28L60.3906 41.4375C59.9844 41.9375 59.5729 42.4375 59.1562 42.9375C58.75 43.4271 58.3333 43.9219 57.9062 44.4219H71.2188V48H52.8594ZM73.0206 54.5312V51.3281H74.9737C75.505 51.3281 75.9165 51.1823 76.2081 50.8906C76.5102 50.6094 76.7758 50.1458 77.005 49.5L77.6144 47.9062L71.255 31.5H75.4269L78.4581 40.0938C78.6665 40.7083 78.8696 41.3229 79.0675 41.9375C79.2654 42.5417 79.4581 43.1458 79.6456 43.75C80.0206 42.5417 80.4165 41.3229 80.8331 40.0938L83.8487 31.5H87.9737L80.5987 50.7188C79.6196 53.2604 77.9529 54.5312 75.5987 54.5312H73.0206ZM93.385 48.2656C91.7392 48.2656 90.3746 47.8542 89.2912 47.0312C88.2183 46.1979 87.6819 44.9583 87.6819 43.3125C87.6819 42.0625 87.984 41.099 88.5881 40.4219C89.2027 39.7344 89.9996 39.2344 90.9787 38.9219C91.9683 38.6094 93.0308 38.3958 94.1662 38.2812C95.6975 38.1042 96.7652 37.9479 97.3694 37.8125C97.9735 37.6771 98.2756 37.3281 98.2756 36.7656V36.6406C98.2756 35.9323 98.0048 35.3542 97.4631 34.9062C96.9319 34.4583 96.1975 34.2344 95.26 34.2344C94.3017 34.2344 93.5204 34.4583 92.9162 34.9062C92.3225 35.3542 91.9996 35.9271 91.9475 36.625H88.1506C88.2444 34.9896 88.9267 33.6719 90.1975 32.6719C91.4683 31.6719 93.1819 31.1719 95.3381 31.1719C97.484 31.1719 99.161 31.6719 100.369 32.6719C101.578 33.6719 102.182 35.0312 102.182 36.75V48H98.3069V45.6719H98.2444C97.8485 46.401 97.2756 47.0156 96.5256 47.5156C95.7756 48.0156 94.7287 48.2656 93.385 48.2656ZM94.3537 45.3438C95.6454 45.3438 96.6246 45.0104 97.2912 44.3438C97.9579 43.6667 98.2912 42.849 98.2912 41.8906V40.1094C98.0517 40.2656 97.5881 40.4115 96.9006 40.5469C96.2131 40.6719 95.4631 40.7969 94.6506 40.9219C93.8069 41.0469 93.0725 41.2865 92.4475 41.6406C91.8329 41.9844 91.5256 42.5312 91.5256 43.2812C91.5256 43.9271 91.7808 44.4323 92.2912 44.7969C92.8017 45.1615 93.4892 45.3438 94.3537 45.3438Z" fill="#9273E0"/>
<defs>
<filter id="filter0_ii_262_1922" x="0" y="16" width="40" height="40" filterUnits="userSpaceOnUse" color-interpolation-filters="sRGB">
<feFlood flood-opacity="0" result="BackgroundImageFix"/>
<feBlend mode="normal" in="SourceGraphic" in2="BackgroundImageFix" result="shape"/>
<feColorMatrix in="SourceAlpha" type="matrix" values="0 0 0 0 0 0 0 0 0 0 0 0 0 0 0 0 0 0 127 0" result="hardAlpha"/>
<feMorphology radius="1.66667" operator="erode" in="SourceAlpha" result="effect1_innerShadow_262_1922"/>
<feOffset/>
<feGaussianBlur stdDeviation="0.833333"/>
<feComposite in2="hardAlpha" operator="arithmetic" k2="-1" k3="1"/>
<feColorMatrix type="matrix" values="0 0 0 0 1 0 0 0 0 1 0 0 0 0 1 0 0 0 0.25 0"/>
<feBlend mode="normal" in2="shape" result="effect1_innerShadow_262_1922"/>
<feColorMatrix in="SourceAlpha" type="matrix" values="0 0 0 0 0 0 0 0 0 0 0 0 0 0 0 0 0 0 127 0" result="hardAlpha"/>
<feMorphology radius="1.66667" operator="erode" in="SourceAlpha" result="effect2_innerShadow_262_1922"/>
<feOffset/>
<feGaussianBlur stdDeviation="0.833333"/>
<feComposite in2="hardAlpha" operator="arithmetic" k2="-1" k3="1"/>
<feColorMatrix type="matrix" values="0 0 0 0 0.572549 0 0 0 0 0.45098 0 0 0 0 0.878431 0 0 0 1 0"/>
<feBlend mode="normal" in2="effect1_innerShadow_262_1922" result="effect2_innerShadow_262_1922"/>
</filter>
<filter id="filter1_d_262_1922" x="-2.29283" y="17.5463" width="44.5867" height="44.5867" filterUnits="userSpaceOnUse" color-interpolation-filters="sRGB">
<feFlood flood-opacity="0" result="BackgroundImageFix"/>
<feColorMatrix in="SourceAlpha" type="matrix" values="0 0 0 0 0 0 0 0 0 0 0 0 0 0 0 0 0 0 127 0" result="hardAlpha"/>
<feOffset dy="3.84"/>
<feGaussianBlur stdDeviation="4.48"/>
<feComposite in2="hardAlpha" operator="out"/>
<feColorMatrix type="matrix" values="0 0 0 0 0 0 0 0 0 0 0 0 0 0 0 0 0 0 0.22 0"/>
<feBlend mode="normal" in2="BackgroundImageFix" result="effect1_dropShadow_262_1922"/>
<feBlend mode="normal" in="SourceGraphic" in2="effect1_dropShadow_262_1922" result="shape"/>
</filter>
<radialGradient id="paint0_radial_262_1922" cx="0" cy="0" r="1" gradientUnits="userSpaceOnUse" gradientTransform="translate(19.1667 35.1667) rotate(3.36646) scale(14.1912)">
<stop offset="0.409551" stop-color="#6E41DF"/>
<stop offset="1" stop-color="#9273E0"/>
</radialGradient>
<radialGradient id="paint1_radial_262_1922" cx="0" cy="0" r="1" gradientUnits="userSpaceOnUse" gradientTransform="translate(20.0005 21.3964) rotate(90) scale(46.3492)">
<stop stop-color="white"/>
<stop offset="1" stop-color="white" stop-opacity="0"/>
</radialGradient>
<radialGradient id="paint2_radial_262_1922" cx="0" cy="0" r="1" gradientUnits="userSpaceOnUse" gradientTransform="translate(20.0005 21.3964) rotate(90) scale(46.3492)">
<stop stop-color="white"/>
<stop offset="1" stop-color="white" stop-opacity="0"/>
</radialGradient>
<radialGradient id="paint3_radial_262_1922" cx="0" cy="0" r="1" gradientUnits="userSpaceOnUse" gradientTransform="translate(20.0005 21.3964) rotate(90) scale(46.3492)">
<stop stop-color="white"/>
<stop offset="1" stop-color="white" stop-opacity="0"/>
</radialGradient>
<radialGradient id="paint4_radial_262_1922" cx="0" cy="0" r="1" gradientUnits="userSpaceOnUse" gradientTransform="translate(20.0005 21.3964) rotate(90) scale(46.3492)">
<stop stop-color="white"/>
<stop offset="1" stop-color="white" stop-opacity="0"/>
</radialGradient>
<linearGradient id="paint5_linear_262_1922" x1="20.0005" y1="22.6663" x2="20.0005" y2="49.3329" gradientUnits="userSpaceOnUse">
<stop offset="0.735221" stop-color="white" stop-opacity="0"/>
<stop offset="1" stop-color="white" stop-opacity="0.8"/>
</linearGradient>
<clipPath id="clip0_262_1922">
<rect y="16" width="40" height="40" rx="20" fill="white"/>
</clipPath>
</defs>
</svg>
