<svg width="21" height="20" viewBox="0 0 21 20" fill="none" xmlns="http://www.w3.org/2000/svg">
<path d="M14.6667 2.91675H6.33335C3.83335 2.91675 2.16669 4.16675 2.16669 7.08342V12.9167C2.16669 15.8334 3.83335 17.0834 6.33335 17.0834H14.6667C17.1667 17.0834 18.8334 15.8334 18.8334 12.9167V7.08342C18.8334 4.16675 17.1667 2.91675 14.6667 2.91675ZM15.0584 7.99175L12.45 10.0751C11.9 10.5167 11.2 10.7334 10.5 10.7334C9.80002 10.7334 9.09169 10.5167 8.55002 10.0751L5.94169 7.99175C5.67502 7.77508 5.63335 7.37508 5.84169 7.10841C6.05835 6.84175 6.45002 6.79175 6.71669 7.00841L9.32502 9.09175C9.95835 9.60008 11.0334 9.60008 11.6667 9.09175L14.275 7.00841C14.5417 6.79175 14.9417 6.83341 15.15 7.10841C15.3667 7.37508 15.325 7.77508 15.0584 7.99175Z" fill="white"/>
</svg>
