<svg width="20" height="20" viewBox="0 0 20 20" fill="none" xmlns="http://www.w3.org/2000/svg">
<path d="M9.77148 9.23608C9.93314 9.12946 10.1526 9.14664 10.2949 9.28882L12.3779 11.3728L12.4316 11.4382C12.5379 11.5999 12.5201 11.8195 12.3779 11.9617C12.2357 12.1037 12.0161 12.1217 11.8545 12.0154L11.7891 11.9617L10.417 10.5896V15.8337C10.4168 16.0636 10.2298 16.2506 10 16.2507C9.77017 16.2506 9.5842 16.0636 9.58398 15.8337V10.5896L8.21191 11.9617L7.91699 11.6667L7.62207 11.3728L9.70605 9.28882L9.77148 9.23608ZM10.417 4.16675C12.8423 4.16692 14.8255 6.05096 14.9873 8.4353C16.4314 8.80092 17.5 10.109 17.5 11.6667C17.5 13.4502 16.0992 14.9067 14.3379 14.9958L14.167 14.9998H11.667L11.583 14.9919C11.3931 14.9533 11.2502 14.785 11.25 14.5837C11.25 14.3536 11.4369 14.1667 11.667 14.1667H14.1484L14.3008 14.1628C15.5361 14.0979 16.534 13.1352 16.6543 11.9148L16.667 11.6667C16.667 10.4997 15.8663 9.5173 14.7832 9.24292L14.1973 9.09448L14.1562 8.49194C14.0281 6.60231 12.5003 5.09688 10.6016 5.00464L10.417 4.99976C8.95625 4.99976 7.68893 5.83558 7.06934 7.05835L6.8584 7.47437L6.39355 7.51245C4.68073 7.65101 3.33301 9.08511 3.33301 10.8337L3.33789 10.9998C3.42168 12.7034 4.78422 14.071 6.48535 14.1619L6.68555 14.1667H8.33301L8.41699 14.1755C8.60697 14.2143 8.75 14.3823 8.75 14.5837C8.74978 14.8137 8.56299 14.9998 8.33301 14.9998H6.66699L6.45215 14.9949C4.25078 14.8832 2.50021 13.0628 2.5 10.8337C2.5 8.64722 4.18428 6.85467 6.32617 6.6814C7.08214 5.18949 8.63008 4.16675 10.417 4.16675ZM8.21191 11.9617C8.04931 12.1242 7.78481 12.124 7.62207 11.9617C7.45964 11.7991 7.45977 11.5355 7.62207 11.3728L8.21191 11.9617Z" fill="#525866"/>
</svg>
